<?xml version="1.0" encoding="UTF-8"?>
<svg version="1.1" viewBox="0 0 1600 1600" width="1280" height="1280" xmlns="http://www.w3.org/2000/svg">
<path transform="translate(0)" d="m0 0h1600v1600h-1600v-1600z" fill="#FCFEFE"/>
<path transform="translate(775,63)" d="m0 0h2c2.68 5.23 5.08 10.5 7.25 15.9 2.47 6.09 5.08 12.1 7.87 18.1 0.32 0.67 0.63 1.34 0.95 2.03 3.92 8.26 8.53 16.1 13.3 23.9 0.47 0.78 0.95 1.56 1.44 2.37 3.09 5.01 6.28 9.89 9.74 14.6 1.44 2.04 1.44 2.04 2.99 4.66 1.79 2.94 3.98 4.97 6.45 7.38 1.34 1.49 2.67 2.99 4 4.5 4.21 4.76 8.58 9.14 13.4 13.3 4.27 3.78 7.96 7.83 11.6 12.2 6.65 7.93 6.65 7.93 14.4 14.8 3.82 3.28 6.61 7.24 9.62 11.2 1.81 2.31 3.63 4.58 5.57 6.79 0.56 0.62 1.11 1.25 1.68 1.9 0.52 0.58 1.04 1.16 1.58 1.76 1.17 1.55 1.17 1.55 1.17 3.55 0.62 0.25 1.24 0.5 1.88 0.75 2.12 1.25 2.12 1.25 3 3.06 1.1 2.51 1.1 2.51 4.18 4.63 2.94 2.56 2.94 2.56 3.82 5.37 0.04 0.72 0.08 1.45 0.12 2.19h2v2h2c1.63 2.09 3.14 4.18 4.62 6.38 0.64 0.9 0.64 0.9 1.28 1.82 3.1 4.53 3.1 4.53 3.1 6.8 0.99 0.33 1.98 0.66 3 1 1.61 2.22 3.07 4.42 4.5 6.75 0.39 0.62 0.78 1.24 1.18 1.88 1.71 2.73 3.38 5.47 4.98 8.26 1.17 2.24 1.17 2.24 3.34 3.11 0.95 1.62 1.83 3.27 2.69 4.94 2.56 4.82 5.4 9.25 8.6 13.7 3.74 5.22 7 10.6 10.1 16.2 2.49 4.5 5 8.9 7.93 13.1 1.86 2.68 3.31 5.28 4.58 8.29 1.96 4.52 4.21 8.82 6.55 13.2 4.3 8.08 8.38 16.2 12.4 24.5 0.54 1.1 1.08 2.2 1.64 3.34 3.14 6.53 5.93 13.1 8.45 19.9 1.03 2.71 2.18 5.32 3.41 7.94 7.71 16.7 13.7 34.1 19.6 51.6 0.98 2.88 1.97 5.75 2.98 8.62 5.91 17 10.5 34.4 15.2 51.7 0.31 1.17 0.63 2.33 0.95 3.53 7.33 27.5 11.5 55.2 14 83.5 0.06 0.68 0.12 1.36 0.19 2.05 4.3 48.2 4.07 99.1-4.19 147-0.24 1.52-0.48 3.04-0.72 4.57-0.13 0.81-0.25 1.63-0.39 2.47-0.26 1.68-0.52 3.37-0.78 5.06-0.13 0.81-0.26 1.63-0.39 2.47-0.12 0.73-0.23 1.46-0.35 2.21-10.2 60.8-32.5 121-63.3 174-1.04 1.81-2.06 3.63-3.07 5.45-7.61 13.6-15.9 26.8-25 39.5-0.94 1.34-1.87 2.68-2.81 4.02-4.91 7.04-9.84 14-15.3 20.6-2.91 3.65-5.55 7.48-8.22 11.3-0.55 0.67-1.09 1.35-1.66 2.05h-2c-0.38 0.84-0.38 0.84-0.76 1.69-4.38 8.15-11.8 15.1-18.1 21.8-2.16 2.3-4.24 4.6-6.2 7.07-2.16 2.68-4.5 5.02-6.96 7.43-1.24 1.25-2.47 2.49-3.71 3.74-1.37 1.38-2.73 2.76-4.1 4.14-0.68 0.68-1.35 1.36-2.04 2.06-3.98 3.99-8.05 7.8-12.3 11.5-3.32 2.87-6.51 5.87-9.73 8.86-2.1 1.72-2.1 1.72-4.1 1.72l-1 3c-1.83 1.69-1.83 1.69-4.25 3.56-1.34 1.05-1.34 1.05-2.71 2.11-1.51 1.15-1.51 1.15-3.04 2.33-1.13 0.88-2.25 1.76-3.38 2.64-1.14 0.89-2.29 1.78-3.43 2.67-0.54 0.42-1.08 0.84-1.63 1.28-3.08 2.37-6.19 4.49-9.56 6.41-17.8-13.4-27-28.4-32-50-0.48-1.83-0.96-3.67-1.44-5.5-3.89-15.8-6.33-31.3-7.56-47.5h-4c-0.05 0.93-0.1 1.86-0.15 2.82-0.44 7.5-1.13 14.8-2.45 22.2-0.48 3.01-0.48 3.01-0.34 6.1-0.08 5.52-1.03 10.8-1.94 16.3-0.17 1.08-0.34 2.17-0.52 3.28-0.89 5.43-1.87 10.8-3.11 16.2-0.53 2.37-1 4.75-1.45 7.13-0.17 0.83-0.33 1.66-0.49 2.52-0.33 1.69-0.65 3.39-0.96 5.08-0.97 4.96-2.23 9.65-3.9 14.4-0.92 2.71-1.6 5.45-2.25 8.23-0.98 4.01-2.04 7.92-3.44 11.8l-1-2c-0.99-0.33-1.98-0.66-3-1-0.29-0.62-0.58-1.24-0.88-1.88-1.49-2.83-3.37-3.52-6.12-5.12-1.67-1.66-3.34-3.33-5-5-2.26-2.04-4.56-4.02-6.88-6-0.58-0.51-1.17-1.02-1.77-1.54-3.01-2.57-6.03-4.97-9.3-7.21-1-0.74-2.01-1.48-3.05-2.25v-2c-0.84-0.37-0.84-0.37-1.69-0.75-2.73-1.48-4.99-3.18-7.31-5.25v-2c-0.59-0.27-1.18-0.54-1.79-0.82-6.73-3.58-12.3-9.89-17.2-15.7-2.73-3.24-5.8-5.79-9.06-8.5-1.2-1.45-2.4-2.91-3.58-4.39-2.28-2.59-4.92-4.77-7.55-7-1.72-1.48-3.37-2.91-4.87-4.61v-2c-0.99-0.33-1.98-0.66-3-1-1.61-1.56-1.61-1.56-3.19-3.44-0.53-0.61-1.06-1.23-1.6-1.87-1.21-1.69-1.21-1.69-1.21-3.69h-2c-1.11-1.61-1.11-1.61-2.31-3.75-2.14-3.6-4.35-5.7-7.69-8.25-0.43-0.74-0.87-1.49-1.31-2.25-1.57-2.56-2.89-3.94-5.07-5.94-5.61-5.45-9.87-11.9-14.4-18.3-2.77-3.92-5.66-7.72-8.63-11.5-3.54-4.56-6.74-9.21-9.78-14.1-2.17-3.46-4.44-6.85-6.72-10.2-13.3-19.9-13.3-19.9-18.8-30.2-1.2-2.22-2.48-4.33-3.83-6.45-5.76-9.05-10.4-18.7-15-28.4-0.97-2.01-1.93-4.01-2.9-6.02-11.2-23.2-11.2-23.2-14.5-32.2-0.24-0.67-0.48-1.33-0.73-2.01-0.52-1.4-1.03-2.81-1.54-4.21-0.8-2.19-1.62-4.38-2.44-6.56-1.83-4.85-3.59-9.72-5.35-14.6-0.46-1.26-0.46-1.26-0.93-2.54-13.7-37.8-26.2-83.1-26.1-123-0.31-2.34-0.64-4.67-1-7-0.76-8.47-1.11-16.9-0.94-25.4 0.06-2.72 0.06-2.72-1.06-5.61-0.09-1.71-0.13-3.43-0.13-5.15 0-1-0.01-2.01-0.01-3.05 0.01-1.04 0.01-2.09 0.02-3.18-0.01-1.04-0.01-2.08-0.02-3.15 0-1.01 0.01-2.02 0.01-3.06v-2.78c0.13-2.64 0.61-5.05 1.13-7.63-0.02-2.13-0.05-4.25-0.12-6.38-2.17-82.1 20.6-170 76.3-304 2.04-3.73 3.93-7.51 5.8-11.3 3.71-7.5 7.72-14.8 11.9-22 0.77-1.34 1.53-2.67 2.29-4.01 10.6-18.7 22.5-36.5 35.3-53.8 1.62-2.21 3.21-4.45 4.8-6.69 9.04-12.8 18.8-24.8 29.1-36.6 1.52-1.75 3.03-3.52 4.52-5.31 6.55-7.8 13.4-15.1 20.7-22.2 3.07-2.99 6.05-5.92 8.74-9.27 2.5-3.04 5.33-5.52 8.32-8.07 2.84-2.46 5.61-5 8.37-7.55 5.57-5.12 11.2-10.2 17-15 13.3-10.8 24.9-23.4 29-40.6 0.19-0.8 0.39-1.6 0.59-2.43 1.42-6.47 1.98-13 2.41-19.6z" fill="#4DA752"/>
<path transform="translate(775,63)" d="m0 0h2c2.68 5.23 5.08 10.5 7.25 15.9 2.47 6.09 5.08 12.1 7.87 18.1 0.32 0.67 0.63 1.34 0.95 2.03 3.92 8.26 8.53 16.1 13.3 23.9 0.47 0.78 0.95 1.56 1.44 2.37 3.09 5.01 6.28 9.89 9.74 14.6 1.44 2.04 1.44 2.04 2.99 4.66 1.79 2.94 3.98 4.97 6.45 7.38 1.34 1.49 2.67 2.99 4 4.5 4.21 4.76 8.58 9.14 13.4 13.3 4.27 3.78 7.96 7.83 11.6 12.2 6.65 7.93 6.65 7.93 14.4 14.8 3.82 3.28 6.61 7.24 9.62 11.2 1.81 2.31 3.63 4.58 5.57 6.79 0.56 0.62 1.11 1.25 1.68 1.9 0.78 0.87 0.78 0.87 1.58 1.76 1.17 1.55 1.17 1.55 1.17 3.55 0.62 0.25 1.24 0.5 1.88 0.75 2.12 1.25 2.12 1.25 3 3.06 1.1 2.51 1.1 2.51 4.18 4.63 2.94 2.56 2.94 2.56 3.82 5.37 0.04 0.72 0.08 1.45 0.12 2.19h2v2h2c1.63 2.09 3.14 4.18 4.62 6.38 0.64 0.9 0.64 0.9 1.28 1.82 3.1 4.53 3.1 4.53 3.1 6.8 0.99 0.33 1.98 0.66 3 1 1.61 2.22 3.07 4.42 4.5 6.75 0.39 0.62 0.78 1.24 1.18 1.88 1.71 2.73 3.38 5.47 4.98 8.26 1.17 2.24 1.17 2.24 3.34 3.11 0.95 1.62 1.83 3.27 2.69 4.94 2.56 4.82 5.4 9.25 8.6 13.7 3.74 5.22 7 10.6 10.1 16.2 2.49 4.5 5 8.9 7.93 13.1 1.86 2.68 3.31 5.28 4.58 8.29 1.96 4.52 4.21 8.82 6.55 13.2 4.3 8.08 8.38 16.2 12.4 24.5 0.81 1.65 0.81 1.65 1.64 3.34 3.14 6.53 5.93 13.1 8.45 19.9 1.03 2.71 2.18 5.32 3.41 7.94 7.71 16.7 13.7 34.1 19.6 51.6 0.98 2.88 1.97 5.75 2.98 8.62 5.91 17 10.5 34.4 15.2 51.7 0.31 1.17 0.63 2.33 0.95 3.53 7.33 27.5 11.5 55.2 14 83.5 0.09 1.02 0.09 1.02 0.19 2.05 4.3 48.2 4.07 99.1-4.19 147-0.24 1.52-0.48 3.04-0.72 4.57-0.13 0.81-0.25 1.63-0.39 2.47-0.26 1.68-0.52 3.37-0.78 5.06-0.2 1.22-0.2 1.22-0.39 2.47-0.17 1.09-0.17 1.09-0.35 2.21-10.2 60.8-32.5 121-63.3 174-1.04 1.81-2.06 3.63-3.07 5.45-7.61 13.6-15.9 26.8-25 39.5-0.94 1.34-1.87 2.68-2.81 4.02-4.91 7.04-9.84 14-15.3 20.6-2.91 3.65-5.55 7.48-8.22 11.3-0.55 0.67-1.09 1.35-1.66 2.05h-2c-0.25 0.56-0.5 1.12-0.76 1.69-4.38 8.15-11.8 15.1-18.1 21.8-2.16 2.3-4.24 4.6-6.2 7.07-2.16 2.68-4.5 5.02-6.96 7.43-1.24 1.25-2.47 2.49-3.71 3.74-1.37 1.38-2.73 2.76-4.1 4.14-0.68 0.68-1.35 1.36-2.04 2.06-3.98 3.99-8.05 7.8-12.3 11.5-3.32 2.87-6.51 5.87-9.73 8.86-2.1 1.72-2.1 1.72-4.1 1.72l-1 3c-1.83 1.69-1.83 1.69-4.25 3.56-0.9 0.7-1.79 1.39-2.71 2.11-1.51 1.15-1.51 1.15-3.04 2.33-1.13 0.88-2.25 1.76-3.38 2.64-1.14 0.89-2.29 1.78-3.43 2.67-0.54 0.42-1.08 0.84-1.63 1.28-3.08 2.37-6.19 4.49-9.56 6.41-17.8-13.4-27-28.4-32-50-0.48-1.83-0.96-3.67-1.44-5.5-3.88-15.7-6.28-31.2-7.33-47.4-0.17-2.31-0.17-2.31-1.23-5.13h-3c0.5-2.47 0.5-2.47 1-5l2 1-1 2h2c0-0.59 0-1.18-0.01-1.8-0.02-6.16-0.03-12.3-0.04-18.5l-0.03-6.9c-0.01-3.31-0.01-6.61-0.02-9.92 0-1.03-0.01-2.06-0.01-3.12v-2.91c-0.01-0.84-0.01-1.69-0.01-2.56 0.12-2.24 0.56-4.14 1.12-6.3 0.07-3.79 0-7.58-0.06-11.4 0.06-3.63 0.06-3.63 0.56-5.99 0.55-2.9 0.6-5.55 0.56-8.5-0.01-1.12-0.01-2.23-0.02-3.38-0.03-2.33-0.05-4.65-0.08-6.97-0.04-5.72 0.08-11.3 0.82-16.9 0.28-2.36 0.28-4.67 0.22-7.05-0.07-2.65 0.03-4.95 0.5-7.57 0.5-3.25 0.6-6.27 0.56-9.56-0.01-1.17-0.01-2.35-0.02-3.56-0.01-1.22-0.03-2.43-0.04-3.68-0.03-2.42-0.05-4.84-0.06-7.26-0.02-1.6-0.02-1.6-0.04-3.23 0.09-2.78 0.52-5.24 1.1-7.95 0.04-2.5 0.04-5 0-7.5-0.11-7.02-0.11-7.02 0.5-9.63 0.72-4.14 0.6-8.2 0.56-12.4-0.01-1.92-0.01-3.84-0.02-5.76-0.01-1-0.02-1.99-0.02-3.02-0.17-27.9-0.17-27.9 0.42-40.8 0.04-0.89 0.08-1.78 0.12-2.69 0.3-5.75 0.3-5.75 0.95-8.06 1.31-5.85 0.73-12.3 0.74-18.2 0-0.84 0-1.67 0.01-2.53 0.01-17.8-0.93-35.6-1.91-53.4-1.02-18.6-1.76-37.2-2.06-55.9-0.03-1.66-0.05-3.33-0.08-4.99-0.01-0.76-0.02-1.53-0.04-2.32-0.09-5.44-0.29-10.9-0.54-16.3-0.6-13.2-0.75-26.4-0.71-39.7 0.02-3.61 0.02-7.23 0.03-10.8 0.01-7.64 0.03-15.3 0.05-22.9l0.06-26.8c0-3.56 0.01-7.12 0.03-10.7 0-2.16 0-4.32 0.01-6.49 0-0.98 0.01-1.97 0.01-2.99v-2.73c0.01-0.79 0.01-1.57 0.01-2.38-0.04-2.23-0.04-2.23-1.12-5.03-0.08-2.19-0.1-4.39-0.09-6.58 0-0.66 0.01-1.32 0.01-2.01 0.06-7.22 0.26-14.4 0.47-21.7 0.66-23.3 0.94-46.6 1.17-69.9 0.04-4.49 0.09-8.99 0.14-13.5 0.42-32 0.42-32-0.47-64-0.38-7.82-0.27-15.6-0.19-23.5 0.18-21-0.29-42-0.91-63-0.07-2.3-0.13-4.59-0.2-6.89l-0.33-10.9c-0.06-2-0.12-3.99-0.18-5.99-0.23-7.23-0.23-7.23-0.93-14.4-0.54-4.02-0.71-7.96-0.81-12-0.02-0.79-0.04-1.57-0.06-2.37-0.07-2.53-0.12-5.06-0.18-7.58-0.02-0.86-0.04-1.72-0.07-2.61-0.37-15-0.5-30-0.37-45.1h-2l-1-17h-2c-0.1-0.95-0.21-1.9-0.31-2.88-0.38-3.41-0.38-3.41-3.69-5.12-3.02-5.74-1.74-11.8-1-18z" fill="#489C4B"/>
<path transform="translate(1012 659)" d="m0 0c2.44 0.88 2.44 0.88 4.44 3.88-0.66 1.32-1.32 2.63-2 4 0.33 0.33 0.66 0.65 1 1h2c-0.25-0.58-0.5-1.16-0.75-1.76-0.08-0.74-0.17-1.48-0.25-2.24 1.94-2.26 1.94-2.26 4-4 0.99 0.49 0.99 0.49 2 1 1.22 0.07 1.22 0.07 3-1v3c-0.33 0.33-0.66 0.65-1 1 1.09 0.24 2.18 0.49 3.31 0.74 3.8 1.29 4.86 1.81 6.69 5.26 0.68 2.24 0.68 2.24 1 4 0.6-0.36 1.19-0.71 1.81-1.07 2.19-0.93 2.19-0.93 5.19 0.07 2.2 2.19 4.07 4.56 6 7 0.99-1 1.98-1.99 3-3 1.12 5.74 1.12 5.74 0 8 0.08 1.54 0.24 3.08 0.44 4.62 0.1 0.82 0.2 1.63 0.3 2.48 0.13 0.94 0.13 0.94 0.26 1.9h1c-0.4 11.8-1.27 23.6-2.5 35.4-0.13 1.25-0.26 2.51-0.4 3.8-0.57 5.31-1.19 10.6-2.1 15.8l-0.72 4.56c-0.19 1.22-0.19 1.22-0.39 2.47-0.26 1.69-0.52 3.38-0.79 5.06-0.12 0.82-0.25 1.63-0.38 2.47-0.12 0.73-0.23 1.46-0.35 2.22-10.2 60.8-32.5 121-63.3 174-1.04 1.81-2.06 3.63-3.08 5.45-7.6 13.6-15.9 26.8-25 39.5-0.94 1.34-1.88 2.68-2.81 4.02-4.91 7.04-9.85 14-15.3 20.6-2.91 3.64-5.56 7.47-8.22 11.3-0.82 1.02-0.82 1.02-1.66 2.06h-2c-0.25 0.55-0.5 1.11-0.76 1.69-4.38 8.14-11.8 15.1-18.1 21.8-2.16 2.3-4.24 4.61-6.21 7.08-2.16 2.68-4.49 5.02-6.95 7.43-1.24 1.24-2.48 2.49-3.71 3.74-1.37 1.37-2.74 2.75-4.11 4.13-0.67 0.68-1.34 1.36-2.04 2.07-3.97 3.99-8.04 7.79-12.3 11.5-3.32 2.87-6.51 5.88-9.73 8.86-2.1 1.73-2.1 1.73-4.1 1.73l-1 3c-1.83 1.69-1.83 1.69-4.25 3.56-1.35 1.04-1.35 1.04-2.72 2.11-1 0.77-2 1.53-3.03 2.33-1.13 0.87-2.26 1.75-3.38 2.64-1.15 0.89-2.29 1.78-3.44 2.67-0.53 0.42-1.07 0.84-1.63 1.27-3.07 2.37-6.18 4.49-9.55 6.42-17.8-13.5-27-28.4-32-50-0.48-1.84-0.96-3.67-1.44-5.5-3.88-15.8-6.28-31.2-7.33-47.4-0.18-2.32-0.18-2.32-1.23-5.13h-3l1-5c0.66 0.32 1.32 0.66 2 1-0.33 0.66-0.66 1.31-1 2h2c0-0.6-0.01-1.19-0.01-1.8-0.02-6.16-0.04-12.3-0.05-18.5 0-2.3-0.01-4.6-0.02-6.91-0.01-3.3-0.02-6.61-0.02-9.91-0.01-1.03-0.01-2.06-0.02-3.12v-2.91-2.56c0.11-2.24 0.56-4.14 1.12-6.3 0.07-3.8 0-7.58-0.06-11.4 0.06-3.62 0.06-3.62 0.56-5.99 0.55-2.9 0.59-5.54 0.56-8.49-0.01-1.12-0.02-2.24-0.02-3.39-0.03-2.32-0.06-4.64-0.08-6.97-0.04-5.71 0.08-11.2 0.81-16.9 0.29-2.36 0.29-4.68 0.23-7.05-0.07-2.66 0.02-4.95 0.5-7.57 0.5-3.26 0.6-6.27 0.56-9.56-0.01-1.18-0.02-2.35-0.02-3.57-0.02-1.21-0.03-2.43-0.04-3.68-0.03-2.42-0.05-4.83-0.06-7.25-0.02-1.07-0.03-2.13-0.04-3.23 0.09-2.78 0.52-5.24 1.1-7.95 0.04-2.5 0.04-5.01 0-7.5-0.11-6.97-0.11-6.97 0.49-9.89 0.77-3.97 0.61-7.9 0.57-11.9 0-0.83-0.01-1.67-0.01-2.53-0.02-2.05-0.03-4.1-0.05-6.15h4v-2c-0.66-0.34-1.32-0.66-2-1h2c-0.99-2.48-0.99-2.48-2-5 0.66-0.34 1.32-0.66 2-1 0.89-5 1.04-9.77 0.97-14.8 0.04-3.1 0.54-6.11 1.03-9.17v-3c0.11-4.17 1.72-5.98 4.56-8.82 1.14-1.07 2.28-2.14 3.44-3.18l-1-2c0.66-1 1.32-1.99 2-3v-3c1.87-3.19 1.87-3.19 4-6h2v2c0.99 0.33 1.98 0.65 3 1 1.24 2.61 2.08 5.25 3 8 0.99 0.65 1.98 1.31 3 2 0.33 0.33 0.66 0.65 1 1 0.49-1.99 0.49-1.99 1-4 0.33 0.65 0.66 1.31 1 2l2-2c-2.78-1.94-2.78-1.94-5-3 0.99-0.34 1.98-0.66 3-1 0.49-1.49 0.49-1.49 1-3 2.06-0.69 2.06-0.69 4-1v3c0.74 0.08 1.48 0.16 2.25 0.24 3.26 0.89 4.56 2.24 6.75 4.76l2-2v-3h-2l3-6h-2c-0.33 0.65-0.66 1.31-1 2 0.56-3.26 1.37-4.96 4-7 2.18-0.69 2.18-0.69 4-1l-5-5 1-2c2.06-0.63 2.06-0.63 4-1-0.99-1-0.99-1-2-2l2-2c0.64-2.07 0.64-2.07 1-4h-1c-0.33-1.99-0.66-3.97-1-6h3c0.33 0.33 0.66 0.65 1 1 0.49-1 0.49-1 1-2 1.48 0.49 1.48 0.49 3 1h-2v2h2c0.49-1.49 0.49-1.49 1-3 0.99-0.34 1.98-0.66 3-1-1.98-0.5-1.98-0.5-4-1 3.4-2.1 6.05-2.18 10-2-1.98-0.34-3.96-0.66-6-1v-2c1.65 0.33 3.3 0.65 5 1v-3h-5v-1h5c-2.31-0.66-4.62-1.33-7-2 3.21-1.91 5.54-2.23 9.25-2.13 1.34 0.03 1.34 0.03 2.7 0.05 0.68 0.03 1.35 0.05 2.05 0.08-2.31-0.34-4.62-0.66-7-1v-2c1.32-0.34 2.64-0.66 4-1-0.66-0.66-1.32-1.33-2-2 0.66-0.34 1.32-0.66 2-1-1.49-1-1.49-1-3-2 4.45-0.5 4.45-0.5 9-1v-2-3c0.99-0.66 1.98-1.33 3-2v-3h4c-1.65-0.66-3.3-1.33-5-2 1.33-0.67 2.66-1.34 4-2 0.68-0.36 1.36-0.71 2.06-1.07 1.94-0.93 1.94-0.93 4.94-1.93h-3v-2c4.56-0.88 6.95-1.23 11 1 3.16 0.16 3.16 0.16 6 0-2.31-0.66-4.62-1.33-7-2 0.33-0.66 0.66-1.33 1-2-1.32-0.34-2.64-0.66-4-1 0.33-1 0.66-1.99 1-3 1.13 0.02 2.27 0.04 3.44 0.06 3.37 0.35 3.37 0.35 4.56-1.06-0.99-0.5-0.99-0.5-2-1-0.33 0.33-0.66 0.65-1 1-0.99-0.5-0.99-0.5-2-1 0.33-0.66 0.66-1.33 1-2h-2v-2c0.8-0.13 1.61-0.25 2.44-0.38 0.84-0.21 1.69-0.41 2.56-0.62 0.33-0.66 0.66-1.33 1-2 1.65 0.33 3.3 0.65 5 1v2c0.99 0.49 0.99 0.49 2 1-0.33 0.33-0.66 0.65-1 1l2 2c-0.33 0.65-0.66 1.32-1 2h10v2c-3.73 0.69-7.21 1.11-11 1 4.41 1.1 8.48 1.07 13 1v2c0.33-0.66 0.66-1.33 1-2 0.66 0.33 1.32 0.65 2 1-0.33 1.32-0.66 2.63-1 4-3.95 0.17-6.6 0.09-10-2 2.6 2.13 4.62 3.56 8 4 0.99-0.34 1.98-0.66 3-1 2.18 0.43 2.18 0.43 4 1-0.66 0.65-1.32 1.32-2 2h-3v4h3c0.33-0.66 0.66-1.33 1-2 0 3 0 3-1.5 4.68-0.5 0.44-0.99 0.87-1.5 1.32 1.32-0.34 2.64-0.66 4-1 0.99 1.32 1.98 2.63 3 4-0.96 0.15-0.96 0.15-1.94 0.31-0.68 0.22-1.36 0.45-2.06 0.69l-1 3c-2.06 1.18-2.06 1.18-4 2 0.66 0.33 1.32 0.65 2 1v-2c0.99-0.34 1.98-0.66 3-1 1.66-1.5 1.66-1.5 3-3 0.33 0.65 0.66 1.32 1 2 2.97-0.5 2.97-0.5 6-1-0.33 1.32-0.66 2.63-1 4 1.83-0.06 1.83-0.06 4-1 0.8-1 1.61-1.99 2.44-3 2.56-3 2.56-3 5.24-3.94 2.32-0.06 2.32-0.06 4.32 0.94v2c0.66 0.33 1.32 0.65 2 1 0.74-0.79 1.48-1.57 2.25-2.38 2.29-2.19 3.87-3.45 6.75-4.62v3c1.98-1 1.98-1 4-2l-1 3h2v2c1.65 0.33 3.3 0.65 5 1-0.66 1.32-1.32 2.63-2 4 0.66 0.65 1.32 1.32 2 2 0.99-0.66 1.98-1.33 3-2h3v2c2.31 0.33 4.62 0.65 7 1v2c0.66 0.33 1.32 0.65 2 1 0.66-1.33 1.32-2.64 2-4 0.76 0.3 1.52 0.61 2.31 0.93 3.9 1.54 7.55 2.42 11.7 3.07v-2h2v-2c0.62 0.2 1.23 0.41 1.87 0.62 0.7 0.12 1.41 0.25 2.13 0.38 0.99-1 0.99-1 2-2-0.33-0.66-0.66-1.33-1-2 0.66-0.34 1.32-0.66 2-1 0.33-0.66 0.66-1.33 1-2 0.99 0.33 1.98 0.65 3 1 0.33-0.34 0.66-0.66 1-1-0.33-1-0.66-1.99-1-3 0.33-1.67 0.66-3.34 1-5-0.33-1-0.66-1.99-1-3 0.44-2.19 0.44-2.19 1-4-1.65 0.33-3.3 0.65-5 1-0.27-0.64-0.54-1.28-0.82-1.94-1.07-2.4-1.07-2.4-4.18-3.06h2c-0.33-1.99-0.66-3.97-1-6l-2 3h-3c-0.33-1.33-0.66-2.64-1-4h-4c1.1-3 1.67-3.85 4.62-5.26 0.79-0.24 1.57-0.49 2.38-0.74-0.99-1.99-0.99-1.99-2-4 1.94-0.57 1.94-0.57 4-1 0.33 0.33 0.66 0.65 1 1 0.39-0.52 0.78-1.04 1.18-1.57 1.82-1.43 1.82-1.43 4.38-1.31z" fill="#46964B"/>
<path transform="translate(774,78)" d="m0 0h2l1 3 3 2c0.19 3.12 0.19 3.12 0 6h2c0.9 3.84 1.11 7.38 1.06 11.3-0.01 1.07-0.02 2.14-0.02 3.24-0.02 1.21-0.02 1.21-0.04 2.45h2c0.51 12.4 0.96 24.8 1.25 37.2 0.02 0.86 0.05 1.73 0.07 2.63 0.1 4.32 0.2 8.64 0.29 13 0.03 1.61 0.07 3.22 0.11 4.84 0.01 0.72 0.03 1.45 0.04 2.2 0.08 3.29 0.28 6.44 0.72 9.72 0.89 6.58 0.88 13.2 1.06 19.9 0.04 1.53 0.08 3.06 0.13 4.59 0.11 4.07 0.22 8.14 0.33 12.2 0.06 2.52 0.13 5.05 0.2 7.58 0.57 21.3 1.04 42.7 0.81 64-0.07 7.41-0.01 14.8 0.37 22.2 1.07 21.9 0.5 43.8 0.23 65.7-0.08 5.8-0.14 11.6-0.21 17.4-0.12 11.3-0.26 22.6-0.4 33.9-0.99 0.33-1.98 0.66-3 1-7.33 14.7-7.26 31.2-7.01 47.3 0.07 5.71-0.2 11.1-0.99 16.7-0.02 1.65 0 3.29 0.06 4.94 0.05 4.16-0.54 7.75-1.55 11.8-0.71 3.2-0.99 6.38-1.26 9.64-0.2 2.1-0.47 4.19-0.77 6.28-0.65 5.06-0.59 10.1-0.54 15.2 0 1.41 0 1.41 0.01 2.85 0.01 1.73 0.02 3.47 0.03 5.2 0.03 3.38 0.02 6.76 0.02 10.1-8.72 0.91-8.72 0.91-11.8-1.27-3.22-3.84-3.22-3.84-3.22-6.73h-2v-2l-4-1c-0.62-1.81-0.62-1.81-1-4l2-3v-1l-2-2-3 2v-2h-4l-2 3h-2c-0.66 0.19-1.32 0.37-2 0.56-2 0.44-2 0.44-4-0.56l-1 1c-9.05 8.24-9.05 8.24-13 10-2.25-0.12-2.25-0.12-4-1-0.5-1.49-0.5-1.49-1-3 1.11-1.08 1.11-1.08 2.25-2.19 2.44-2.5 4.62-5.05 6.75-7.81l-2-1 1-1c-2.31-0.33-4.62-0.66-7-1v-2l-2-1v-5c-0.99-0.33-1.98-0.66-3-1-0.78-3.42-1-6.5-1-10l-1-2 1-3h-2v-2l4-1v-2l-2-1v-2l-2-1v-4c-0.5-1.49-0.5-1.49-1-3-0.99-0.33-1.98-0.66-3-1h2v-2l-2-1v-2h-2v-2h-3c-0.12-0.64-0.25-1.28-0.38-1.94-0.2-0.68-0.41-1.36-0.62-2.06l-2-1h2c-0.2-2.13-0.44-4.25-0.69-6.38-0.13-1.18-0.25-2.36-0.38-3.58-0.31-1-0.62-2.01-0.93-3.04-2.46-1.34-2.46-1.34-5-2-0.81-2.13-0.81-2.13-1-4h-2v-2h-2v-2l-2-1v-2c-0.97-1.35-1.97-2.69-3-4l-1-2h-2v-2c-0.99-0.33-1.98-0.66-3-1v-2l-2-1c-5.84-4.53-5.84-4.53-7-8 0.16-0.64 0.33-1.28 0.5-1.94 0.76-3.14-0.18-5.23-1.31-8.18-1.43-2.26-2.74-2.9-5.19-3.88h2v-2l-1-1 2-3-2-2v-5c-1.93-2.22-1.93-2.22-5-3l4-4h-2l-3-3c-0.99-0.33-1.98-0.66-3-1l1-3-2-1c-0.62-2.06-0.62-2.06-1-4h-4v-3l-2-1v-4h-2l-1-2c-0.64-0.62-1.28-1.24-1.94-1.88-1.95-2.01-2.89-3.61-4.06-6.12l-2-2 1-2-7-2v-3c-1.74-2.38-2.8-2.95-5.69-3.69-0.76-0.1-1.52-0.2-2.31-0.31-1.1-3.31-1.14-5.68 0-9 2.06-1.31 2.06-1.31 4-2-0.5-0.78-0.99-1.57-1.5-2.38-1.5-2.62-1.5-2.62-1.5-4.62h2l1-2 2 1c0.73-1.98 1.39-3.98 2-6l-1-2c0.67-1.67 1.33-3.33 2-5l-1-2h2c-0.24-1.2-0.24-1.2-0.49-2.43-0.61-4.28-0.66-8.44-0.63-12.8-0.01-0.8-0.01-1.61-0.02-2.44 0-0.78 0.01-1.55 0.01-2.35v-2.12c0.13-1.9 0.13-1.9 1.13-4.9-0.39-2.14-0.39-2.14-1-4 0.97-0.37 1.94-0.74 2.94-1.12 3.34-1.58 3.34-1.58 3.94-4.88 0.08-2 0.12-4 0.12-6l1-3c-0.5-0.99-0.5-0.99-1-2 0.74-0.56 0.74-0.56 1.5-1.12 2.11-2.64 1.71-4.59 1.5-7.88v-2c-1.67-0.04-3.33-0.04-5 0-0.82 0.82-1.61 1.69-2.38 2.56-1.62 1.44-1.62 1.44-4.62 1.44l-2 3-2-1v2l-2 2c-0.5 0.7-0.99 1.4-1.5 2.12-0.5 0.62-0.99 1.24-1.5 1.88h-2c0.91-4.26 3-7.55 5.31-11.2 0.67-1.05 0.67-1.05 1.35-2.13 4.68-7.33 9.68-14.4 14.8-21.5 1.61-2.22 3.19-4.46 4.78-6.7 6.79-9.56 13.9-18.8 21.4-27.8 1.88-2.29 3.7-4.62 5.52-6.95 3.87-4.86 8.06-9.39 12.3-13.9 2.1-2.28 4.14-4.58 6.15-6.93 5.04-5.82 10.6-11.1 16.1-16.5 2.42-2.39 2.42-2.39 4.65-5.26 2.5-3.04 5.33-5.52 8.32-8.07 2.84-2.46 5.61-5 8.37-7.55 5.57-5.12 11.2-10.2 17-15 13.4-10.9 24.6-23.4 29-40.6 0.39-1.38 0.79-2.75 1.19-4.12 0.27-0.95 0.53-1.9 0.81-2.88z" fill="#58AD55"/>
<path transform="translate(633,259)" d="m0 0c3.38 0.31 3.38 0.31 7 1 2 3 2 3 1.81 5.38-0.89 2.87-2.26 5.06-3.81 7.62-0.16 3.05-0.16 3.05 1 6-0.88 2.5-0.88 2.5-2 5-0.5 1.49-0.5 1.49-1 3-2.56 1.19-2.56 1.19-5 2 0.19 0.72 0.37 1.44 0.56 2.19 0.47 3 0.04 4.86-0.56 7.81-0.07 1.63-0.09 3.27-0.06 4.91 0.01 1.36 0.01 1.36 0.02 2.75 0.01 0.94 0.03 1.87 0.04 2.84 0.03 1.86 0.05 3.73 0.06 5.59 0.01 0.83 0.03 1.65 0.04 2.49-0.11 2.57-0.58 4.91-1.1 7.42-0.16 3.05-0.16 3.05 1 6l-2 2c-0.45 0.54-0.91 1.07-1.38 1.62-1.62 1.38-1.62 1.38-5.62 1.38v2c0.99 0.5 0.99 0.5 2 1 0.81 1.88 0.81 1.88 1 4-0.45 0.41-0.91 0.82-1.38 1.25-2.62 2.83-2.31 5.97-2.62 9.75h7v2c0.99 0.5 0.99 0.5 2 1v4c0.97 0.29 1.94 0.58 2.94 0.88 3.06 1.12 3.06 1.12 4.06 3.12 0.1 0.66 0.21 1.32 0.31 2 0.52 2.2 0.52 2.2 2.75 3.25 0.96 0.37 0.96 0.37 1.94 0.75v2c1.49 0.99 1.49 0.99 3 2l-1 2h2c1.26 2.91 2 4.8 2 8h2l1-2c2.2 2.48 2.97 3.77 3.38 7.12 0.3 1.43 0.3 1.43 0.62 2.88 2.46 1.45 2.46 1.45 5 2v2h2c-0.23 0.58-0.45 1.15-0.69 1.75-0.59 2.35-0.59 2.35 1.13 4.25 0.51 0.66 1.03 1.32 1.56 2v4l2 2-1 2 1 2h-2v2c1.63 1.38 3.29 2.72 5 4l-1 5 2 1c-0.27 0.72-0.54 1.44-0.81 2.19-0.53 3.03-0.53 3.03 2.06 5.43 0.91 0.79 1.82 1.57 2.75 2.38l3 3c0.56 0.52 1.11 1.03 1.69 1.56 1.31 1.44 1.31 1.44 1.31 3.44 0.78 0.06 1.57 0.12 2.38 0.19 2.62 0.81 2.62 0.81 3.87 3.06 0.7 2.57 1.3 5.12 1.75 7.75h2v2h2v2l4 2v2h2c1.39 3.47 2.13 6.41 2.06 10.1-0.05 3.02 0.01 5.08 0.94 7.88h3v2h2v2l4 1h-2c1.11 2.22 2.49 4.04 4 6h-2v2l2 1c1.81 1.81 1.64 4.55 2 7l-4 1v2h2v3l2 2h-2c0.28 1.65 0.58 3.29 0.88 4.94 0.24 1.37 0.24 1.37 0.49 2.77 0.31 1.14 0.31 1.14 0.63 2.29l2 1c0.63 1.85 0.63 1.85 1.12 4.06 0.26 1.1 0.26 1.1 0.51 2.23 0.12 0.56 0.25 1.13 0.37 1.71 0.76-0.21 1.53-0.41 2.31-0.62 2.69-0.38 2.69-0.38 5.69 1.62-0.41 4.82-2.38 6.91-6 10h-2v5c0.6-0.16 1.2-0.33 1.81-0.5 2.19-0.5 2.19-0.5 5.19-0.5 2.06-1.77 2.06-1.77 4.06-4 1.28-1.37 2.58-2.71 3.94-4h2l2-4 1 3 2-2 1 2 7-5v2c3.78 0.3 3.78 0.3 6-1l1 2 2-1c-0.46 0.9-0.46 0.9-0.94 1.81-1.16 2.28-1.16 2.28-2.06 5.19 0.83 2.17 0.83 2.17 3 3l1 3h2v2c0.64 0.27 1.28 0.54 1.94 0.81 2.06 1.19 2.06 1.19 3.06 4.19h9l-1-7h2l-1-3c-0.23-3.14-0.19-6.29-0.19-9.44v-2.73c0.05-5.86 0.53-11.4 1.68-17.2 0.71-3.72 0.99-7.44 1.26-11.2 0.25-2.47 0.25-2.47 0.78-4.92 0.7-3.79 0.49-7.49 0.41-11.3 0.06-3.07 0.43-6.01 0.84-9.05 0.4-4.02 0.23-8.03 0.16-12.1-0.1-13.3-0.14-27.1 6.06-39.1 0.37-0.75 0.74-1.49 1.12-2.26 0.29-0.57 0.58-1.15 0.88-1.74v2h2c1.11 8.84 0.94 17.5 0.56 26.4-1.56 16-1.56 16 0.44 31.6 0.09 1.59 0.12 3.18 0.11 4.77v2.98c0 1.61 0 1.61-0.01 3.26 0 1.14-0.01 2.27-0.01 3.44 0 2.47-0.01 4.94-0.01 7.42-0.02 3.92-0.02 7.84-0.03 11.8-0.01 9.05-0.03 18.1-0.06 27.2-0.02 8.93-0.03 17.9-0.05 26.8 0 3.84-0.01 7.69-0.03 11.5-0.02 10.9 0.04 21.7 0.85 32.6 0.35 4.8 0.46 9.6 0.56 14.4 0.02 0.96 0.04 1.92 0.06 2.91 0.04 1.98 0.08 3.97 0.12 5.96 0.06 3.03 0.13 6.06 0.19 9.09 0.04 1.95 0.09 3.91 0.13 5.86 0.02 1.34 0.02 1.34 0.05 2.7 0.1 5.12 0.15 10.2 0.13 15.4-3-3.75-3-3.75-3-6h-2c-0.17 1.56-0.34 3.12-0.5 4.69-0.09 0.87-0.19 1.74-0.28 2.63-0.32 3.91-0.47 6.94 0.78 10.7h-2l2 2c0.38 4.91-0.47 8.4-2 13-0.04 2.33-0.04 4.67 0 7l-1 3c0.31 2.34 0.65 4.67 1 7 0.77 6.4-1.51 11-3.89 16.8-1.42 4.04-1.42 6.92-1.11 11.2-0.5 2.5-0.5 2.5-1 4l-4-1-2 7h-2l-2 4h-2l-2 4-2-1-3 3c-0.95-0.35-1.9-0.7-2.88-1.06-2.99-1.29-2.99-1.29-5.12 0.06l-1-2h-3l-1-4c-0.99 0.33-1.98 0.66-3 1-2.34-0.64-4.67-1.31-7-2h-4v-2h-2v2h-7v-4c-0.96-0.37-0.96-0.37-1.94-0.75-2.06-1.25-2.06-1.25-2.81-3.37-0.08-0.62-0.16-1.24-0.25-1.88l-1 1-2-1 1-2-2-1 2-2c-1.98-0.33-3.96-0.66-6-1l1-3-2-1 2-2c-2.95-2.37-2.95-2.37-7-2l-2-1v-5l-2-1-2-2v-1l-2 1c0.16-0.6 0.33-1.2 0.5-1.81 0.61-2.3 0.61-2.3 0.5-5.19 0-4 0-4 1.5-5.69 0.5-0.43 0.99-0.86 1.5-1.31l-2-2 1-2-2-1v-3c-0.99-0.33-1.98-0.66-3-1l-2 4-2-1 1-2-4 2c0.83-0.89 1.65-1.77 2.5-2.69 1.74-2.11 2.46-3.15 3.06-5.87-0.74-3.21-2.51-4.89-4.56-7.44-0.95-3.65-1.2-5.4 0-9h3l-7-2c0.56-1.52 0.56-1.52 1.12-3.06 1.25-4.23 0.38-6.87-1.12-10.9h-2l-1 2c-0.56-0.71-0.56-0.71-1.12-1.44-2.51-2.08-4.7-2.21-7.88-2.56l3-2-4-2 1-3-2-2 1-2-1-1c-1.52-1.52-2.72-3.28-4-5l2-3c-0.32-3.32-0.61-4.61-3-7-1.32-0.7-2.65-1.37-4-2l2-2c-3-1.33-3-1.33-6 0v-2h-5l1-5c0.99-0.33 1.98-0.66 3-1l-2-2 1-2-2-1c0.99-0.33 1.98-0.66 3-1l1-2v2c1.67-1.16 1.67-1.16 3-3-0.26-2.67-0.8-4.6-2-7l-1-2-2-1 2-3-2 1v-3c-0.5-0.64-0.99-1.28-1.5-1.94-1.5-2.06-1.5-2.06-1.5-6.06h-3v-2l-2-1v-1l-2-1c-1-1-1-1-2-3-0.76 0.16-1.53 0.33-2.31 0.5-2.69 0.5-2.69 0.5-5.69 0.5 0.47-2.44 0.94-4.81 1.69-7.19 0.1-0.6 0.2-1.19 0.31-1.81l-2-2c-0.31-0.68-0.62-1.36-0.94-2.06-0.96-2.29-0.96-2.29-4.06-2.94l-1-1c-0.56 0.39-1.11 0.78-1.69 1.19-0.76 0.27-1.52 0.53-2.31 0.81-2.62-1.31-2.62-1.31-5-3l-2-1c3-2 3-2 7-2l-3-3-3 3-2-1v-3c-0.95-2.15-0.95-2.15-2-4h2v-2l-5-1v-2l-2-1-2-2 2-2c-1.98-1.49-1.98-1.49-4-3v2c-2-1-2-1-4-3 0.35-0.6 0.7-1.2 1.06-1.81 1.27-2.3 1.27-2.3-0.06-5.19-2.02-0.73-2.02-0.73-4-1v-2c0.99 0.33 1.98 0.66 3 1l1-2c-3.78-0.3-3.78-0.3-6 1v-2h-2v-2h-2v-2h2v-2l2-1c0.84-1.87 0.84-1.87 1-4l-2-3c-0.38-1.66-0.73-3.32-1-5-0.99-0.33-1.98-0.66-3-1-0.5-0.99-0.5-0.99-1-2 0.99-0.33 1.98-0.66 3-1l-2-1 1-2c-0.99-0.93-0.99-0.93-2-1.88-2-2.12-2-2.12-2-4.12l-2-1 1-1-2-2c0.38-3.62 0.38-3.62 1-7l-1.88-0.94c-1.37-0.68-2.74-1.37-4.12-2.06v-2h-2v-2h-2v-3l-2-1h2v-2c-0.99-0.33-1.98-0.66-3-1-2.12-2.52-3.53-5.07-5-8 0.5-0.99 0.5-0.99 1-2l-2-1c-1.35-4.17-0.87-7.75 0-12l2-3-2-1c-0.15-4.29-0.13-7.51 0.98-11.7 1.39-5.28 1.41-10.5 1.5-15.9 0.16-4.54 0.49-6.82 3.52-10.4 0.78-2.7 0.78-2.7 1.19-5.56 0.16-0.95 0.31-1.9 0.48-2.88 0.39-2.63 0.39-2.63 0.33-5.56l2-1-1-3 2-2c0.4-2.32 0.74-4.66 1-7h2c-0.57-3.93-0.57-3.93-3-7-0.7-0.47-1.4-0.95-2.12-1.44-0.62-0.51-1.24-1.03-1.88-1.56v-3h-3v2h-3c0.58-5.68 2.7-10.3 5.06-15.4 0.41-0.88 0.81-1.77 1.22-2.68 3.02-6.55 6.3-12.9 9.76-19.2 2.07-3.81 3.99-7.69 5.9-11.6 3.69-7.47 7.69-14.7 11.8-22 1.3-2.26 2.56-4.54 3.83-6.82 0.87-1.56 1.75-3.11 2.63-4.67 0.4-0.73 0.8-1.46 1.21-2.21 2.36-4.11 3.8-6.05 8.54-7.41 1.34-2.02 1.34-2.02 2-4h2v-2h2c0.45-0.47 0.91-0.95 1.38-1.44 1.85-1.78 3.12-2.13 5.62-2.56v-4z" fill="#53A953"/>
<path transform="translate(775,63)" d="m0 0h2c2.68 5.23 5.08 10.5 7.25 15.9 2.47 6.09 5.08 12.1 7.87 18.1 0.32 0.67 0.63 1.34 0.95 2.03 3.92 8.26 8.53 16.1 13.3 23.9 0.47 0.78 0.95 1.56 1.44 2.37 3.09 5.01 6.28 9.89 9.74 14.6 1.44 2.04 1.44 2.04 2.99 4.66 1.79 2.94 3.98 4.97 6.45 7.38 1.34 1.49 2.67 2.99 4 4.5 4.21 4.76 8.58 9.14 13.4 13.3 4.27 3.78 7.96 7.83 11.6 12.2 6.65 7.93 6.65 7.93 14.4 14.8 3.82 3.28 6.61 7.24 9.62 11.2 1.81 2.31 3.63 4.58 5.57 6.79 0.56 0.62 1.11 1.25 1.68 1.9 0.78 0.87 0.78 0.87 1.58 1.76 1.17 1.55 1.17 1.55 1.17 3.55 0.62 0.25 1.24 0.5 1.88 0.75 2.12 1.25 2.12 1.25 3 3.06 1.1 2.51 1.1 2.51 4.18 4.63 2.94 2.56 2.94 2.56 3.82 5.37 0.04 0.72 0.08 1.45 0.12 2.19h2v2h2c1.63 2.09 3.14 4.18 4.62 6.38 0.64 0.9 0.64 0.9 1.28 1.82 3.1 4.53 3.1 4.53 3.1 6.8 0.99 0.33 1.98 0.66 3 1 1.61 2.22 3.07 4.42 4.5 6.75 0.39 0.62 0.78 1.24 1.18 1.88 1.71 2.73 3.38 5.47 4.98 8.26 1.17 2.24 1.17 2.24 3.34 3.11 0.95 1.62 1.83 3.27 2.69 4.94 2.59 4.89 5.53 9.33 8.76 13.8 1.84 2.66 3.23 5.3 4.55 8.24-2.7-0.36-3.74-0.68-5.48-2.85-0.63-1.09-0.63-1.09-1.27-2.21-0.43-0.74-0.86-1.47-1.3-2.23-0.31-0.56-0.63-1.13-0.95-1.71 2.56 6.81 5.17 12.6 9.77 18.3 1.56 2.14 2.07 4.06 2.23 6.69 0.99 0.33 1.98 0.66 3 1l1 8h2c3.27 6.36 5.38 11.7 5.75 18.8 0.33 2.9 1.64 4.78 3.25 7.16v4l-1 1c0.31 0.82 0.62 1.65 0.94 2.5 2.95 9.72 2.95 9.72 1.06 13.5l2 1c0.56 1.69 0.56 1.69 1 4 0.21 0.97 0.41 1.94 0.62 2.94 0.37 3.02 0.15 5.14-0.62 8.06l2 1v1h2c2.21 4.13 4.1 7.85 5.12 12.4 0.29 1.17 0.58 2.35 0.88 3.56l2 1v5l2 1c-1.49 4.59-3.85 7.44-7 11-0.68-0.27-1.36-0.54-2.06-0.81-4.39-0.28-6.68 2.09-9.94 4.81-2-1.75-2-1.75-4-4 0-4 0-4 0.56-6.12 0.67-1.96 0.67-1.96-0.56-3.88h2v-2h2v-2l-6 4c-0.12-4.75-0.12-4.75 1-7l-2-1 1-1-2-1v-2l-2-1 2-3h2v-2c0.95-0.08 1.9-0.17 2.88-0.25 3.22-0.4 3.22-0.4 4.5-2.81 0.2-0.64 0.41-1.28 0.62-1.94h-3l-2-2-1 2-1-1c-0.99 1.32-1.98 2.64-3 4l-2-1h-1-3v-1l-4 2 1-3v-3h-3c0-2 0-2 2-4-0.8-0.14-1.61-0.29-2.44-0.44-2.56-0.56-2.56-0.56-3.56-1.56l-4 2 1-3-2-1-1-1v-3l-4 2 1-3h-2c-0.27 0.6-0.54 1.2-0.81 1.81-1.17 2.16-2.38 3.55-4.19 5.19l-2-1 2-3c-1.18 1.24-1.18 1.24-2.38 2.5-2.62 2.5-2.62 2.5-4.62 2.5-0.23 0.56-0.47 1.12-0.71 1.7-1.6 2.85-3.58 4.78-5.91 7.05-0.82 0.8-1.64 1.6-2.48 2.42-0.63 0.61-1.25 1.21-1.9 1.83h2v2h2v-2l2 1c-0.99 1.32-1.98 2.64-3 4 0.99-0.33 1.98-0.66 3-1 0 5.92-2.27 8.53-6 13l2-1c-1 3-1 3-3 5l1 2-5 5 4 1c-2.49 0.69-4.38 1-7 1-0.27 0.64-0.54 1.28-0.81 1.94-1.19 2.06-1.19 2.06-4.19 3.06-1.17 1.92-1.17 1.92-2 4l-1 2 2-1v2l2 1v5l-4 2-1-1-12 12 4-2c-0.81 1.94-0.81 1.94-2 4-0.99 0.33-1.98 0.66-3 1h4v2l5-4 2 1c1.22 0.07 1.22 0.07 3-1-0.56 1.88-0.56 1.88-2 4-3.62 1.25-3.62 1.25-7 2 0.78 0.14 1.57 0.29 2.38 0.44 2.62 0.56 2.62 0.56 4.62 1.56v9h4v2c-1.24 0.12-2.48 0.25-3.75 0.38-4.4 0.54-4.4 0.54-8.25 2.62-0.81 2.05-0.81 2.05-1 4l2-1v4c-2.25 1.5-2.25 1.5-5 3-1.37 1.3-2.72 2.62-4 4l-2-1 1-5-4 2 1-3h-12v2c2.31 0.33 4.62 0.66 7 1v2l2 1c-1 1-1 1-3.13 1.11-0.92 0-1.84-0.01-2.78-0.01-0.99-0.01-1.98-0.01-3-0.01-1.56-0.01-1.56-0.01-3.15-0.03-1.05 0-2.09-0.01-3.17-0.01-2.59-0.01-5.18-0.03-7.77-0.05 3.26 0.86 6.38 1.28 9.75 1.56 1.48 0.13 1.48 0.13 2.98 0.26 0.75 0.06 1.5 0.12 2.27 0.18v1l-21 1c2.88 0.96 4.7 1.11 7.69 1.06 1.21-0.01 1.21-0.01 2.45-0.02 0.61-0.02 1.23-0.03 1.86-0.04l-1 2c-2.5 0.41-2.5 0.41-5.56 0.62-1.52 0.12-1.52 0.12-3.07 0.23-0.78 0.05-1.56 0.1-2.37 0.15l5 1-2 2 1 2-8 1c3.16 1.05 5.87 1.31 9.19 1.56 1.63 0.13 1.63 0.13 3.29 0.26 0.83 0.06 1.66 0.12 2.52 0.18v1h-15l-1 4 4-2c-2.62 4.88-2.62 4.88-6 6-1.09 1.93-1.09 1.93-2 4l-2 2 2 2-3 2c0.16 0.6 0.33 1.2 0.5 1.81 0.5 2.19 0.5 2.19 0.5 5.19l-2 3h2v2h-2v2h-2l1 2 2-1c-1 2.99-1.75 3.95-4 6l2 1c-1.88 1.06-1.88 1.06-4 2l-2-1-2 3c-0.99-0.33-1.98-0.66-3-1-0.5-1.49-0.5-1.49-1-3-0.99-0.33-1.98-0.66-3-1v-5c-2.17 0.51-4 1-6 2-0.38 1.66-0.7 3.33-1 5-1.01 3.5-2.08 6.12-4.06 9.2-3.25 6.44-2.32 13.8-2.13 20.8 0.43 21.2 0.43 21.2-2.37 29-0.27 0.76-0.54 1.53-0.82 2.31-0.2 0.56-0.41 1.12-0.62 1.69l-2-1c-0.78-16-1.13-32-1.08-48.1 0.02-3.61 0.02-7.23 0.03-10.8 0.01-7.64 0.03-15.3 0.05-22.9l0.06-26.8c0-3.56 0.01-7.12 0.03-10.7 0-2.16 0-4.32 0.01-6.49 0-0.98 0.01-1.97 0.01-2.99v-2.73c0.01-0.79 0.01-1.57 0.01-2.38-0.04-2.23-0.04-2.23-1.12-5.03-0.08-2.19-0.1-4.39-0.09-6.58 0-0.66 0.01-1.32 0.01-2.01 0.06-7.22 0.26-14.4 0.47-21.7 0.66-23.3 0.94-46.6 1.17-69.9 0.04-4.49 0.09-8.99 0.14-13.5 0.42-32 0.42-32-0.47-64-0.38-7.82-0.27-15.6-0.19-23.5 0.18-21-0.29-42-0.91-63-0.07-2.3-0.13-4.59-0.2-6.89l-0.33-10.9c-0.06-2-0.12-3.99-0.18-5.99-0.23-7.23-0.23-7.23-0.93-14.4-0.54-4.02-0.71-7.96-0.81-12-0.02-0.79-0.04-1.57-0.06-2.37-0.07-2.53-0.12-5.06-0.18-7.58-0.02-0.86-0.04-1.72-0.07-2.61-0.37-15-0.5-30-0.37-45.1h-2l-1-17h-2c-0.1-0.95-0.21-1.9-0.31-2.88-0.38-3.41-0.38-3.41-3.69-5.12-3.02-5.74-1.74-11.8-1-18z" fill="#48A04C"/>
<path transform="translate(549,416)" d="m0 0h5c0.2 2.04 0.38 4.08 0.56 6.12 0.16 1.71 0.16 1.71 0.32 3.45 0.12 3.33-0.27 6.17-0.88 9.43 0.02 1.26 0.04 2.52 0.06 3.81 0.06 5.11-0.26 11-3.6 15-1.97 2.89-1.93 5.11-2.08 8.58-0.26 5.25-0.89 9.89-2.38 14.9-0.98 3.54-1.55 6.97-2 10.6h-3c0.57 3.51 0.57 3.51 2.02 6.72 3.04 7.07 1.54 17.3-1.22 24.2-2.38 6.1-4.04 13.5-2.3 19.9 0.6 2.58 0.63 4.93 0.62 7.58 0.01 1.39 0.01 1.39 0.01 2.81-0.13 2.75-0.13 2.75-0.67 5.4-0.59 3-0.04 5.37 0.54 8.35 0 3 0 3-0.5 5.88-0.88 5.2-0.88 5.2 0.5 10.1v11c0.22 6.55 0.92 10.6 5 16 0.75 2.38 0.75 2.38 1 4h2c2 5.75 2 5.75 2 8h8l-3 3c0.22 0.7 0.43 1.4 0.66 2.12 0.27 0.91 0.55 1.82 0.84 2.76 0.28 0.9 0.56 1.8 0.84 2.74 0.66 2.38 0.66 2.38 0.66 4.38l3 2 1 2c2.02 1.13 2.02 1.13 4 2v3l5 1 1 6h2l2 4h-2v2h-2v2l-1 1c0.99 0.33 1.98 0.66 3 1l-1 2v3c0.99-0.33 1.98-0.66 3-1l-1 4h3l-1 2 2 1-1 2 4-2-2 4 2 1-2 2 2 2-1 2c2.07 1.22 2.07 1.22 5 1-0.33 0.78-0.66 1.57-1 2.38-1.12 2.46-1.12 2.46-1 4.62l2 1-1 2c0.99 0.68 0.99 0.68 2 1.38 0.66 0.53 1.32 1.07 2 1.62v2l4 1c-1 3-1 3-2 4 0.99 1.49 0.99 1.49 2 3-0.38 2.19-0.38 2.19-1 4 4.25 0.36 6.59-0.44 10-3l1-3c0.99-0.33 1.98-0.66 3-1l1-2-2-1 5-4 1 2h-2c1.84 2.05 1.84 2.05 4 3 0.71 1.99 1.37 3.99 2 6 0.64 1.35 1.3 2.69 2 4 1 2 1 2-0.06 5.38-1.77 3.89-4.13 5.64-7.94 7.62h-3l-2 2v3c1.21 0.4 1.21 0.4 2.44 0.81 0.84 0.39 1.69 0.79 2.56 1.19 0.5 1.49 0.5 1.49 1 3 2.5 1.22 2.5 1.22 5 2l-2-4 3-2c-0.99-1.65-1.98-3.3-3-5l3-3c3.62 1.91 5.49 3.17 7 7 0.37 0.68 0.74 1.36 1.12 2.06 0.88 1.94 0.88 1.94 0.88 4.94l2-1c0.99 3.47 0.99 3.47 2 7h-3c-0.99 0.33-1.98 0.66-3 1-2.69-1.94-2.69-1.94-5-4l-2 3 4 2-1 3c1.37 3.65 2.84 6.76 5 10v2l5-2v2c2.48-1.49 2.48-1.49 5-3 0.5 1.49 0.5 1.49 1 3l1-4c2.78 1.39 2.98 3.16 4 6l-2 1 3 2-2 3 2 1-2 3c0 2.65 0.17 4.52 1 7l2 1c0.72 1.64 1.39 3.31 2 5l-2 1c0.43 0.52 0.87 1.04 1.31 1.57 0.56 0.7 1.12 1.4 1.69 2.12 0.56 0.68 1.11 1.37 1.69 2.07 1.55 2.65 1.47 4.22 1.31 7.24l1 2-1 2 3 3-1 2c0.99-0.33 1.98-0.66 3-1v3l1 3v1l2 1v4l2 2h-2v2h-3l-1 4h-3l-1-3c-1.77-1.42-1.77-1.42-4-2-2.7 0.93-3.71 1.42-5 4h-2v2h7v2l-2 1c0.74 0.68 0.74 0.68 1.5 1.38 1.5 1.62 1.5 1.62 1.5 3.62 0.99 0.33 1.98 0.66 3 1l1 2-1 3c0.99-0.33 1.98-0.66 3-1 1.32 1.32 2.64 2.66 3.94 4 2.09 2.15 2.09 2.15 5.06 4l-3 3h3c0.99 1.49 0.99 1.49 2 3h4v2c-0.76 0.14-1.53 0.29-2.31 0.44-2.77 0.52-2.77 0.52-5.69 1.56l-1 5h3c0.29 0.64 0.58 1.28 0.88 1.94 0.95 2.21 0.95 2.21 3.12 3.06l-1 2-2-1c-1.59 4.49-0.39 7.77 1.02 12.1 0.89 2.25 0.89 2.25 3.98 2.89l-1 2c0.19 0.62 0.37 1.24 0.56 1.88 0.44 2.12 0.44 2.12-0.12 4-1.75 2.58-3.86 4.5-6.2 6.56-1.65 1.75-1.65 1.75-1.24 5.56-0.99 0.33-1.98 0.66-3 1l-1 3h-2c0.56 3.34 1.35 6.03 3 9l-1 1 2 1v2l4-2c0.43 0.64 0.87 1.28 1.31 1.94 1.6 2.33 1.6 2.33 4.69 3.06h-2v2h5l1 2-4 1v2h2c1.5 3.37 2 5.2 2 9h-2v2h-2v2l-3 2 3 6h2v2l2 2h-2v2h2c-0.02 0.78-0.04 1.57-0.06 2.38-0.13 2.6-0.13 2.6 1.06 4.62l-1 2 4-1v2h-2v2h2c0.67 1.33 1.33 2.67 2 4h2v2h2c1.42 2.65 2.32 5.08 3 8l1 2h2v2h2l-3 6c3.61-0.66 3.61-0.66 7-2v3c1.93 1.15 1.93 1.15 4 1 0.67 1.33 1.33 2.67 2 4l4-1-2 3v3c-1.81 0.62-1.81 0.62-4 1l-3-2c-1.39-0.68-1.39-0.68-2.81-1.38-3.97-2.02-7.76-4.14-10.9-7.37-1.37-1.59-1.37-1.59-4.31-1.25l-2-1v-2c-0.99-0.33-1.98-0.66-3-1l-1-2-2-2c-0.31-0.85-0.62-1.69-0.94-2.56-0.35-0.81-0.7-1.61-1.06-2.44-0.99-0.33-1.98-0.66-3-1l1-3c-1.73-2.58-1.73-2.58-4-5-0.52-0.6-1.03-1.2-1.56-1.81-1.51-1.51-1.51-1.51-4.44-1.19l1 3h-2v2l2 1h-2c0.62 0.58 1.24 1.15 1.88 1.75 1.93 2.05 3.02 3.68 4.12 6.25h2c-0.21 0.58-0.41 1.15-0.62 1.75-0.47 2.8 0.35 3.79 1.62 6.25l-1 3 4 1v3l-1 1h7l-1 3 4 2-1 2 4 1v3h4 2l1 3-1 2 4-1-4 4 2 1v2h-2l2 5h2l1 2c0.33 0.64 0.66 1.28 1 1.94 1 2.06 1 2.06 2 5.06 0.99 0.33 1.98 0.66 3 1l-1 3c0.99 0.33 1.98 0.66 3 1v2l3 2v2l3 2c-2 2-2 2-4.69 4.19-2.74 2.7-2.74 2.7-2.12 6.62 0.4 1.58 0.4 1.58 0.81 3.19 0.99 0.33 1.98 0.66 3 1 1 1 1 1 1 3 0.64 0.1 1.28 0.21 1.94 0.31 0.68 0.23 1.36 0.46 2.06 0.69l1 3h2c1 3 1 3 0.06 5.19-0.35 0.6-0.7 1.19-1.06 1.81h2c2.13 1.88 2.13 1.88 4 4v2h2c1.69 1.64 1.69 1.64 3.56 3.81 0.62 0.71 1.24 1.42 1.88 2.15 1.56 2.04 1.56 2.04 2.56 5.04 1.32 0.68 2.66 1.35 4 2 1.37 1.29 2.71 2.62 4 4l-5-1v-2c-0.56-0.25-1.11-0.49-1.69-0.75-2.73-1.48-4.99-3.18-7.31-5.25v-2c-0.59-0.27-1.18-0.54-1.79-0.82-6.73-3.58-12.3-9.89-17.2-15.7-2.73-3.24-5.8-5.79-9.06-8.5-1.2-1.45-2.4-2.91-3.58-4.39-2.28-2.59-4.92-4.77-7.55-7-1.72-1.48-3.37-2.91-4.87-4.61v-2c-0.99-0.33-1.98-0.66-3-1-1.61-1.56-1.61-1.56-3.19-3.44-0.53-0.61-1.06-1.23-1.6-1.87-1.21-1.69-1.21-1.69-1.21-3.69h-2c-1.11-1.61-1.11-1.61-2.31-3.75-2.14-3.6-4.35-5.7-7.69-8.25-0.43-0.74-0.87-1.49-1.31-2.25-1.57-2.56-2.89-3.94-5.07-5.94-5.61-5.45-9.87-11.9-14.4-18.3-2.77-3.92-5.66-7.72-8.63-11.5-3.54-4.56-6.74-9.21-9.78-14.1-2.17-3.46-4.44-6.85-6.72-10.2-13.3-19.9-13.3-19.9-18.8-30.2-1.2-2.22-2.48-4.33-3.83-6.45-5.76-9.05-10.4-18.7-15-28.4-0.97-2.01-1.93-4.01-2.9-6.02-11.2-23.2-11.2-23.2-14.5-32.2-0.24-0.67-0.48-1.33-0.73-2.01-0.52-1.4-1.03-2.81-1.54-4.21-0.8-2.19-1.62-4.38-2.44-6.56-1.83-4.85-3.59-9.72-5.35-14.6-0.46-1.26-0.46-1.26-0.93-2.54-13.7-37.8-26.2-83.1-26.1-123-0.31-2.34-0.64-4.67-1-7-0.76-8.47-1.11-16.9-0.94-25.4 0.06-2.72 0.06-2.72-1.06-5.61-0.09-1.71-0.13-3.43-0.13-5.15 0-1-0.01-2.01-0.01-3.05 0.01-1.04 0.01-2.09 0.02-3.18-0.01-1.04-0.01-2.08-0.02-3.15 0-1.01 0.01-2.02 0.01-3.06v-2.78c0.13-2.64 0.61-5.05 1.13-7.63-0.02-2.13-0.05-4.25-0.12-6.38-1.88-71.3 15.7-149 39.1-216zm102 386 2 1zm20 160c3 1 3 1 3 1z" fill="#4AA551"/>
<path transform="translate(1012 659)" d="m0 0c2.44 0.88 2.44 0.88 4.44 3.88-0.66 1.32-1.32 2.63-2 4 0.33 0.33 0.66 0.65 1 1h2c-0.25-0.58-0.5-1.16-0.75-1.76-0.08-0.74-0.17-1.48-0.25-2.24 1.94-2.26 1.94-2.26 4-4 0.99 0.49 0.99 0.49 2 1 1.22 0.07 1.22 0.07 3-1v3c-0.33 0.33-0.66 0.65-1 1 1.09 0.24 2.18 0.49 3.31 0.74 3.8 1.29 4.86 1.81 6.69 5.26 0.68 2.24 0.68 2.24 1 4 0.6-0.36 1.19-0.71 1.81-1.07 2.19-0.93 2.19-0.93 5.19 0.07 2.2 2.19 4.07 4.56 6 7 0.99-1 1.98-1.99 3-3 1.12 5.74 1.12 5.74 0 8 0.08 1.54 0.24 3.08 0.44 4.62 0.1 0.82 0.2 1.63 0.3 2.48 0.13 0.94 0.13 0.94 0.26 1.9h1c-0.4 11.8-1.25 23.5-2.44 35.2-0.12 1.24-0.24 2.48-0.37 3.75-1.54 14.7-1.54 14.7-4.19 20h-2c-0.66 1.31-1.32 2.63-2 4-0.39-1.06-0.79-2.11-1.19-3.19-1.6-3.74-3.69-6.16-6.81-8.81-0.99-0.34-1.98-0.66-3-1-0.13 0.61-0.25 1.23-0.38 1.87-0.62 2.13-0.62 2.13-2.62 4.13 0.83 2.16 0.83 2.16 3 3-1.93 2.43-3.8 4.8-6 7-0.66-0.34-1.32-0.66-2-1v2c-1.34-0.67-2.65-1.38-3.94-2.13-2.19-1.2-2.19-1.2-5.06 0.13-0.99 0.33-1.98 0.65-3 1h6v2h-2l-1 3h-2l-1-2c-0.62 0.61-1.24 1.23-1.88 1.87-1.37 1.37-2.75 2.75-4.12 4.13l-1-4c-0.33 1.64-0.66 3.29-1 5h-6c0.66 1.31 1.32 2.63 2 4-1.32 0.33-2.64 0.65-4 1v2c1.32-0.34 2.64-0.66 4-1-0.19 0.63-0.37 1.27-0.56 1.93-0.15 0.68-0.29 1.36-0.44 2.07 0.33 0.33 0.66 0.65 1 1l-1 3h-3c-0.66 1.64-1.32 3.29-2 5-7.75 0.12-7.75 0.12-10-1 0.33 0.65 0.66 1.31 1 2 1.07-0.05 2.14-0.09 3.25-0.13 3.4 0.11 4.95 0.34 7.75 2.13-0.64 0.1-1.28 0.2-1.94 0.31-0.68 0.22-1.36 0.45-2.06 0.69l-1 3c-1.98 0.33-3.96 0.65-6 1l1-4c-0.64 0.16-1.28 0.33-1.94 0.5-2.06 0.5-2.06 0.5-3.06 0.5-1.34 0.32-2.67 0.65-4 1v2c0.99-0.34 1.98-0.66 3-1v2c-1.32 0.33-2.64 0.65-4 1v4 2c-0.62 0.08-1.24 0.16-1.88 0.24-2.31 0.57-2.31 0.57-3.37 2.82-0.37 0.96-0.37 0.96-0.75 1.94h-6v3h-50c0.99 1.21 0.99 1.21 2.9 1.12 0.83-0.01 1.67-0.01 2.53-0.01h2.85c1.02-0.01 2.04-0.01 3.1-0.02h3.15c3.35-0.01 6.69-0.02 10-0.03 2.26-0.01 4.52-0.01 6.78-0.02 5.55-0.01 11.1-0.02 16.7-0.04 0.33 0.65 0.66 1.31 1 2-0.93 0.18-0.93 0.18-1.88 0.37-2.31 0.5-2.31 0.5-4.12 2.63-0.99 0.33-1.98 0.65-3 1 2.64 0.33 5.28 0.65 8 1-1.19 2.5-1.19 2.5-3 5-2.69 0.31-2.69 0.31-5 0l1-2c-10-0.8-19.9-1.1-30-0.97-0.86 0.01-1.71 0.02-2.59 0.03-0.76 0.01-1.51 0.02-2.29 0.03-2.17-0.1-4.05-0.5-6.13-1.09v2c1.62-0.02 1.62-0.02 3.27-0.04 4-0.03 8-0.06 12-0.07 1.73-0.01 3.46-0.03 5.2-0.05 2.48-0.02 4.97-0.03 7.46-0.04 0.77-0.01 1.55-0.02 2.35-0.03 1.91 0 3.81 0.1 5.72 0.23 0.66 0.65 1.32 1.31 2 2h-10c2.6 1.3 5.14 1.56 8 2-1.13 2.5-1.13 2.5-3 5-3.19 0.31-3.19 0.31-6 0l2-4c-1.98 0.33-3.96 0.65-6 1v-2c0.66-0.34 1.32-0.66 2-1h-19v2c-1.65 0.33-3.3 0.65-5 1h17l-1 3c-0.83-0.04-1.67-0.07-2.52-0.11-1.09-0.03-2.18-0.05-3.3-0.08-1.07-0.04-2.15-0.07-3.26-0.11-3.35 0.34-3.76 0.93-5.92 3.3h-4v-2h-4c-0.5 2.97-0.5 2.97-1 6l4 2c-1.98 0.65-3.96 1.31-6 2 1.32 0.33 2.64 0.65 4 1-0.66 0.33-1.32 0.65-2 1l8 3c-0.66 0.65-1.32 1.31-2 2 0.47 0.47 0.95 0.94 1.44 1.43 0.85 0.86 1.7 1.71 2.56 2.57 2.84 0 5.23-0.41 8-1l-2-2c0.33-0.34 0.66-0.66 1-1l-2-2c1.98-2.98 1.98-2.98 4-6-1.32-0.34-2.64-0.66-4-1 2.94-1.97 4.62-2.38 8-3 0.33-0.34 0.66-0.66 1-1 2.01-0.24 4.04-0.42 6.06-0.57 1.1-0.08 2.21-0.17 3.35-0.25 0.85-0.06 1.71-0.12 2.59-0.18v3c1.65 0.33 3.3 0.65 5 1-0.66 0.65-1.32 1.31-2 2v1c1.98 0.33 3.96 0.65 6 1v1c-1.12-0.02-1.12-0.02-2.27-0.04-0.98-0.01-1.97-0.02-2.98-0.03-0.98-0.01-1.95-0.02-2.96-0.03-2.72-0.01-2.72-0.01-5.03 0.66-1.76 0.44-1.76 0.44-3.76-0.56 2.36 2.35 3.78 2.49 7 3v1h-5l-1 3h-6c4.97 1.77 4.97 1.77 10 1 0 2 0 2-2.5 4.62-0.83 0.78-1.65 1.57-2.5 2.38 1.32-1 2.64-1.99 4-3-0.13 1.87-0.13 1.87-1 4-3.06 1.24-3.06 1.24-6 2 0.33 0.65 0.66 1.31 1 2h-4c-0.66 1.31-1.32 2.63-2 4-1.13-4.76-1.13-4.76 0-7-1.32 0.33-2.64 0.65-4 1l2 3c-3.22 1.07-3.9 0.79-7 0-2.79 1.39-2.98 3.15-4 6h-5c-0.33-1-0.66-1.99-1-3-0.77 0.3-1.53 0.61-2.32 0.93-1.87 0.74-3.77 1.43-5.68 2.07-0.46 0.51-0.92 1.02-1.4 1.55-2.15 1.94-3.43 1.68-6.29 1.63-4.62 0.29-6.48 1.45-9.63 4.82-0.59 0.72-1.18 1.44-1.8 2.18-2.99 2.88-5.86 2.82-9.88 2.82l1-2c-0.66-0.34-1.32-0.66-2-1v-1c-0.66-0.34-1.32-0.66-2-1 1.18-1.5 1.18-1.5 3-3 3.48-0.37 6.6 0.22 10 1l1-4h-7c0-2 0-2 2-4.13 0.66-0.62 1.32-1.24 2-1.87-0.75 0.16-1.49 0.33-2.25 0.5-2.75 0.5-2.75 0.5-6.75 0.5-0.33-1-0.66-1.99-1-3h-2v-2c0.49-0.48 0.99-0.95 1.5-1.44 1.84-1.56 1.84-1.56 1.5-4.56 0-2.47 0.85-3.86 2-6 1.32 0.33 2.64 0.65 4 1 0.33-1 0.66-1.99 1-3-1.65-0.34-3.3-0.66-5-1v-2c0.99-0.34 1.98-0.66 3-1-1.65-0.34-3.3-0.66-5-1 1.32-1 2.64-1.99 4-3h-3v-2c0.66-0.34 1.32-0.66 2-1-1.98-1-1.98-1-4-2 1.65-0.34 3.3-0.66 5-1-0.67-3.12-0.67-3.12-3.06-4.19-0.64-0.27-1.28-0.54-1.94-0.81l4-2c-0.96-0.19-0.96-0.19-1.94-0.38-0.68-0.21-1.36-0.41-2.06-0.62l-1-2c-0.77 0.04-1.53 0.08-2.32 0.12-2.68-0.12-2.68-0.12-5.68-2.12 0.99-1.32 1.98-2.64 3-4l-4 2v3c-1.53 1.6-1.53 1.6-3.5 3.18-0.65 0.53-1.3 1.06-1.97 1.61-0.51 0.4-1.01 0.79-1.53 1.21-0.66-0.34-1.32-0.66-2-1-1.12 1.2-1.12 1.2-2.25 2.43-2.51 2.33-3.47 3.2-6.75 3.57l1-2h2v-3c-0.33 0.65-0.66 1.31-1 2-3.3-0.34-6.6-0.66-10-1-0.66 1.31-1.32 2.63-2 4h-2c0-2 0-2 1-3h-2l-1 3c-0.66-0.34-1.32-0.66-2-1l1-2c-0.99 0.33-1.98 0.65-3 1v-2c0.66-0.34 1.32-0.66 2-1-0.66-0.34-1.32-0.66-2-1v-2h-2v-2h-7l-1 3 3 3c-0.66 0.43-1.32 0.86-2 1.31-0.66 0.55-1.32 1.11-2 1.69v3c1.32 0.33 2.64 0.65 4 1l-1 3c-0.99 0.33-1.98 0.65-3 1-0.16 3.05-0.16 3.05 1 6-0.66 0.33-1.32 0.65-2 1l1 3c2.25 0.86 2.25 0.86 5 1 3.8-2.48 6.84-5.76 10-9v3c-0.99 0.33-1.98 0.65-3 1 1.25 2.51 2.5 2.87 5 4-1.98 0.33-3.96 0.65-6 1v2c1.98-1 1.98-1 4-2 0.33 1.31 0.66 2.63 1 4 0.92-0.15 0.92-0.15 1.86-0.29 0.81-0.11 1.62-0.23 2.45-0.34 0.8-0.12 1.6-0.23 2.43-0.35 2.26-0.02 2.26-0.02 5.26 1.98-4.41 1.1-8.49 1.07-13 1v1c0.66 0.33 1.32 0.65 2 1-0.33 0.33-0.66 0.65-1 1 0.66 0.33 1.32 0.65 2 1v-3c0.99 0.33 1.98 0.65 3 1h2v2c0.99 0.33 1.98 0.65 3 1-0.99 0.33-1.98 0.65-3 1l-1 3h-6c0.33 0.65 0.66 1.31 1 2 0.99 0.33 1.98 0.65 3 1-0.56 0.22-1.12 0.45-1.69 0.68-2.54 1.31-2.54 1.31-4.94 3.94-0.78 0.78-1.56 1.57-2.37 2.38h-2l-1 3c-0.66-0.34-1.32-0.66-2-1v-2c-0.66-0.34-1.32-0.66-2-1h4v-4c-0.6 0.33-1.2 0.65-1.82 1-2.18 1-2.18 1-5.18 1 0.33-1 0.66-1.99 1-3-0.33-0.34-0.66-0.66-1-1-1.36 0.62-2.68 1.3-4 2-1.05 0.51-2.11 1.03-3.19 1.56-3.04 2.64-3.27 3.1-3.75 6.87-0.16 3.36 0.03 6.31 0.94 9.57 1.11 4.77 1.11 4.77 0 7 0.66 0.33 1.32 0.65 2 1-1.06 3.4-2.01 6.01-4 9v3c-0.35 1.17-0.7 2.35-1.06 3.56-1.31 3.26-1.31 3.26 0.06 5.44h-2c-0.69 2.49-1 4.37-1 7-0.31 1.67-0.64 3.33-1 5h-2c0.18 0.61 0.37 1.23 0.56 1.87 0.44 2.13 0.44 2.13-0.56 4.13h-2l-1 12h-2c-0.2-1.9-0.38-3.8-0.56-5.69-0.11-1.06-0.21-2.11-0.32-3.2-0.12-3.11-0.12-3.11 0.37-5.44 0.55-2.92 0.6-5.57 0.57-8.53-0.01-1.12-0.02-2.24-0.02-3.39-0.03-2.32-0.06-4.64-0.08-6.97-0.04-5.71 0.08-11.2 0.81-16.9 0.29-2.36 0.29-4.68 0.23-7.05-0.07-2.66 0.02-4.95 0.5-7.57 0.5-3.26 0.6-6.27 0.56-9.56-0.01-1.18-0.02-2.35-0.02-3.57-0.02-1.21-0.03-2.43-0.04-3.68-0.03-2.42-0.05-4.83-0.06-7.25-0.02-1.07-0.03-2.13-0.04-3.23 0.09-2.78 0.52-5.24 1.1-7.95 0.04-2.5 0.04-5.01 0-7.5-0.11-6.97-0.11-6.97 0.49-9.89 0.77-3.97 0.61-7.9 0.57-11.9 0-0.83-0.01-1.67-0.01-2.53-0.02-2.05-0.03-4.1-0.05-6.15h4v-2c-0.66-0.34-1.32-0.66-2-1h2c-0.99-2.48-0.99-2.48-2-5 0.66-0.34 1.32-0.66 2-1 0.89-5 1.04-9.77 0.97-14.8 0.04-3.1 0.54-6.11 1.03-9.17v-3c0.11-4.17 1.72-5.98 4.56-8.82 1.14-1.07 2.28-2.14 3.44-3.18l-1-2c0.66-1 1.32-1.99 2-3v-3c1.87-3.19 1.87-3.19 4-6h2v2c1.48 0.49 1.48 0.49 3 1 1.24 2.61 2.08 5.25 3 8 0.99 0.65 1.98 1.31 3 2 0.33 0.33 0.66 0.65 1 1 0.49-1.99 0.49-1.99 1-4 0.33 0.65 0.66 1.31 1 2l2-2c-2.78-1.94-2.78-1.94-5-3 0.99-0.34 1.98-0.66 3-1 0.49-1.49 0.49-1.49 1-3 2.06-0.69 2.06-0.69 4-1v3c0.74 0.08 1.48 0.16 2.25 0.24 3.26 0.89 4.56 2.24 6.75 4.76l2-2v-3h-2l3-6h-2c-0.33 0.65-0.66 1.31-1 2 0.56-3.26 1.37-4.96 4-7 2.18-0.69 2.18-0.69 4-1l-5-5 1-2c2.06-0.63 2.06-0.63 4-1-0.99-1-0.99-1-2-2l2-2c0.64-2.07 0.64-2.07 1-4h-1c-0.33-1.99-0.66-3.97-1-6h3c0.33 0.33 0.66 0.65 1 1 0.49-1 0.49-1 1-2 1.48 0.49 1.48 0.49 3 1h-2v2h2c0.49-1.49 0.49-1.49 1-3 0.99-0.34 1.98-0.66 3-1-1.98-0.5-1.98-0.5-4-1 3.4-2.1 6.05-2.18 10-2-1.98-0.34-3.96-0.66-6-1v-2c1.65 0.33 3.3 0.65 5 1v-3h-5v-1h5c-2.31-0.66-4.62-1.33-7-2 3.21-1.91 5.54-2.23 9.25-2.13 1.34 0.03 1.34 0.03 2.7 0.05 0.68 0.03 1.35 0.05 2.05 0.08-2.31-0.34-4.62-0.66-7-1v-2c1.32-0.34 2.64-0.66 4-1-0.66-0.66-1.32-1.33-2-2 0.66-0.34 1.32-0.66 2-1-1.49-1-1.49-1-3-2 4.45-0.5 4.45-0.5 9-1v-2-3c0.99-0.66 1.98-1.33 3-2v-3h4c-1.65-0.66-3.3-1.33-5-2 1.33-0.67 2.66-1.34 4-2 0.68-0.36 1.36-0.71 2.06-1.07 1.94-0.93 1.94-0.93 4.94-1.93h-3v-2c4.56-0.88 6.95-1.23 11 1 3.16 0.16 3.16 0.16 6 0-2.31-0.66-4.62-1.33-7-2 0.33-0.66 0.66-1.33 1-2-1.32-0.34-2.64-0.66-4-1 0.33-1 0.66-1.99 1-3 1.13 0.02 2.27 0.04 3.44 0.06 3.37 0.35 3.37 0.35 4.56-1.06-0.99-0.5-0.99-0.5-2-1-0.33 0.33-0.66 0.65-1 1-0.99-0.5-0.99-0.5-2-1 0.33-0.66 0.66-1.33 1-2h-2v-2c0.8-0.13 1.61-0.25 2.44-0.38 0.84-0.21 1.69-0.41 2.56-0.62 0.33-0.66 0.66-1.33 1-2 1.65 0.33 3.3 0.65 5 1v2c0.99 0.49 0.99 0.49 2 1-0.33 0.33-0.66 0.65-1 1l2 2c-0.33 0.65-0.66 1.32-1 2h10v2c-3.73 0.69-7.21 1.11-11 1 4.41 1.1 8.48 1.07 13 1v2c0.33-0.66 0.66-1.33 1-2 0.66 0.33 1.32 0.65 2 1-0.33 1.32-0.66 2.63-1 4-3.95 0.17-6.6 0.09-10-2 2.6 2.13 4.62 3.56 8 4 0.99-0.34 1.98-0.66 3-1 2.18 0.43 2.18 0.43 4 1-0.66 0.65-1.32 1.32-2 2h-3v4h3c0.33-0.66 0.66-1.33 1-2 0 3 0 3-1.5 4.68-0.5 0.44-0.99 0.87-1.5 1.32 1.32-0.34 2.64-0.66 4-1 0.99 1.32 1.98 2.63 3 4-0.96 0.15-0.96 0.15-1.94 0.31-0.68 0.22-1.36 0.45-2.06 0.69l-1 3c-2.06 1.18-2.06 1.18-4 2 0.66 0.33 1.32 0.65 2 1v-2c0.99-0.34 1.98-0.66 3-1 1.66-1.5 1.66-1.5 3-3 0.33 0.65 0.66 1.32 1 2 2.97-0.5 2.97-0.5 6-1-0.33 1.32-0.66 2.63-1 4 1.83-0.06 1.83-0.06 4-1 0.8-1 1.61-1.99 2.44-3 2.56-3 2.56-3 5.24-3.94 2.32-0.06 2.32-0.06 4.32 0.94v2c0.66 0.33 1.32 0.65 2 1 0.74-0.79 1.48-1.57 2.25-2.38 2.29-2.19 3.87-3.45 6.75-4.62v3c1.98-1 1.98-1 4-2l-1 3h2v2c1.65 0.33 3.3 0.65 5 1-0.66 1.32-1.32 2.63-2 4 0.66 0.65 1.32 1.32 2 2 0.99-0.66 1.98-1.33 3-2h3v2c2.31 0.33 4.62 0.65 7 1v2c0.66 0.33 1.32 0.65 2 1 0.66-1.33 1.32-2.64 2-4 0.76 0.3 1.52 0.61 2.31 0.93 3.9 1.54 7.55 2.42 11.7 3.07v-2h2v-2c0.62 0.2 1.23 0.41 1.87 0.62 0.7 0.12 1.41 0.25 2.13 0.38 0.99-1 0.99-1 2-2-0.33-0.66-0.66-1.33-1-2 0.66-0.34 1.32-0.66 2-1 0.33-0.66 0.66-1.33 1-2 0.99 0.33 1.98 0.65 3 1 0.33-0.34 0.66-0.66 1-1-0.33-1-0.66-1.99-1-3 0.33-1.67 0.66-3.34 1-5-0.33-1-0.66-1.99-1-3 0.44-2.19 0.44-2.19 1-4-1.65 0.33-3.3 0.65-5 1-0.27-0.64-0.54-1.28-0.82-1.94-1.07-2.4-1.07-2.4-4.18-3.06h2c-0.33-1.99-0.66-3.97-1-6l-2 3h-3c-0.33-1.33-0.66-2.64-1-4h-4c1.1-3 1.67-3.85 4.62-5.26 0.79-0.24 1.57-0.49 2.38-0.74-0.99-1.99-0.99-1.99-2-4 1.94-0.57 1.94-0.57 4-1 0.33 0.33 0.66 0.65 1 1 0.39-0.52 0.78-1.04 1.18-1.57 1.82-1.43 1.82-1.43 4.38-1.31z" fill="#46994B"/>
<path transform="translate(1072 1303)" d="m0 0c1.25-0 1.25-0 2.53-0.01 2.77 0 5.55 0 8.32 0.01 1.94-0 3.87-0.01 5.8-0.01 4.07 0 8.14 0 12.2 0.01h15.5c4.01-0.01 8.01-0.01 12-0 1.9-0 3.81-0 5.71-0.01 27.4-0.02 56.6 1.18 77.8 21.1 0.87 0.78 1.74 1.57 2.63 2.37 14.6 16.2 21.5 35.1 23.4 56.6 0.08 0.85 0.15 1.7 0.23 2.57 0.8 20.2-5.42 40.9-18.2 56.4-0.61 0.77-1.22 1.54-1.85 2.33-16.3 19.4-40.1 29.9-64.9 32.5-7.53 0.62-15.1 0.49-22.6 0.48-1.93 0-3.85 0.01-5.78 0.01-3.99 0.01-7.99 0.01-12 0.01-5.13-0.01-10.3 0.01-15.4 0.03-3.96 0.01-7.91 0.02-11.9 0.01-1.9 0-3.79 0.01-5.68 0.02-2.63 0.01-5.26 0-7.89-0.01-0.78 0.01-1.57 0.02-2.37 0.02-2.16-0.02-2.16-0.02-5.61-0.39l-2-3c1.83-4.53 3.71-7.35 8.16-9.57 2.31-0.86 4.64-1.66 6.98-2.42 2.95-0.81 2.95-0.81 4.86-3.01 1.08-3.13 1.14-6.09 1.17-9.38 0.01-1.09 0.02-2.18 0.04-3.3 0-1.19 0.01-2.39 0.02-3.61 0.01-1.26 0.02-2.52 0.03-3.82 0.04-4.17 0.06-8.34 0.09-12.5 0-0.71 0-1.42 0.01-2.15 0.03-6.7 0.07-13.4 0.09-20.1 0.03-8.56 0.08-17.1 0.16-25.7 0.05-6.02 0.08-12 0.09-18.1 0.01-3.6 0.03-7.2 0.07-10.8 0.06-4.02 0.05-8.03 0.04-12 0.03-1.19 0.05-2.37 0.07-3.6 0.05-5.87 0.05-5.87-2.39-11-6.47-5.71-14.2-6.56-22.5-7.94-0.8-2.33-1.17-3.54-0.29-5.89 3.93-6.39 6.24-6.26 13.4-6.24z" fill="#CAC9C1"/>
<path transform="translate(633,259)" d="m0 0c3.38 0.31 3.38 0.31 7 1 2 3 2 3 1.81 5.38-0.89 2.87-2.26 5.06-3.81 7.62-0.16 3.05-0.16 3.05 1 6-0.88 2.5-0.88 2.5-2 5-0.5 1.49-0.5 1.49-1 3-2.56 1.19-2.56 1.19-5 2 0.19 0.72 0.37 1.44 0.56 2.19 0.47 3 0.04 4.86-0.56 7.81-0.07 1.63-0.09 3.27-0.06 4.91 0.01 1.36 0.01 1.36 0.02 2.75 0.01 0.94 0.03 1.87 0.04 2.84 0.03 1.86 0.05 3.73 0.06 5.59 0.01 0.83 0.03 1.65 0.04 2.49-0.11 2.57-0.58 4.91-1.1 7.42-0.16 3.05-0.16 3.05 1 6l-2 2c-0.45 0.54-0.91 1.07-1.38 1.62-1.62 1.38-1.62 1.38-5.62 1.38v2c0.99 0.5 0.99 0.5 2 1 0.81 1.88 0.81 1.88 1 4-0.45 0.41-0.91 0.82-1.38 1.25-2.62 2.83-2.31 5.97-2.62 9.75h7v2c0.99 0.5 0.99 0.5 2 1v4c0.97 0.29 1.94 0.58 2.94 0.88 3.06 1.12 3.06 1.12 4.06 3.12 0.15 0.99 0.15 0.99 0.31 2 0.52 2.2 0.52 2.2 2.75 3.25 0.96 0.37 0.96 0.37 1.94 0.75v2l3 2-1 2h2c1.26 2.91 2 4.8 2 8h2l1-2c2.2 2.48 2.97 3.77 3.38 7.12 0.3 1.43 0.3 1.43 0.62 2.88 2.46 1.45 2.46 1.45 5 2v2h2c-0.23 0.58-0.45 1.15-0.69 1.75-0.59 2.35-0.59 2.35 1.13 4.25 0.51 0.66 1.03 1.32 1.56 2v4l2 2-1 2 1 2h-2v2c1.63 1.38 3.29 2.72 5 4l-1 5 2 1c-0.27 0.72-0.54 1.44-0.81 2.19-0.53 3.03-0.53 3.03 2.06 5.43 0.91 0.79 1.82 1.57 2.75 2.38l3 3c0.56 0.52 1.11 1.03 1.69 1.56 1.31 1.44 1.31 1.44 1.31 3.44 0.78 0.06 1.57 0.12 2.38 0.19 2.62 0.81 2.62 0.81 3.87 3.06 0.7 2.57 1.3 5.12 1.75 7.75h2v2h2v2l4 2v2h2c1.39 3.47 2.13 6.41 2.06 10.1-0.05 3.02 0.01 5.08 0.94 7.88h3v2h2v2l4 1h-2c1.11 2.22 2.49 4.04 4 6h-2v2l2 1c1.81 1.81 1.64 4.55 2 7l-4 1v2h2v3l2 2h-2c0.28 1.65 0.58 3.29 0.88 4.94 0.24 1.37 0.24 1.37 0.49 2.77 0.31 1.14 0.31 1.14 0.63 2.29l2 1c0.63 1.85 0.63 1.85 1.12 4.06 0.26 1.1 0.26 1.1 0.51 2.23 0.12 0.56 0.25 1.13 0.37 1.71 0.76-0.21 1.53-0.41 2.31-0.62 2.69-0.38 2.69-0.38 5.69 1.62-0.41 4.82-2.38 6.91-6 10h-2v5c0.6-0.16 1.2-0.33 1.81-0.5 2.19-0.5 2.19-0.5 5.19-0.5 2.06-1.77 2.06-1.77 4.06-4 1.28-1.37 2.58-2.71 3.94-4h2l2-4 1 3 2-2 1 2 7-5v2c3.78 0.3 3.78 0.3 6-1l1 2 2-1c-0.46 0.9-0.46 0.9-0.94 1.81-1.16 2.28-1.16 2.28-2.06 5.19 0.83 2.17 0.83 2.17 3 3l1 3h2v2c0.64 0.27 1.28 0.54 1.94 0.81 2.06 1.19 2.06 1.19 3.06 4.19h9l-1-7h2l-1-3c-0.23-3.14-0.19-6.29-0.19-9.44v-2.73c0.05-5.86 0.53-11.4 1.68-17.2 0.71-3.72 0.99-7.44 1.26-11.2 0.25-2.47 0.25-2.47 0.78-4.92 0.7-3.79 0.49-7.49 0.41-11.3 0.06-3.07 0.43-6.01 0.84-9.05 0.4-4.02 0.23-8.03 0.16-12.1-0.1-13.3-0.14-27.1 6.06-39.1 0.37-0.75 0.74-1.49 1.12-2.26 0.29-0.57 0.58-1.15 0.88-1.74v2h2c1.11 8.84 0.94 17.5 0.56 26.4-1.56 16-1.56 16 0.44 31.6 0.07 2.39 0.08 4.79 0.05 7.18 0 0.72-0.01 1.45-0.02 2.2-0.02 2.41-0.05 4.81-0.08 7.21l-0.06 5.01c-0.04 3.5-0.08 7-0.13 10.5-0.06 4.49-0.11 8.98-0.15 13.5-0.04 3.45-0.08 6.9-0.13 10.4-0.02 1.65-0.04 3.31-0.05 4.96-0.02 2.32-0.06 4.63-0.1 6.94-0.01 1.32-0.03 2.64-0.04 3.99-0.29 3.19-0.29 3.19-2.29 6.19l-1-2c-5.36 14-6.46 28.1-6 43 0 3.5-1.22 5.04-2.98 7.96-1.44 2.88-1.98 5.77-2.53 8.93-0.83 3.58-2.26 5.85-4.68 8.61-0.6 0.83-1.19 1.65-1.81 2.5 0.4 2.1 0.4 2.1 1 4l-3 3c0.36 1.93 0.36 1.93 1 4-0.44 2.75-0.44 2.75-1 5 0.63 0.24 1.26 0.48 1.91 0.73 2.09 1.27 2.09 1.27 3.02 3.26 1.36 6.24 1.36 6.24 0.01 9.89-2.12 2.31-4.16 3.69-6.94 5.12v-2h-2c-1.04-1.31-2.03-2.64-3-4-0.56-0.5-1.11-0.99-1.69-1.5-1.31-1.5-1.31-1.5-1.31-5.5h-2v-2h2v-2h2v-2h2v-2l-1-1-5 5v-2h-2v2h-2v2h-2v-2l-6 3c-0.99-3.47-0.99-3.47-2-7h-2v-2l-4 1c-0.99-1.49-0.99-1.49-2-3l-1-1-1-3c-0.99-0.33-1.98-0.66-3-1v2c-2.51-1.26-2.87-2.5-4-5l-2 3c-3.62 0.19-3.62 0.19-7 0v-2h-2v-2l-2-1v-3c-0.33-0.58-0.66-1.15-1-1.75-1.39-3.12-1.13-5.88-1-9.25l2-1c-0.14-0.58-0.29-1.15-0.44-1.75-0.52-2.08-1.04-4.17-1.56-6.25h-2v-2c-0.99-0.33-1.98-0.66-3-1-1.34-0.65-2.68-1.32-4-2v-2l-2-2 7-6h-2v-2h2v-2c-0.99-0.33-1.98-0.66-3-1l-1-1-3 3c-2.31-0.56-2.31-0.56-5-2-1.62-3.31-1.62-3.31-3-7-0.98-1.68-1.97-3.35-3-5-0.31-0.64-0.62-1.28-0.94-1.94-1.12-2.29-1.12-2.29-3.18-5.12-1.88-2.94-1.88-2.94-1.88-5.94l-2-1c-0.12-0.64-0.25-1.28-0.38-1.94-0.42-2.25-0.42-2.25-2.62-3.18-0.66-0.29-1.32-0.58-2-0.88-1.35-2.71-1.07-5.01-1-8h-2c-0.04-2-0.04-4 0-6l1-1-2-2v-2c-0.94-2.5-1.41-3.72-3.88-4.88-3.07-1.63-4.2-4.24-6.12-7.12-1.96-1.71-3.96-3.38-6-5-1.05-1.08-1.05-1.08-2.12-2.19-1.89-1.82-3.53-2.71-5.88-3.81l-2-2v-3l-7-2 2-6c-0.74-0.14-1.49-0.29-2.25-0.44-0.91-0.18-1.82-0.37-2.75-0.56-1.11-0.19-1.11-0.19-2.25-0.38-0.58-0.2-1.15-0.41-1.75-0.62l-1-3-2-1 2-3-2-1h2c0.93-3.01 1.04-3.87 0-7h-2c-0.62-2.31-0.62-2.31-1-5l2-3-2-1c-0.31-0.78-0.62-1.57-0.94-2.38-0.83-2.62-0.83-2.62-2.58-3.98-1.96-2.18-1.97-3.68-2.17-6.58-0.1-1.28-0.1-1.28-0.2-2.59-0.1-2.15-0.11-4.31-0.11-6.47l-2-2 2-2c-0.78-0.62-1.57-1.24-2.38-1.88-2.62-2.12-2.62-2.12-4.62-4.12 0.33-0.74 0.66-1.49 1-2.25 1.23-2.89 1.23-2.89 1-6.75v-1c-0.65-1.34-1.32-2.68-2-4h2l-2-4 1.62-1.62c1.77-2.42 1.77-2.42 0.57-5.63-0.59-1.36-0.59-1.36-1.19-2.75l2-1c-0.5-0.72-0.99-1.44-1.5-2.19-1.58-2.96-1.78-4.52-1.5-7.81h-2v-2l-2-1h2v-3h-2v-2l-5-2v2h-2l-1 2h-1l-1 3c-4.1-6.15-4.1-6.15-3.62-10.2 0.2-0.91 0.41-1.81 0.62-2.75l-2-1c0.49-0.7 0.98-1.4 1.48-2.12 1.73-3.28 1.86-5.21 1.77-8.88-0.02-1.01-0.03-2.02-0.05-3.06-0.12-2.89-0.12-2.89-0.77-5.43-0.53-3.11-0.14-5.59 0.38-8.7 0.19-1.13 0.38-2.27 0.57-3.44 0.7-3.78 1.52-7.52 2.45-11.2 0.21-2.61-0.49-3.91-1.83-6.12h2c0.69-2.49 1-4.38 1-7v-3l-4 2-2-2v-3c-1.49 0.99-1.49 0.99-3 2 0.23 0.58 0.47 1.15 0.71 1.75 0.29 2.25 0.29 2.25-1.11 4.29-0.65 0.66-1.3 1.33-1.98 2.02-2.35 2.45-3.53 3.67-4.62 6.94h-2v2h-2c3.51-18.6 18.2-38 27.5-54.1 0.6-1.04 1.2-2.09 1.82-3.16 0.56-0.97 1.13-1.94 1.71-2.94 0.75-1.29 0.75-1.29 1.52-2.61 1.87-2.87 3.46-4.77 6.57-6.23 2.23-0.91 2.23-0.91 2.88-4h2v-2h2c0.45-0.47 0.91-0.95 1.38-1.44 1.85-1.78 3.12-2.13 5.62-2.56v-4z" fill="#55AB54"/>
<path transform="translate(774,78)" d="m0 0h2c0.5 1.48 0.5 1.48 1 3l3 2c0.19 3.12 0.19 3.12 0 6h2c0.9 3.84 1.11 7.38 1.06 11.3-0.01 1.07-0.02 2.14-0.02 3.24-0.02 1.21-0.02 1.21-0.04 2.45h2c0.51 12.4 0.96 24.8 1.25 37.2 0.02 0.86 0.05 1.73 0.07 2.63 0.1 4.32 0.2 8.64 0.29 13 0.03 1.61 0.07 3.22 0.11 4.84 0.01 0.72 0.03 1.45 0.04 2.2 0.02 0.69 0.03 1.39 0.05 2.1 0.01 0.59 0.03 1.19 0.04 1.8 0.13 2.02 0.38 4.03 0.64 6.04 0.51 3.95 0.71 7.86 0.82 11.8 0.03 1.07 0.03 1.07 0.07 2.17 0.07 2.33 0.13 4.67 0.19 7 0.05 1.64 0.09 3.27 0.14 4.91 0.09 3.41 0.18 6.83 0.27 10.2 0.12 4.37 0.24 8.74 0.37 13.1 0.1 3.37 0.19 6.74 0.28 10.1 0.04 1.61 0.09 3.22 0.14 4.83 0.06 2.25 0.12 4.5 0.18 6.76 0.05 1.92 0.05 1.92 0.1 3.87-0.11 7.42-0.11 7.42-2.05 9.36-0.07 2.86-0.09 5.7-0.06 8.56 0 1.21 0 1.21 0.01 2.45 0.01 1.99 0.03 3.99 0.05 5.99h-3c-1.93 5.56-3.52 11.2-5.12 16.9-0.28 0.97-0.56 1.94-0.84 2.95l-2.04 7.17h-2c-0.19 0.77-0.19 0.77-0.38 1.56-0.62 2.44-0.62 2.44-1.74 5.69-0.84 3.58-0.7 5.92-0.11 9.5 0.62 5.99 0.06 11.9-2.77 17.2v2c-1.68 1.44-1.68 1.44-3.88 3-2.22 1.59-4.18 3.06-6.12 5-2.67 0.2-5.21 0.28-7.88 0.25-0.72 0.01-1.44 0.02-2.18 0.02-3.9-0.01-6.54-0.4-9.94-2.27-0.99 0.33-1.98 0.66-3 1-8.1-1.73-14-6.53-19-13-1.15-2.46-1.6-4.29-2-7h-2c-0.4-1.58-0.4-1.58-0.81-3.19-1.25-4-2.47-7.46-5.84-10.1-1.35-1.71-1.35-1.71-1.21-4.37 0.34-1.47 0.34-1.47 0.67-2.96 0.22-0.99 0.43-1.97 0.65-2.98 0.18-0.79 0.36-1.58 0.54-2.4 0-1.31-0.03-2.63-0.06-3.94 0.06-3.06 0.06-3.06 1.06-5.06l-2-1c-0.62-2.06-0.62-2.06-1-4l-2 1-2-4h-2l-2-2c-2.57-0.65-2.57-0.65-5-1v-3c-0.31-2-0.65-4-1-6h-8l1-3-4-6 1-3h2c-0.57-4.13-0.57-4.13-2-8h-2c-0.12-0.76-0.25-1.53-0.38-2.31-0.5-2.89-0.5-2.89-2.62-5.69-0.6-3.39-1-6.56-1-10l-1-3v-3l-1-3h-2c-0.12-1.07-0.25-2.15-0.38-3.25-0.39-3.57-0.39-3.57-1.68-5.81-1.3-2.68-1.07-5.01-0.94-7.94-0.93 0.99-0.93 0.99-1.88 2-2.12 2-2.12 2-4.12 2v4c-1.49 0.99-1.49 0.99-3 2-2.47 2.84-4.47 5.56-6 9h-5c2.91-5.45 6.3-10.1 10.2-14.8 1.17-1.42 2.34-2.84 3.51-4.26 0.56-0.67 1.12-1.35 1.7-2.05 1.92-2.35 3.8-4.74 5.66-7.13 3.87-4.86 8.06-9.39 12.3-13.9 2.1-2.28 4.14-4.58 6.15-6.93 5.04-5.82 10.6-11.1 16.1-16.5 2.42-2.39 2.42-2.39 4.65-5.26 2.5-3.04 5.33-5.52 8.32-8.07 2.84-2.46 5.61-5 8.37-7.55 5.57-5.12 11.2-10.2 17-15 13.4-10.9 24.6-23.4 29-40.6 0.39-1.38 0.79-2.75 1.19-4.12 0.27-0.95 0.53-1.9 0.81-2.88zm-126 149 2 4h-3l1-4z" fill="#62B055"/>
<path transform="translate(585,540)" d="m0 0c0.12 0.8 0.12 0.8 0.25 1.62 1.28 4.07 3.91 7.3 6.5 10.6 1.25 1.75 1.25 1.75 1.25 3.75 0.62 0.25 1.24 0.5 1.88 0.75 2.12 1.25 2.12 1.25 2.97 3.05 1.46 2.79 3.37 4.53 5.65 6.7 2.87 2.73 4.83 4.92 6.5 8.5 2.27 2.08 2.27 2.08 5 4 1.01 0.76 2.02 1.53 3.06 2.31 2.69 1.98 2.69 1.98 5 1.25 0.64-0.18 1.28-0.37 1.94-0.56 2.75 1.25 2.75 1.25 5 3v3h2l3 3c2.1 1.18 2.1 1.18 4 2v2h2c0.5 2.97 0.5 2.97 1 6 1.11-0.19 1.11-0.19 2.25-0.38 1.36 0.19 1.36 0.19 2.75 0.38 2 2.75 2 2.75 4 6 0.91 0.72 1.82 1.44 2.75 2.19 0.74 0.6 1.49 1.19 2.25 1.81v3l2 1-2 2 2 2c-0.66 0.45-1.32 0.91-2 1.38-0.66 0.53-1.32 1.07-2 1.62v2c1.98 0.5 1.98 0.5 4 1v2c0.58-0.37 1.15-0.74 1.75-1.12 2.25-0.88 2.25-0.88 4.44-0.19 1.81 1.31 1.81 1.31 2.81 4.31 0.52 0.62 1.03 1.24 1.56 1.88 1.77 2.6 1.68 4.03 1.44 7.12v3l1 1c2 2 2 2 3 4h-2v2l2 2-2 3h4v2l2 1c2.42 4.57 3.26 7.95 2 13 0.89 2.12 0.89 2.12 2 4 0 3 0 3-1.12 6.31-0.99 4.16-0.46 5.82 1.12 9.69 0 3 0 3-1 6 0.93 2.03 1.94 4.03 3 6 2.14 4.39 2.14 4.39 1.44 7.38-0.81 4.82 1.95 8.71 4.56 12.6v3c0.37 0.97 0.74 1.94 1.12 2.94 0.88 3.06 0.88 3.06 0 5.44-0.55 0.8-0.55 0.8-1.12 1.62l4 2-1 3 9 9-1 3c0.31 0.7 0.62 1.4 0.94 2.12 1.06 2.89 1.12 4.43 1 7.44-0.11 3.86 0.38 5.54 3.06 8.44v3c0.14 2.72 0.45 4.41 2.33 6.43 2.94 2.72 2.94 2.72 6.67 3.57v2c0.58 0.06 1.15 0.12 1.75 0.19 3.12 1.12 4.25 3.23 6.25 5.81 2.95 1.16 2.95 1.16 6 1 1.03 1.65 2.02 3.32 3 5 0.7 0.52 1.4 1.03 2.12 1.56 2.22 1.7 2.51 2.73 2.88 5.44 0.62 0.06 1.24 0.12 1.88 0.19 0.7 0.27 1.4 0.53 2.12 0.81 0.67 1.66 1.34 3.33 2 5 1.65 1.36 3.31 2.69 5 4 1.44 2 1.44 2 2 4-0.62 2.12-0.62 2.12-2 4-1.32 0.7-2.65 1.37-4 2-2.28 2.82-2.28 2.82-2 6-0.99 0.33-1.98 0.66-3 1 1.47 3.49 2.94 6.88 4.69 10.2 1.69 3.54 1.56 6.1 0.31 9.75-0.98 1.02-1.98 2.02-3 3-1.38 2.98-1.38 2.98 0.25 5.56 2.22 3.1 4.15 4.24 7.75 5.44l-1 3c0.44 3.58 0.44 3.58 2 7 3.24 2.2 3.24 2.2 7 3l2-4h3c0.12 5.75 0.12 5.75-1 8h-2c-0.17 1.65-0.33 3.29-0.5 4.94-0.09 0.91-0.19 1.83-0.28 2.77-0.16 1.64-0.16 1.64-0.22 3.29 0.99 0.33 1.98 0.66 3 1l-2 2v3c-1.25 1.69-1.25 1.69-3 3h-4l2 2c-0.99 1.32-1.98 2.64-3 4 0.99 1.49 0.99 1.49 2 3l-1 3c-0.72 0.06-1.44 0.12-2.19 0.19-3.88 1.12-5.45 2.54-7.81 5.81-0.13 2.87 0.4 5.15 1 8 0 3 0 3-1.5 4.69-0.5 0.43-0.99 0.86-1.5 1.31l3 3c-0.33 0.76-0.66 1.53-1 2.31-1.17 2.68-1.17 2.68-1 5.69-0.93 1.14-0.93 1.14-1.88 2.31-2.24 2.85-3.15 5.22-4.12 8.69h2l-1 3h-2v2h4c-0.21 0.78-0.41 1.57-0.62 2.38-0.13 0.86-0.25 1.73-0.38 2.62l2 2c-1.28 0.25-2.56 0.5-3.88 0.75-3.35 0.79-3.35 0.79-5.68 3.25-0.67 2.06-0.67 2.06 0.56 4-1.75 2.5-1.75 2.5-4 5h-7v-1c-2.07-1.22-2.07-1.22-5-1-3-1-3-1-4-2l-2 1-1-2c-0.99-0.33-1.98-0.66-3-1-0.25-0.66-0.5-1.32-0.75-2-0.41-0.66-0.83-1.32-1.25-2-3.56-0.82-3.56-0.82-7-1 0.06-0.95 0.12-1.9 0.19-2.88-0.06-1.03-0.13-2.06-0.19-3.12l-3-2 2-5-2-1c0-4 0-4 1-7l-1-2h2v-2l-2-1c1.98-0.33 3.96-0.66 6-1l1-3 1-2c-0.93 0.21-1.86 0.41-2.81 0.62-3.19 0.38-3.19 0.38-6.19-1.62l2-3c-0.31-2.65-0.31-2.65-1-5l2-1v-3h-2c-0.67-1.33-1.33-2.67-2-4l-1-1v-2l-2-1-2-2c1.38-2 1.38-2 3-4h2v-2h3c0.16-3.05 0.16-3.05-1-6h2v-6h-2c0.4-2.89 0.79-3.82 3.06-5.75 0.64-0.41 1.28-0.83 1.94-1.25-0.51-3.79-1.21-5.44-4-8-0.5-1.49-0.5-1.49-1-3 0.35-0.6 0.7-1.2 1.06-1.81 1.25-2.3 1.25-2.3 0.13-5.31-0.99-2.4-2.07-4.64-3.25-6.94-0.94-1.94-0.94-1.94-0.94-2.94l-2-1 2-3c-0.5-1.49-0.5-1.49-1-3h2v-2h2l-1-2c-0.99-0.33-1.98-0.66-3-1l-2 1c-0.12-0.8-0.25-1.61-0.38-2.44-0.2-0.84-0.41-1.69-0.62-2.56l-2-1 1-2-2-1 2-3-3 3-2-1 5-6-4 4-2-1v-1l-2-1v-1l-2-1c0.99-1.32 1.98-2.64 3-4l-2-1 1-2h-2c-0.12-0.95-0.25-1.9-0.38-2.88-0.34-3.21-0.34-3.21-2.62-5.12-0.99-1.49-0.99-1.49-2-3l1-3-2-1 2-3h2v-2l2 1c3.28-0.75 3.28-0.75 5-4-0.74 0.1-1.49 0.21-2.25 0.31-2.75-0.31-2.75-0.31-5.06-2.69-1.69-2.62-1.69-2.62-1.69-4.62h2v-2l-5-1c1.19-3.38 2.28-5.65 5-8h-2v-2l-2-1h2c-0.47-0.58-0.95-1.15-1.44-1.75-1.55-2.23-2.07-3.62-2.56-6.25-0.23-0.66-0.45-1.32-0.69-2-0.41-2.63 0.43-3.69 1.69-6 0.38-1.66 0.72-3.32 1-5l-2-1h2c0.14-0.62 0.29-1.24 0.44-1.88 0.56-2.12 0.56-2.12 1.56-4.12l-2-2c-0.12-3.12-0.12-3.12 0-6 0.99-0.33 1.98-0.66 3-1 3.64-5.35 5.62-10.1 4.56-16.8-0.18-0.74-0.37-1.49-0.56-2.25v-3c-1.71-2.77-1.71-2.77-3-4-0.04-2-0.04-4 0-6h-2v-2c-0.56-0.06-1.11-0.12-1.69-0.19-3.34-1.17-5.03-3.15-7.31-5.81-0.34-1.33-0.68-2.66-1-4-2.15-1.38-3.44-2-6-2h-2v-2c-0.99-0.33-1.98-0.66-3-1l-1 1h-2v-2l-2-1-2-2-4 2-2-4h-10v-2h-4c-1.58-3.16-0.98-5.75 0-9l1-1-2-2v-3l-2-3-1-2-1-1c-0.62-2.5-0.62-2.5-1-5l1-1c0.5-1.49 0.5-1.49 1-3l-5-1v-3l-3-2h2v-2h-2l-2-4h2c2.52-3.78 2.47-7.62 2-12-0.92-2.25-0.92-2.25-2-4 0-3 0-3 2-5 0.24-2.9 0.24-2.9 0.12-6.12-0.01-1.1-0.03-2.2-0.05-3.33-0.02-0.84-0.05-1.68-0.07-2.55-0.99 0.33-1.98 0.66-3 1-3.55-2.37-4.46-4.06-6-8 0.06-2.75 0.06-2.75 1-5 2.06-1.31 2.06-1.31 4-2v-2c-0.99-0.5-0.99-0.5-2-1h2l-2-2v-3c-0.58 0.14-1.15 0.29-1.75 0.44-2.08 0.52-4.17 1.04-6.25 1.56l1 4c-0.99 0.5-0.99 0.5-2 1l-1-8h3v-3-2h-2c-0.12-0.68-0.24-1.35-0.37-2.05-0.16-0.89-0.33-1.78-0.51-2.7-0.16-0.88-0.32-1.76-0.49-2.67-0.6-2.48-1.29-4.42-2.63-6.58-1.33-0.34-2.66-0.68-4-1-1.03-1.31-2.04-2.64-3-4h-2l-2-4-2 1c-0.06-0.72-0.12-1.44-0.19-2.19-1.05-3.66-3.02-5.3-5.81-7.81l1-3h6v-2c-0.99 0.33-1.98 0.66-3 1v-2h2v-2l-2-1h2l1-4-2-1c2.49-1.25 3.41-0.78 6 0z" fill="#4FA852"/>
<path transform="translate(1274 1303)" d="m0 0h2.9c3.13 0 6.26 0.02 9.39 0.04 2.16 0.01 4.33 0.02 6.49 0.03 6.52 0.03 13 0.09 19.6 0.16 1.45 0.01 1.45 0.01 2.94 0.03 5.26 0.05 10.5 0.13 15.8 0.24 1.57 0.03 3.14 0.05 4.71 0.08 15.8 0.24 31.7 2.05 44.6 12.2 8.23 8.77 11.4 20 11.2 31.7-0.5 9.23-5.21 15.8-11.2 22.7-2.62 2.3-5.28 4.4-8.1 6.44-0.63 0.52-1.25 1.03-1.9 1.56v2c1.61 0.65 1.61 0.65 3.25 1.32 14.5 6.01 14.5 6.01 19.8 11.7v2h2c0.94 1.71 1.87 3.42 2.81 5.13 0.52 0.95 1.04 1.9 1.58 2.88 0.53 0.99 1.06 1.97 1.61 2.99 0.54 0.97 1.09 1.94 1.65 2.94 3.56 8.09 3.36 19.3 0.45 27.6-4.35 10.5-11.3 18.4-20.1 25.4-0.76 0.65-1.52 1.3-2.3 1.97-3.06 2.3-6.24 3.99-9.7 5.59-0.66 0.31-1.31 0.61-1.99 0.92-11.6 5.2-24 6.7-36.6 6.63h-2.46c-2.65 0-5.29 0-7.94-0.01-1.85 0-3.69-0.01-5.54-0.01-4.84 0-9.68-0.01-14.5-0.02-4.94-0.01-9.89-0.02-14.8-0.02-9.69-0.01-19.4-0.03-29.1-0.05-1.02-3.14-1.04-4.88-0.17-8.1 3.18-4.25 6.86-4.94 11.9-6.27 0.89-0.26 1.78-0.52 2.7-0.79 2.2-0.63 4.4-1.25 6.61-1.84 0.09-17.9 0.16-35.9 0.2-53.8 0.03-8.33 0.05-16.7 0.1-25 0.04-7.26 0.07-14.5 0.07-21.8 0.01-3.85 0.02-7.69 0.05-11.5 0.03-3.61 0.04-7.23 0.03-10.8 0-1.96 0.02-3.92 0.05-5.89-0.01-1.16-0.02-2.33-0.02-3.53 0-1.01 0.01-2.03 0.01-3.08-0.27-2.64-0.27-2.64-2.32-4.3-5.1-2.87-10.5-3.48-16.2-3.88-1.92-0.34-1.92-0.34-3.92-2.34 0.06-2.09 0.06-2.09 0.56-4.5 0.15-0.79 0.29-1.59 0.44-2.41 1-2.09 1-2.09 2.96-3.21 4.26-1.23 8.27-1.14 12.7-1.11z" fill="#CAC9C1"/>
<path transform="translate(870 1367)" d="m0 0c8.51 2.79 17.2 2.53 25.6-0.13 2.94-1.48 2.94-1.48 5-3 1.88 3.76 1.51 7.9 1 12-1.11 3.26-2.47 5.64-5 8-5.33 2.43-11.3 2.21-17 2 0.14 0.78 0.29 1.57 0.44 2.38 2.14 12.1 2.02 22.7-4.44 33.6-0.62 1.07-1.24 2.14-1.88 3.25-10 13.5-25.6 18.4-41.5 20.8-3.52 0.53-5.59 0.98-8.6 2.99-1.09 1.84-1.09 1.84-1 4 2.75 3.74 5.62 4.78 10 6 2.26 0.22 4.54 0.35 6.81 0.43 7.42 0.36 14.8 1.13 22.1 2 1.05 0.13 2.1 0.25 3.19 0.38 21.4 2.59 21.4 2.59 28.7 11.4 5.12 7.37 7.44 14.8 7.17 23.8-2.08 10.4-6.1 19.8-14 27-0.67 0.71-1.34 1.42-2.04 2.16-3.98 4.2-7.49 7.59-12.8 9.88-2.5 1.12-4.73 2.54-7.07 3.96-15.7 8.5-35.4 9.49-52.5 4.9-11.4-3.48-21-9.8-27-20.4-2.92-6.49-4.27-13.1-1.74-19.9 4.67-9.12 12.2-14.6 20.4-20.2 3.38-2.19 3.38-2.19 5.71-5.37-1.05-0.37-1.05-0.37-2.13-0.75-6.65-2.9-11-6.53-13.9-13.2-0.16-3.93 0.54-5.41 2.94-8.5 3.4-2.78 6.93-4.92 10.8-7.07 2.11-1.31 3.65-2.6 5.31-4.43h-2l-3-3c-0.91-0.6-1.82-1.2-2.75-1.82-9.54-6.41-14.9-13.7-17.7-25.1-1.76-11.3 0.57-21.4 6.25-31.2 0.72-0.95 1.44-1.9 2.19-2.87 0.46-0.64 0.91-1.28 1.39-1.93 17-21.8 49.7-20.6 73-11.9z" fill="#515052"/>
<path transform="translate(1132 1317)" d="m0 0c1.17 0.01 2.33 0.02 3.54 0.03 16.5 0.29 32.6 4.23 46 14.4v2c0.56 0.21 1.12 0.43 1.7 0.65 10.1 5.87 17.7 20.2 20.6 31 5.62 22.2 4.84 48.6-5.31 69.4-2.12 3.52-4.45 6.77-7 10-0.47 0.63-0.94 1.27-1.43 1.92-7.6 9.68-18.6 15-30.6 17.1-4.21 0.24-8.41 0.23-12.6 0.24-1.69 0.04-1.69 0.04-3.42 0.07-10.5 0.05-19.7-0.98-27.4-8.56-5.65-6.52-4.67-16.4-4.67-24.6 0-1.07 0-2.14-0.01-3.24 0-3.51-0.01-7.03-0.01-10.6 0-2.45 0-4.91-0.01-7.36 0-5.14-0.01-10.3-0.01-15.4 0-6.57-0.01-13.2-0.03-19.7-0.01-5.07-0.01-10.1-0.01-15.2 0-2.42 0-4.84-0.01-7.26-0.01-3.4-0.01-6.8 0-10.2-0.01-0.99-0.01-1.98-0.02-3 0.03-6.16 0.32-12.3 2.26-18.2 4.93-4.43 12.2-3.46 18.5-3.38z" fill="#FCFEFE"/>
<path transform="translate(1019 1373)" d="m0 0c11.6 9.3 17.2 23.6 18.8 38.1 1.77 19.3-3 35.7-15.5 50.8-9.03 10.3-24.9 17.2-38.4 18.2-15.4 0.82-28.1-1.43-41.6-9.17-0.61-0.32-1.22-0.64-1.85-0.97-10.6-6.4-15.9-19.8-19.2-31-0.24-0.75-0.49-1.51-0.74-2.28-4.11-14.6-1.27-31.2 5.43-44.5 8.94-15.1 23.5-24.7 40.3-29.2 18.9-4.5 37-1.34 52.7 10.2z" fill="#515052"/>
<path transform="translate(583,1373)" d="m0 0c2.69 2.44 2.69 2.44 5 5 0.47 0.47 0.94 0.93 1.42 1.41 10.6 11.1 14 27.3 13.6 42.2-0.4 8.22-2.05 15.7-5.04 23.4-0.26 0.71-0.53 1.42-0.8 2.16-4.3 9.94-12.8 18.8-22.2 23.8-0.83 0.45-1.65 0.9-2.5 1.36-15.1 7.82-32.4 10.8-49.1 6.15-9.28-2.94-18-7.02-24.4-14.5-0.54-0.59-1.08-1.18-1.64-1.79-12-14-14.6-32.4-13.4-50.2 1.71-13.2 8.5-26.9 18.8-35.4 22.8-17 56.7-22.8 80.2-3.61z" fill="#515052"/>
<path transform="translate(775,63)" d="m0 0h2c2.68 5.23 5.08 10.5 7.25 15.9 2.47 6.09 5.08 12.1 7.87 18.1 0.32 0.67 0.63 1.34 0.95 2.03 3.92 8.26 8.53 16.1 13.3 23.9 0.47 0.78 0.95 1.56 1.44 2.37 3.09 5.01 6.28 9.89 9.74 14.6 1.44 2.04 1.44 2.04 2.99 4.66 1.79 2.94 3.98 4.97 6.45 7.38 1.34 1.49 2.67 2.99 4 4.5 2.22 2.52 4.44 4.94 6.81 7.31 1.96 1.96 3.6 3.93 5.19 6.19h-2c1.12 3.73 1.12 3.73 4 6 1.21 2.06 1.97 3.86 2.5 6.19 0.16 0.6 0.33 1.19 0.5 1.81l2 1c0.29 0.8 0.58 1.61 0.88 2.44 0.83 2.67 0.83 2.67 2.95 3.43 2.81 1.46 4.09 3.29 5.98 5.82 3.07 3.98 6.26 7.52 9.94 10.9 1.25 1.38 1.25 1.38 1.25 3.38l2 1c3.85 4 7.13 8.48 10.4 13 2.26 2.91 4.75 5.6 7.27 8.29 1.32 1.76 1.32 1.76 1.32 4.76 1.49 0.99 1.49 0.99 3 2 0.37 2.33 0.7 4.66 1 7l2 1c1.4 3.63 1.1 7.41 1.06 11.2-0.01 1.26-0.02 2.53-0.02 3.83-0.02 0.96-0.03 1.93-0.04 2.92h-2c0.35 0.62 0.7 1.24 1.06 1.88 0.31 0.7 0.62 1.4 0.94 2.12-1.39 2.78-3.16 2.98-6 4-0.5-2.48-0.5-2.48-1-5-0.8 0.23-1.59 0.45-2.41 0.68-4.86 0.43-8.44-0.97-13-2.62-0.83-0.29-1.66-0.58-2.51-0.88-2.04-0.71-4.08-1.45-6.11-2.18v-2h-2v-2c-0.64-0.12-1.28-0.24-1.93-0.37-0.83-0.16-1.66-0.33-2.51-0.51-0.82-0.16-1.64-0.32-2.49-0.49-0.69-0.21-1.37-0.41-2.07-0.63l-1-2c-2.13-0.47-2.13-0.47-4.56-0.62-1.24-0.12-1.24-0.12-2.51-0.23-0.63-0.05-1.27-0.1-1.93-0.15l1 3-2 2 1 2c-1.98 0.33-3.96 0.66-6 1l2 1v2c-1.79 0.67-3.58 1.34-5.38 2-0.99 0.37-1.99 0.74-3.02 1.12-2.6 0.88-2.6 0.88-4.6 0.88 1.05 1.33 1.05 1.33 2.12 2.69 0.62 1.09 1.24 2.18 1.88 3.31-0.94 2.62-0.94 2.62-2 5 1.36 2.04 1.36 2.04 3 4 0.19 2.75 0.19 2.75 0 5-2.81 1.12-2.81 1.12-6 2l-3-2v-2c-3-1.33-3-1.33-6 0 0-3.79 0.43-7.27 1-11-0.99 0.33-1.98 0.66-3 1-3.22 0-4.18-0.34-6.62-2.31-1.38-1.69-1.38-1.69-1.38-5.69l1-3-2-2 2-2v-3h-4v6h-6c0.46 1.7 0.46 1.7 0.94 3.44 0.42 3.07 0.24 4.26-1.4 6.95-1.25 1.55-2.54 3.06-3.88 4.53-1.7 2.13-2.32 3.4-2.66 6.08 0.16 0.82 0.33 1.65 0.5 2.5 0.52 2.6 0.33 4.02-0.5 6.5l2 1c-0.19 0.89-0.37 1.77-0.56 2.69-0.42 3.16-0.25 5.26 0.56 8.31-1.49 0.99-1.49 0.99-3 2-0.51 2.4-0.51 2.4-0.56 5.06-0.13 2.73-0.13 2.73-0.44 4.94l-2 1c-0.82-14.7-1.03-29.3-0.95-44 0.11-21-0.29-42.1-0.92-63.1-0.07-2.3-0.13-4.59-0.2-6.89l-0.33-10.9c-0.06-2-0.12-3.99-0.18-5.99-0.23-7.23-0.23-7.23-0.93-14.4-0.54-4.02-0.71-7.96-0.81-12-0.02-0.79-0.04-1.57-0.06-2.37-0.07-2.53-0.12-5.06-0.18-7.58-0.02-0.86-0.04-1.72-0.07-2.61-0.37-15-0.5-30-0.37-45.1h-2l-1-17h-2c-0.1-0.95-0.21-1.9-0.31-2.88-0.38-3.41-0.38-3.41-3.69-5.12-3.02-5.74-1.74-11.8-1-18z" fill="#4AA451"/>
<path transform="translate(359 1366)" d="m0 0c4.61 3.29 8.25 7.19 11.7 11.6 4.13-1.48 7.61-3.52 11.3-5.87 11.2-6.98 22.8-13.2 36.4-10.6 9.42 2.26 16.9 6.29 22.3 14.5 5.92 11 7.33 20.8 7.63 33.1 0.04 1.35 0.08 2.71 0.12 4.07 0.2 7.21 0.27 14.4 0.17 21.6-0.01 0.7-0.02 1.41-0.03 2.14-0.03 3.41-0.09 6.81-0.19 10.2-0.02 1.23-0.04 2.45-0.05 3.71-0.03 1.08-0.06 2.16-0.09 3.26 0.55 3.68 1.87 5.28 4.44 7.92 3.04 1.79 5.91 2.97 9.25 4.07 2.75 0.93 2.75 0.93 4.75 2.93 0.19 3.57 0.19 3.57 0 7-1.7 1.71-3.89 1.13-6.22 1.13-1.12 0.01-2.23 0.01-3.38 0.01h-3.68-3.74c-3.3 0-6.6 0-9.89-0.01h-6.07c-3.87 0.01-7.74 0.01-11.6 0.01h-3.67c-1.68 0-1.68 0-3.39-0.01h-2.99c-2.36-0.13-2.36-0.13-4.36-1.13 0.19-3.31 0.19-3.31 1-7 2.87-2.5 6.12-3.4 9.69-4.57 0.81-0.27 1.61-0.54 2.45-0.81 0.61-0.21 1.23-0.41 1.86-0.62 0.09-7.91 0.16-15.8 0.21-23.7 0.02-3.67 0.05-7.35 0.09-11 0.05-3.56 0.07-7.11 0.08-10.7 0.01-2 0.04-4 0.07-6 0.01-7.74-0.92-13.7-4.45-20.6-0.34-0.72-0.67-1.45-1.02-2.2-1.29-2.36-2.53-2.75-4.98-3.8-0.7-0.51-1.4-1.03-2.12-1.56-7.21-3.6-14.4-2.57-22-0.47-4.46 1.58-9.5 3.63-12.9 7.03-0.12 2.21-0.18 4.42-0.2 6.64-0.01 0.69-0.02 1.38-0.03 2.09-0.04 2.3-0.06 4.6-0.09 6.9l-0.06 4.77c-0.05 4.2-0.1 8.39-0.15 12.6-0.05 4.27-0.11 8.55-0.16 12.8-0.11 8.39-0.21 16.8-0.31 25.2 4.28 2.23 8.69 3.41 13.3 4.71 2.68 1.29 2.68 1.29 4.11 3.62 0.63 2.95 0.24 4.77-0.43 7.67-6.49 0.17-13 0.33-19.5 0.49-2.2 0.05-4.4 0.11-6.61 0.16-3.18 0.09-6.37 0.16-9.55 0.23-0.98 0.03-1.95 0.06-2.95 0.09-6.5 0.13-13 0.02-19.4-0.97-1-1-1-1-1.25-3.87 0.25-3.13 0.25-3.13 1.39-4.68 2.48-1.93 4.94-2.69 7.92-3.63 1.07-0.35 2.13-0.69 3.23-1.05 2.71-0.77 2.71-0.77 4.71-0.77 0.07-7.92 0.12-15.8 0.16-23.8 0.01-3.68 0.03-7.37 0.07-11 0.03-3.56 0.05-7.12 0.06-10.7 0-2 0.03-4.01 0.05-6.01 0-10-1.28-17.9-7.68-25.8-2.63-2.63-5.1-3.63-8.66-4.66-0.63-0.18-1.27-0.37-1.92-0.56-8.56-1.78-18.2 2.22-25.4 6.55-2.84 1.91-2.84 1.91-4.67 5.01-1.73 12.4-1.22 25.4-1.24 37.9-0.01 3.35-0.04 6.71-0.07 10.1-0.01 2.14-0.01 4.29-0.02 6.43-0.01 1-0.02 1.99-0.04 3.02 0.01 6.81 0.01 6.81 3.37 12.6 2.09 1.4 2.09 1.4 4.44 2.25 1.14 0.48 1.14 0.48 2.31 0.96 2.07 0.73 4.11 1.31 6.25 1.79 0.76 3.74 1.07 6.35 0 10-7.4 0.05-14.8 0.09-22.2 0.11-3.44 0.01-6.87 0.02-10.3 0.05-3.94 0.02-7.89 0.03-11.8 0.04-1.23 0.01-2.47 0.02-3.74 0.03h-3.46c-1.01 0.01-2.02 0.01-3.06 0.02-2.4-0.25-2.4-0.25-4.4-2.25 0.21-2.67 0.55-4.42 2.21-6.55 2.32-1.87 4.4-2.36 7.29-3.07 0.96-0.24 1.92-0.48 2.91-0.73 0.85-0.21 1.71-0.42 2.59-0.65 1.49-0.49 1.49-0.49 3-1 0.21-9.52 0.37-19 0.47-28.6 0.04-4.42 0.11-8.85 0.21-13.3 0.1-4.27 0.15-8.55 0.17-12.8 0.02-1.63 0.05-3.25 0.1-4.88 0.52-9.01 0.52-9.01-2.91-17-2.27-1.81-4.44-3.17-7.04-4.47-1.01-0.58-2.02-1.17-3.07-1.77-1.23-0.58-1.23-0.58-2.49-1.16-0.85-0.4-1.7-0.8-2.57-1.22-0.62-0.28-1.23-0.56-1.87-0.85l1-4c9.37-2.78 18.8-5.31 28.2-7.81 1.22-0.32 2.43-0.65 3.68-0.99 1.14-0.3 2.28-0.59 3.46-0.9 1.03-0.28 2.06-0.55 3.13-0.83 2.48-0.47 2.48-0.47 4.48 0.53 0.31 2.55 0.51 5.01 0.63 7.57 0.05 1.06 0.05 1.06 0.11 2.15 0.1 1.76 0.18 3.52 0.26 5.28 0.97-0.59 1.93-1.18 2.93-1.79 35.1-21.4 35.1-21.4 54.3-9.85z" fill="#515052"/>
<path transform="translate(782,1014)" d="m0 0h4c1.44 5.88 2.33 11.6 2.81 17.6 0.71 7.63 2 15 3.63 22.5 0.2 0.95 0.41 1.9 0.62 2.87 1.31 5.81 2.98 11.4 4.94 17l1.44 4.5c4.33 12.9 10.6 25.2 21.8 33.3 0.55 0.41 1.11 0.82 1.68 1.23 1.35 1 2.71 1.98 4.07 2.96-0.62 3.55-2.1 5.72-4.19 8.62-7.95 12.2-11.4 27.5-12.6 41.9-0.19 1.87-0.44 3.74-0.73 5.6-0.58 4.39-0.86 8.72-1.06 13.1-0.06 1.41-0.06 1.41-0.12 2.84-0.37 9-0.49 18-0.59 27 0 0.74-0.01 1.49-0.02 2.26-0.08 7.01-0.15 14-0.21 21-0.03 3.88-0.07 7.75-0.12 11.6-0.01 1.46-0.03 2.92-0.03 4.39-0.02 2.02-0.04 4.05-0.07 6.08-0.01 1.15-0.02 2.29-0.03 3.48-0.27 3.07-0.97 5.29-2.27 8.07-6.3-0.58-11.9-2.03-17.9-4-1.29-0.41-1.29-0.41-2.61-0.83-6.31-2.03-6.31-2.03-7.45-3.17-0.17-1.37-0.27-2.75-0.34-4.14-0.05-0.88-0.1-1.77-0.15-2.68-0.06-0.97-0.11-1.94-0.16-2.94-0.12-2.08-0.23-4.15-0.35-6.23-0.06-1.09-0.12-2.19-0.19-3.31-1.94-34.7-4.6-68.7-13.4-102-0.23-0.89-0.46-1.78-0.7-2.7-0.44-1.72-0.91-3.43-1.4-5.14-0.58-2.17-1.08-4.21-1.27-6.45 1.19-1.97 1.19-1.97 3-4 1.2-3.1 2.05-6.3 2.94-9.5 0.26-0.93 0.52-1.86 0.79-2.82 2.36-8.65 4.16-17.4 5.79-26.2 0.49-2.58 1.01-5.15 1.54-7.72 3.61-16.1 3.61-16.1 4.9-32.5-0.05-5.04 0.72-9.92 1.48-14.9 0.13-0.92 0.27-1.84 0.41-2.78 0.67-4.54 1.38-9.07 2.15-13.6z" fill="#C9C8C0"/>
<path transform="translate(729 1367)" d="m0 0c9.22 6.65 13.5 16.3 15.9 27.3 2.02 13.4 1.57 26.9 1.48 40.5-0.02 2.58-0.02 5.16-0.03 7.74-0.02 6.28-0.06 12.6-0.1 18.8 4.46 1.83 8.89 3.01 13.6 4.12 2.43 0.88 2.43 0.88 4.43 3.88-0.02 2.48-0.02 2.48-0.37 5.19-0.12 0.9-0.23 1.8-0.34 2.73-0.1 0.69-0.19 1.37-0.29 2.08-7.53 0.05-15.1 0.08-22.6 0.11-3.5 0.01-6.99 0.02-10.5 0.04-4.01 0.03-8.03 0.04-12 0.05-1.88 0.01-1.88 0.01-3.81 0.03h-3.52c-1.02 0-2.05 0.01-3.11 0.01-2.44-0.24-2.44-0.24-4.44-2.24 0.23-7.26 0.23-7.26 2.73-9.65 2.46-1.46 4.69-2.23 7.46-2.97 3.18-0.68 3.18-0.68 5.81-2.38 0.1-1.63 0.14-3.26 0.15-4.89 0-1.05 0.01-2.09 0.01-3.17 0.01-1.14 0.01-2.28 0.01-3.46 0-1.17 0-2.34 0.01-3.55 0-2.49 0.01-4.98 0.01-7.47 0-3.78 0.02-7.56 0.03-11.3 0.01-2.42 0.01-4.85 0.01-7.27 0.01-1.68 0.01-1.68 0.02-3.39-0.03-10.9-0.56-21.1-8.25-29.5-5.85-4.62-11.5-6.87-19-6-10.6 2.12-10.6 2.12-19.2 7.69-0.27 0.76-0.53 1.53-0.81 2.31-0.37 0.97-0.74 1.94-1.13 2.94-2.5 9.19-0.8 20-0.37 29.4 0.54 12.6 0.61 25.1 0.5 37.7 1.43 0.49 2.85 0.98 4.28 1.47 0.8 0.27 1.59 0.54 2.41 0.82 2.48 0.82 2.48 0.82 5.81 1.28 0.83 0.14 1.65 0.28 2.5 0.43 1.25 2.5 1.13 4.28 1.13 7.07v2.72c-0.13 2.21-0.13 2.21-1.13 3.21-1.77 0.11-3.54 0.14-5.31 0.15-1.14 0-2.27 0.01-3.44 0.02h-3.75c-1.26 0-2.51 0.01-3.81 0.01-2.67 0.01-5.34 0.01-8.01 0.01-3.42 0-6.85 0.01-10.3 0.03-3.26 0.01-6.52 0.01-9.78 0.01-1.23 0.01-2.47 0.02-3.74 0.02h-3.45-3.04c-2.4-0.25-2.4-0.25-4.4-2.25-0.54-5.68-0.54-5.68 0-8 2.75-2.67 5.53-3.64 9.19-4.62 3.18-0.68 3.18-0.68 5.81-2.38 2.09-15.6 2.1-31.5 2.18-47.3 0-1.46 0.01-2.92 0.03-4.39 0.02-2.07 0.02-4.15 0.02-6.22 0-1.2 0.01-2.4 0.01-3.64-0.3-4.38-0.93-8.68-3.58-12.3-4.46-3.64-9.03-5.84-14.4-7.9-2.26-1.28-2.26-1.28-3.08-3.43-0.06-0.61-0.12-1.22-0.18-1.85 3.74-3.46 7.98-4.3 12.8-5.51 0.85-0.22 1.7-0.44 2.58-0.67 1.79-0.46 3.59-0.92 5.38-1.37 2.75-0.7 5.5-1.41 8.24-2.13 1.75-0.44 3.49-0.89 5.24-1.33 1.23-0.32 1.23-0.32 2.48-0.65 0.77-0.19 1.54-0.38 2.33-0.58 1.01-0.26 1.01-0.26 2.04-0.52 1.93-0.24 1.93-0.24 5.93 0.76v14c4.72-2.59 9.37-5.21 13.9-8.06 14.4-8.72 29.9-11.4 44.8-2.25z" fill="#505051"/>
<path transform="translate(530,499)" d="m0 0c-0.14 1.48-0.29 2.96-0.44 4.44-0.08 0.82-0.16 1.64-0.24 2.49-0.32 2.07-0.32 2.07-1.32 3.07l3 2c0.43 1.97 0.43 1.97 0.51 4.35 0.05 1.28 0.05 1.28 0.11 2.58 0.02 0.89 0.04 1.78 0.07 2.69 0.05 1.35 0.05 1.35 0.1 2.72 0.08 2.22 0.15 4.44 0.21 6.66h-2c-0.12 1.24-0.25 2.48-0.38 3.75-0.41 3.82-1.01 7.59-1.68 11.4-1.05 6.18-1.43 11.7 0.06 17.9h-2c0.21 0.54 0.41 1.07 0.62 1.62 0.38 2.38 0.38 2.38-0.57 4.99-1.27 4.1-1.38 7.81-1.49 12.1-0.24 6.31-0.89 12-2.84 18-1.63 5.1-1.63 5.1-0.72 10.3v6l2 2c-0.5 0.99-0.5 0.99-1 2 0.45 0.7 0.91 1.4 1.38 2.12 3.32 5.88 2.69 11.4 1.62 17.9v3.31c0 2.69 0 2.69-1 4.69 0.11 5.62 0.66 11.2 2.12 16.6 0.88 3.38 0.88 3.38-0.12 5.38h-2c0.51 6.11 0.51 6.11 2 12 1.49 0.99 1.49 0.99 3 2 0.29 2.38 0.29 2.38 0.19 5.12-0.03 0.92-0.06 1.83-0.08 2.76-0.04 0.7-0.07 1.4-0.11 2.12h-3c1.05 1.16 1.05 1.16 3 2-0.02 1.13-0.04 2.27-0.06 3.44-0.01 3 0.18 5.89 0.56 8.87 0.44 3.5 0.51 6.86 0.44 10.4-0.06 4.22 0.58 7.33 2.06 11.3 0.12 3.38 0.12 3.38 0 6h2c5.3 14.7 5.3 14.7 5.06 22.1-0.34 3.13-0.34 3.13 1.94 5.94 0.14 0.93 0.29 1.86 0.44 2.81 0.62 3.51 1.95 6.04 3.56 9.19v3l2 1-1 2h2v3l2 2c0.38 2.33 0.71 4.66 1 7 0.78 3.07 0.78 3.07 3 5h-2c0.27 2.93 0.27 2.93 1 6l3 2-1 2 2 3c1.82 3.13 2 4.16 2 8l-1 2 2 1-2 3h2c0.29 0.64 0.58 1.28 0.88 1.94 0.95 2.21 0.95 2.21 3.12 3.06l1 2c0.99 0.33 1.98 0.66 3 1 0.2 3.72 0.15 4.77-2 8l2 1c0.73 2.31 1.4 4.65 2 7h2v2l-2 1c0.95 0.64 1.9 1.28 2.88 1.94 3.97 3.27 4.58 7.11 5.12 12.1v3h2l-1 3 5 1c-0.21 0.76-0.41 1.53-0.62 2.31-0.71 2.91-0.71 2.91 1.62 5.69-0.38 3.19-0.38 3.19-1 6l4 2v2l4 2c-0.21 0.52-0.41 1.03-0.62 1.56-0.53 3.44 0.66 6.13 1.62 9.44l-1 3h2v3l4 1c0.31 1.09 0.62 2.19 0.94 3.31 0.64 2.24 1.32 4.48 2.06 6.69l-1 2c0.6 0.21 1.2 0.41 1.81 0.62 3.08 1.94 3.88 4.03 5.19 7.38 0.19 2.88 0.19 2.88 0 5l2 1c-0.61 3.56-1.58 6.68-3 10l-4-2c2.65 7.5 2.65 7.5 8 13l-1 4c-2.62-0.36-3.75-0.71-5.52-2.73-0.47-0.74-0.95-1.48-1.43-2.25-0.54-0.83-1.07-1.66-1.62-2.51-0.55-0.89-1.11-1.78-1.68-2.7-0.58-0.9-1.15-1.81-1.74-2.74-3.98-6.29-7.75-12.7-11.4-19.2-1.36-2.41-2.76-4.76-4.25-7.09-5.71-8.98-10.3-18.6-14.9-28.2-0.97-2.01-1.93-4.01-2.9-6.02-11.2-23.2-11.2-23.2-14.5-32.2-0.24-0.67-0.48-1.33-0.73-2.01-0.52-1.4-1.03-2.81-1.54-4.21-0.8-2.19-1.62-4.38-2.44-6.56-1.83-4.85-3.59-9.72-5.35-14.6-0.46-1.26-0.46-1.26-0.93-2.54-13.7-37.8-26.2-83.1-26.1-123-0.31-2.34-0.64-4.67-1-7-0.76-8.47-1.11-16.9-0.94-25.4 0.06-2.72 0.06-2.72-1.06-5.61-0.09-1.71-0.13-3.43-0.13-5.15 0-1-0.01-2.01-0.01-3.05 0.01-1.04 0.01-2.09 0.02-3.18-0.01-1.04-0.01-2.08-0.02-3.15 0-1.01 0.01-2.02 0.01-3.06v-2.78c0.13-2.64 0.61-5.05 1.13-7.63-0.02-2.13-0.05-4.25-0.12-6.38-1.01-38.4 5.84-77.5 12.8-115 0.15-0.83 0.3-1.65 0.45-2.5 0.43-2.32 0.87-4.63 1.31-6.94 0.13-0.7 0.25-1.4 0.38-2.11 0.33-1.65 0.74-3.27 1.17-4.89 2-1 2-1 4-1z" fill="#48A04C"/>
<path transform="translate(557,1380)" d="m0 0v2c0.6 0.27 1.2 0.54 1.82 0.82 8.33 4.5 12.1 15 15 23.5 4 14.8 4.97 36-2.79 49.7-4.39 5.97-9.86 9.2-17 11-8.23 1.13-16.6-0.64-23.6-5.06-0.79-0.64-1.57-1.28-2.38-1.94v-2c-0.56-0.21-1.11-0.41-1.69-0.62-8.03-4.78-11.7-14.7-14.1-23.3-3.84-15.3-4.19-32.6 2.96-47.1 4.46-7.12 10.8-10.8 18.9-12.7 8.39-0.97 15.8 1.52 22.9 5.66z" fill="#FCFEFE"/>
<path transform="translate(991 1379)" d="m0 0c11.5 9.6 17.8 21.8 19.9 36.6 0.28 3.97 0.33 7.91 0.31 11.9 0 1.05-0.01 2.11-0.01 3.2-0.14 9.81-0.75 19.1-7.3 26.9-0.41 0.52-0.82 1.05-1.24 1.58-4.07 4.72-8.65 6.56-14.8 7.42-10.4 0.19-18.4-1.79-26.1-9.06-0.78-0.73-0.78-0.73-1.58-1.48-11.6-11.3-15.2-26.8-15.6-42.6 0.15-10.6 1.65-19.7 7.19-28.8 0.53-0.93 1.07-1.85 1.62-2.81 10.2-9.37 26-10.6 37.5-2.75z" fill="#FCFEFE"/>
<path transform="translate(1360 1398)" d="m0 0c7.3 5.72 13.4 13.8 14.6 23.2 0.12 2.4 0.13 4.77 0.1 7.16 0.01 0.8 0.02 1.59 0.03 2.41-0.04 8.31-2.17 16.8-8.13 22.9-9.33 8.63-18.3 9.45-30.6 9.5-1.67 0.04-1.67 0.04-3.37 0.07-7.19 0.03-12.2-0.4-18.2-4.72-7.06-7.81-6.38-19.2-6.31-29.2v-3.16c0.01-2.18 0.01-4.36 0.03-6.54 0.02-3.35 0.02-6.69 0.02-10 0-2.13 0.01-4.26 0.01-6.38 0.01-1 0.01-2.01 0.01-3.04 0-0.92 0.01-1.84 0.02-2.79 0-0.81 0-1.63 0.01-2.46 0.13-1.98 0.13-1.98 1.13-3.98 13.8-5.17 38.6-0.52 50.7 7.12z" fill="#FCFEFE"/>
<path transform="translate(849 1483)" d="m0 0c0.79 0.12 1.59 0.24 2.41 0.36 7.4 1.17 15 2.52 20.6 7.83 0.64 0.59 1.28 1.17 1.93 1.78 4.48 4.72 4.55 9.47 4.63 15.7-1.51 7.3-5.91 12.8-12 17-5.16 3.19-9.9 4.77-16 5-1.2 0.05-2.4 0.1-3.64 0.15-12.9 0.38-24.4-1.1-34.3-9.89-4.92-4.71-7.31-8.02-7.47-15 0.13-6.87 2.14-11 6.93-15.7 1.44-1.26 2.97-2.39 4.51-3.51 0.74-0.56 1.49-1.12 2.25-1.69 9.58-4.57 20-3.65 30.2-2z" fill="#FCFEFE"/>
<path transform="translate(1352 1325)" d="m0 0c1.07 0.97 1.07 0.97 2.16 1.96v2c0.99 0.33 1.98 0.66 3 1 3.3 4.53 5.66 9.37 6 15 0.05 0.74 0.1 1.47 0.15 2.24 0.35 8.83-1.36 16.4-7.16 23.2-5.85 4.62-11.3 6.16-18.6 5.96-1.18-0.01-1.18-0.01-2.38-0.02-2.49-0.02-4.97-0.07-7.46-0.12-1.7-0.02-3.4-0.04-5.09-0.06-4.14-0.04-8.27-0.11-12.4-0.19-1.24-2.49-1.13-4.17-1.15-6.96 0-1.54 0-1.54-0.01-3.12-0.01-1.12-0.01-2.24-0.01-3.39 0-1.14 0-2.29-0.01-3.47 0-2.42-0.01-4.84-0.01-7.27 0-3.71-0.02-7.43-0.03-11.1-0.01-2.35-0.01-4.7-0.01-7.06-0.01-1.11-0.01-2.23-0.02-3.38 0-1.03 0-2.06 0.01-3.13 0-0.91-0.01-1.82-0.01-2.76 0.25-2.32 0.25-2.32 2.25-5.32 13.6-4.46 29.3-2.26 40.8 6.04z" fill="#FCFEFE"/>
<path transform="translate(843 1375)" d="m0 0c7.21 5.41 12.5 11.9 14.3 20.8 1.44 10.4 1.47 20.7-4.11 29.8l-1.44 1.44h-2l-1 3c-3.41 2.44-6.79 2.3-10.9 2.32-1.2 0.01-2.39 0.03-3.62 0.05-6.19-0.64-11.3-3.84-15.5-8.37-7.08-9.32-8.72-18.6-7.49-30.1 0.71-4.15 1.93-7.99 3.49-11.9h2c0.23-0.6 0.45-1.19 0.69-1.81 1.93-3.22 4.56-4.64 8.11-5.75 5.72-1.13 11.8-1.11 17.4 0.5z" fill="#FCFEFE"/>
<path transform="translate(775,63)" d="m0 0h2c2.68 5.23 5.08 10.5 7.25 15.9 5.44 13.4 11.5 26.5 19.1 38.9 0.42 0.68 0.83 1.36 1.26 2.06 0.84 1.37 1.69 2.73 2.54 4.09 1.02 1.65 1.95 3.35 2.86 5.05l-1 2c-2.22-2.22-2.93-4.08-4-7l-2 4h2c0.27 1.11 0.54 2.23 0.81 3.38 0.85 3.84 0.85 3.84 4.19 5.62v2c-3.88-0.88-3.88-0.88-5-2-0.74 6.48-0.74 6.48 1.75 12.1 1.11 0.96 1.11 0.96 2.25 1.94 2.98 5.36 5 10.8 5 17h-2l1 4c-4.31 3.94-4.31 3.94-7.81 4.25-0.72-0.08-1.45-0.17-2.19-0.25v2c-0.62 0.06-1.24 0.12-1.88 0.19-0.7 0.27-1.4 0.53-2.12 0.81-0.7 1.65-1.37 3.32-2 5-1.49 0.5-1.49 0.5-3 1-2.17 4.02-2.6 8.34-3.12 12.8-0.09 0.7-0.18 1.39-0.27 2.1-0.21 1.7-0.41 3.39-0.61 5.09h-2c-0.03-0.82-0.05-1.64-0.08-2.49-0.11-3.73-0.23-7.47-0.36-11.2-0.04-1.29-0.08-2.58-0.12-3.92-0.04-1.24-0.08-2.49-0.12-3.78-0.04-1.14-0.08-2.29-0.11-3.47-0.13-3.04-0.13-3.04-0.71-5.55-0.68-3.54-0.74-7.07-0.82-10.7-0.02-0.79-0.04-1.57-0.06-2.38-0.07-2.56-0.12-5.12-0.18-7.67-0.02-0.87-0.04-1.74-0.07-2.63-0.36-15.1-0.5-30.2-0.37-45.2h-2l-1-17h-2c-0.1-0.95-0.21-1.9-0.31-2.88-0.38-3.41-0.38-3.41-3.69-5.12-3.02-5.74-1.74-11.8-1-18z" fill="#4EA752"/>
<path transform="translate(787,840)" d="m0 0h2v14h2c0.02 4.71 0.04 9.43 0.05 14.1 0.01 1.6 0.02 3.2 0.03 4.81 0.01 2.31 0.01 4.62 0.02 6.93 0 0.71 0.01 1.41 0.01 2.14 0 4.42-0.42 8.62-1.11 13-0.04 1.44-0.04 2.88 0 4.31 0.05 3.13-0.12 6.12-0.5 9.22-0.62 5.9-0.57 11.7-0.5 17.7 0.08 6.4 0.03 12.5-1 18.8-0.04 1.71-0.04 3.42 0 5.12 0.06 2.53 0.04 4.7-0.5 7.17-0.53 2.89-0.58 5.49-0.53 8.42 0.01 1.08 0.03 2.16 0.04 3.27 0.03 2.26 0.07 4.51 0.12 6.76 0.06 5.84-0.11 10.8-2.13 16.3h-2l-2 3h-2l-1-2h-3l-3-2-2 1c0.5-1.98 0.5-1.98 1-4h2v-3c-1.98-0.66-3.96-1.32-6-2 0.5-1.98 0.5-1.98 1-4h3l1 3h3v-9h-2c-0.5 1.98-0.5 1.98-1 4l-4-2c0.67-3.32 1.94-5.91 3.56-8.88 2.01-3.89 3.03-6.66 2.44-11.1 2.97-0.5 2.97-0.5 6-1-0.19-0.74-0.37-1.49-0.56-2.25-0.44-2.75-0.44-2.75 0.04-4.41 0.92-4.14 0.52-8.45 0.39-12.7-0.03-1.89 0.04-3.78 0.13-5.67l2-2c0.38-2.34 0.51-4.64 0.66-7 0.11-0.66 0.22-1.32 0.34-2 0.99-0.5 0.99-0.5 2-1h-2c-0.1-3.48 0.06-6.63 1-10 0.99-0.5 0.99-0.5 2-1 0.03-1.98 0.05-3.96 0.06-5.94 0.01-1.1 0.03-2.2 0.04-3.34 0.21-2.63 0.21-2.63-1.1-3.72-0.69-1.66-1.36-3.32-2-5 0.99-0.5 0.99-0.5 2-1-0.16-0.76-0.33-1.53-0.5-2.31-0.5-2.69-0.5-2.69-0.5-5.69-0.99 2.48-0.99 2.48-2 5h-2v5l-2-1c0.02-0.95 0.04-1.9 0.06-2.88 0.17-3.03 0.17-3.03-1.06-5.12 0.39-1.97 0.86-3.93 1.38-5.88 0.27-1.04 0.55-2.09 0.83-3.17 0.26-0.98 0.52-1.95 0.79-2.95 0.16-0.72 0.31-1.45 0.48-2.2 0.52-1.8 0.52-1.8 2.52-4.8l-2-1c0.33-0.76 0.66-1.53 1-2.31 1.17-2.68 1.17-2.68 1-5.69h2c-0.04-1.24-0.08-2.48-0.12-3.75-0.02-3.27 0.26-5.46 2.12-8.25z" fill="#4AA552"/>
<path transform="translate(720,749)" d="m0 0h5l1 4 5 1v-2c1.96 0.31 3.92 0.62 5.88 0.94 1.09 0.17 2.18 0.35 3.3 0.52 2.82 0.54 2.82 0.54 4.82 1.54 0.99-0.33 1.98-0.66 3-1v5l4-1c0.5 0.99 0.5 0.99 1 2l2-1v2c2.48 0.5 2.48 0.5 5 1l-1 5 5 3-3 3-3-2c-3.63 1.87-3.63 1.87-6 5 0.95 0.31 1.9 0.62 2.88 0.94 3.12 1.06 3.12 1.06 5.12 2.06 0.62 2.56 0.62 2.56 1 5l-4 3c-0.04-0.58-0.08-1.15-0.12-1.75-1.37-3.51-3.62-4.55-6.88-6.25-2.8 0.19-4.51 0.75-7 2l-1-2-5 4c-2.06-1.69-2.06-1.69-4-4 0.25-2.75 0.25-2.75 1-5-0.95-0.45-1.9-0.91-2.88-1.38-3.12-1.62-3.12-1.62-5.12-3.62v-3c-0.5-0.62-0.99-1.24-1.5-1.88-1.84-2.6-1.58-4.01-1.5-7.12l-2-2c-0.4-1.99-0.74-3.99-1-6z" fill="#4FA852"/>
<path transform="translate(789,342)" d="m0 0h1c0.05 9.21 0.08 18.4 0.1 27.6 0.01 4.27 0.03 8.54 0.05 12.8 0.02 4.12 0.03 8.25 0.04 12.4 0 1.57 0.01 3.15 0.02 4.72 0.02 2.21 0.02 4.41 0.02 6.61 0 1.26 0.01 2.51 0.01 3.8-0.24 3.06-0.24 3.06-2.24 6.06h-2c-3.56-9.62-3.23-19.6-2.25-29.7 0.27-3.56 0.25-7.05 0.19-10.6-0.06-5.35 0.62-9.57 2.06-14.7 0.04-2.33 0.05-4.67 0-7l1-1c0.21-1.47 0.37-2.95 0.5-4.44 0.39-4.34 0.39-4.34 1.5-6.56z" fill="#56AC54"/>
<path transform="translate(651,1020)" d="m0 0h2l1 3c1.02 0.99 1.02 0.99 2.06 2 1.94 2 1.94 2 1.94 5h3v2c0.6 0.06 1.2 0.12 1.81 0.19 2.19 0.81 2.19 0.81 3.42 2.98 2.27 3.63 5.13 6.09 8.33 8.89 6.72 5.89 6.72 5.89 8.44 9.94l1.88 0.94c2.85 1.43 4.19 3.55 6.12 6.06 0.99 0.49 0.99 0.49 2 1v2h2v2h2c2.12 1.88 2.12 1.88 4 4v2h2v2h2v2h2c2.12 1.88 2.12 1.88 4 4v2h2c1.69 1.64 1.69 1.64 3.56 3.81 0.62 0.71 1.24 1.42 1.88 2.15 1.56 2.04 1.56 2.04 2.56 5.04 1.32 0.68 2.66 1.35 4 2 1.37 1.29 2.71 2.62 4 4l-5-1v-2c-0.56-0.25-1.11-0.49-1.69-0.75-2.73-1.48-4.99-3.18-7.31-5.25v-2c-0.59-0.27-1.18-0.54-1.79-0.82-6.73-3.58-12.3-9.89-17.2-15.7-2.73-3.24-5.8-5.79-9.06-8.5-1.2-1.45-2.4-2.91-3.58-4.39-2.28-2.59-4.92-4.77-7.55-7-1.72-1.48-3.37-2.91-4.87-4.61v-2c-0.99-0.33-1.98-0.66-3-1-1.61-1.56-1.61-1.56-3.19-3.44-0.53-0.61-1.06-1.23-1.6-1.87-1.21-1.69-1.21-1.69-1.21-3.69h-2c-1.11-1.61-1.11-1.61-2.31-3.75-2.12-3.55-4.24-5.88-7.69-8.25l1-3z" fill="#489D4B"/>
<path transform="translate(733,1082)" d="m0 0c3 1 3 1 6 3l2 1-1 2 2 1c-0.99 1.48-0.99 1.48-2 3l2 1-1 2c2.48 0.49 2.48 0.49 5 1-0.99 1.48-0.99 1.48-2 3v4c-0.99 0.33-1.98 0.66-3 1l-1 6c-4.67-3.37-9.16-6.68-13-11v-2c-0.91-0.6-1.82-1.2-2.75-1.81-3.18-2.15-5.1-4.04-7.25-7.19v-2h-2l1-3c0.76 0.62 1.53 1.24 2.31 1.88 3.7 3.18 3.7 3.18 8.25 4.12h2.44l2 2 2-9z" fill="#4AA551"/>
<path transform="translate(1447,1433)" d="m0 0c6.38-0.66 10 1.04 15 5 4.99 5.12 7.16 10.4 7.44 17.4-0.21 6.26-1.78 10.7-6.09 15.3-5.49 4.98-10.2 6.82-17.7 6.62-5.86-0.8-10.8-3.1-14.6-7.64-3.1-4.58-5.22-8.03-5.26-13.6-0.01-0.86-0.03-1.72-0.04-2.61 0.24-2.63 0.9-4.25 2.23-6.51h2c0.04-0.91 0.08-1.82 0.12-2.75 0.88-3.25 0.88-3.25 3.76-5.5 1.54-0.87 1.54-0.87 3.12-1.75l3-2c-1.42 3.54-2.68 4.34-6 6-1.2 1.82-1.2 1.82-2 4-0.34 0.76-0.68 1.52-1.02 2.31-1.95 5.37-2.17 11 0.19 16.3 3.21 5.05 6.29 8.34 12.1 10.1 0.56 0.1 1.12 0.2 1.69 0.31v2h7l1-2c1.33-0.34 2.66-0.68 4-1l2-2c0.83-0.58 1.65-1.15 2.5-1.75 2.92-2.63 3.54-4.49 4.5-8.25 0.49-1.48 0.49-1.48 1-3-0.99-6.49-2.34-12.2-7-17v-2c-4.25-1.86-8.5-2.93-13-4v-2z" fill="#C9C8C0"/>
<path transform="translate(775,63)" d="m0 0h2c2.8 5.46 5.32 11 7.62 16.6 0.45 1.09 0.45 1.09 0.91 2.2 0.58 1.41 1.15 2.83 1.7 4.24 0.68 1.71 1.4 3.39 2.13 5.06 0.85 3.84-0.09 5.73-1.74 9.26-0.48 1.05-0.96 2.11-1.46 3.21-0.38 0.79-0.76 1.59-1.16 2.41h-2l-1-17h-2c-0.1-0.95-0.21-1.9-0.31-2.88-0.38-3.41-0.38-3.41-3.69-5.12-3.02-5.74-1.74-11.8-1-18z" fill="#57AC54"/>
<path transform="translate(1009,690)" d="m0 0h5c0.12 1.42 0.12 1.42 0.25 2.88 0.4 3.22 0.4 3.22 2.81 4.5 0.64 0.2 1.28 0.41 1.94 0.62h-4v2l-4-1c-1.11 2.79-1.11 2.79-1 5l-5 2-2-2v2h-2v2h-10l1-3-2-2c0.96-0.4 0.96-0.4 1.94-0.81 2.39-1.08 2.39-1.08 3.06-4.19 1.26 0.08 2.52 0.16 3.81 0.25 2.19 0.06 2.19 0.06 4.19-0.25 1.86-1.84 1.86-1.84 3-4 0.99-0.33 1.98-0.66 3-1v-3z" fill="#489B4C"/>
<path transform="translate(785,109)" d="m0 0c2.21 3.32 2.15 3.92 1.88 7.69-0.13 4.69 0.81 7.55 3.24 11.5 0.88 1.79 0.88 1.79 0.88 5.79 0.02 0.91 0.05 1.83 0.07 2.77 0.11 5.84-0.17 10.6-2.07 16.2-1.24 5.92-1.54 12-2 18h-1c-0.61-20.7-1.19-41.3-1-62z" fill="#53AA53"/>
<path transform="translate(1451,1442)" d="m0 0c2.66 1.96 3.75 3.39 5 6.44 0 3.56-1.82 4.84-4 7.56 0.09 2.54 0.09 2.54 1 5 0.33 1.67 0.67 3.33 1 5l-1-2c-0.99-0.33-1.98-0.66-3-1-1.75-2.88-1.75-2.88-3-6l1-3c0.99-0.33 1.98-0.66 3-1 0.69-2.35 0.69-2.35 1-5-1.71-3.31-1.71-3.31-5.12-3.69-0.95-0.1-1.9-0.2-2.88-0.31 0.01 0.68 0.02 1.36 0.04 2.05 0.06 6.39-0.27 12.6-1.04 19-0.99-0.33-1.98-0.66-3-1-0.39-15.2-0.39-15.2 2-22 3.19-1.59 5.6-0.76 9 0z" fill="#CAC9C1"/>
<path transform="translate(775,1044)" d="m0 0h1c0.03 1.46 0.05 2.92 0.06 4.38 0.01 0.81 0.03 1.62 0.04 2.46-0.1 2.16-0.1 2.16-1.1 4.16h2v7l-2-3c-0.27 0.97-0.54 1.94-0.81 2.94-0.39 1.01-0.79 2.02-1.19 3.06-0.99 0.33-1.98 0.66-3 1-0.98 2.93-1.08 4.96-1 8h2l1 3-4 2c-2-2-2-2-2.08-5.05 0.09-1.22 0.18-2.44 0.27-3.7 0.07-1.21 0.15-2.42 0.23-3.67 0.6-3.71 1.73-6.33 3.58-9.58l-2-2c0.38-2.62 0.38-2.62 1-5h2l1-2 2 1 1-5z" fill="#4AA551"/>
<path transform="translate(787,208)" d="m0 0h1c0.87 5.37 1.23 10.6 1.39 16.1 0.02 0.85 0.05 1.7 0.07 2.57 0.06 1.78 0.11 3.55 0.15 5.33 0.08 2.72 0.17 5.44 0.26 8.16 0.05 1.73 0.1 3.46 0.14 5.19 0.03 0.81 0.06 1.63 0.09 2.46 0.15 6.93 0.15 6.93-2.1 10.2-1.12-4.75-1.12-4.75 0-7-0.99-0.33-1.98-0.66-3-1 0.33-0.56 0.66-1.11 1-1.69 1.13-2.61 1.16-4.49 1-7.31h-1c-0.06-0.96-0.12-1.93-0.18-2.92-0.09-1.27-0.17-2.53-0.26-3.83-0.08-1.25-0.16-2.51-0.24-3.8-0.25-2.66-0.65-4.9-1.32-7.45-0.04-2.33-0.04-4.67 0-7h2c-0.21-0.76-0.41-1.53-0.62-2.31-0.38-2.69-0.38-2.69 1.62-5.69z" fill="#59AE55"/>
<path transform="translate(1051,590)" d="m0 0 1 18c-0.99-0.33-1.98-0.66-3-1 0.74 5.55 0.74 5.55 2 11l-2 1c-0.66 3.03-0.66 3.03-1 6h-1c-0.17-2.77-0.33-5.54-0.5-8.31-0.05-0.79-0.1-1.57-0.14-2.38-0.05-0.76-0.09-1.52-0.14-2.3-0.04-0.69-0.09-1.39-0.13-2.11-0.08-1.63-0.09-3.27-0.09-4.9-0.16-1.07-0.33-2.14-0.5-3.25-0.48-3.64-0.57-7.09-0.5-10.8 2-1 2-1 6-1z" fill="#46994C"/>
<path transform="translate(755,1112)" d="m0 0 4 3 1-2h2v2h2l1-3c0.37 5.12-0.9 8.37-3 13-0.69 2.78-0.69 2.78-1 5l-1-2c-0.99-0.33-1.98-0.66-3-1-0.29-0.62-0.58-1.24-0.88-1.88-1.47-2.79-3.43-3.56-6.12-5.12v-2c1.98 0.66 3.96 1.32 6 2-0.35-0.58-0.7-1.15-1.06-1.75-1.09-2.61-0.87-3.64 0.06-6.25z" fill="#52A852"/>
<path transform="translate(793,835)" d="m0 0c2 2 2 2 2.12 5.12-0.04 0.95-0.08 1.9-0.12 2.88h-2c0.14 1.42 0.29 2.83 0.44 4.25 0.12 1.18 0.12 1.18 0.24 2.39 0.3 2.18 0.78 4.23 1.32 6.36v2h-2v2l2 1c0 2.8-0.37 4.98-1 7.69-0.19 0.81-0.37 1.61-0.56 2.45-0.22 0.92-0.22 0.92-0.44 1.86l2 1c-2.48 0.5-2.48 0.5-5 1-0.03-2.9-0.05-5.79-0.06-8.69-0.01-0.81-0.02-1.63-0.03-2.47-0.01-4.13 0.26-7.79 1.09-11.8 0.02-3.25-0.02-6.49-0.13-9.74-0.03-1.75 0.04-3.51 0.13-5.26l2-2z" fill="#489C4B"/>
<path transform="translate(565,512)" d="m0 0h1v7h2c0.51 1.44 1 2.87 1.5 4.31 0.28 0.8 0.56 1.6 0.84 2.43 0.66 2.26 0.66 2.26 0.66 5.26-4 0-4 0-6.62-2.44-0.79-0.84-1.57-1.69-2.38-2.56l-2-1v-3h-2l1-3 5-1 1-6z" fill="#4FA852"/>
<path transform="translate(1447,1433)" d="m0 0c6.38-0.66 10 1.04 15 5 5.25 5.39 7.18 10.6 7.19 17.9-0.05 1.69-0.11 3.37-0.19 5.06h-3l1-3c-0.99-6.49-2.34-12.2-7-17v-2c-4.25-1.86-8.5-2.93-13-4v-2z" fill="#C7C7BE"/>
<path transform="translate(651,1020)" d="m0 0h2l1 3c1.02 0.99 1.02 0.99 2.06 2 1.94 2 1.94 2 1.94 5h3v2c0.6 0.06 1.2 0.12 1.81 0.19 2.19 0.81 2.19 0.81 3.47 3.03 2.06 3.33 4.48 5.51 7.41 8.09 0.51 0.46 1.02 0.91 1.55 1.38 1.25 1.11 2.5 2.21 3.76 3.31-3.75 0-4.92-1.09-7.94-3.25-0.85-0.6-1.71-1.21-2.59-1.83-2.37-1.84-4.47-3.68-6.47-5.92v-2h-2c-1.11-1.61-1.11-1.61-2.31-3.75-2.12-3.55-4.24-5.88-7.69-8.25l1-3z" fill="#49A14C"/>
<path transform="translate(790,324)" d="m0 0c0.99 0.5 0.99 0.5 2 1-0.01 0.58-0.02 1.17-0.04 1.77-0.05 4.61 0.1 9.08 0.6 13.7 0.52 5.54 0.36 11 0.06 16.5-0.04 0.81-0.08 1.63-0.13 2.47-0.23 3.95-0.57 7.73-1.49 11.6h-1v-47z" fill="#4AA451"/>
<path transform="translate(568,383)" d="m0 0 4 1c0.34 4.28 0.21 6.6-1.81 10.4-0.72 0.84-1.45 1.69-2.19 2.56h-3l-2-3-4 1c2.24-4.49 4.89-6.26 9-9v-3z" fill="#4FA852"/>
<path transform="translate(927,697)" d="m0 0 1 2c1.98-0.33 3.96-0.66 6-1-0.19 0.6-0.37 1.2-0.56 1.81-0.66 2.35-0.66 2.35 0.56 5.19-1.36 0.43-1.36 0.43-2.75 0.88-2.57 0.89-4.86 1.83-7.25 3.12l2-4c-0.99 0.5-0.99 0.5-2 1v-3l-3 3-2-1c0.81-1.94 0.81-1.94 2-4 0.99-0.33 1.98-0.66 3-1 1.67-1.5 1.67-1.5 3-3z" fill="#479A4C"/>
<path transform="translate(782,88)" d="m0 0c4 0 4 0 6.25 2 0.58 0.66 1.15 1.32 1.75 2-0.45 1.58-0.91 3.17-1.38 4.75-0.25 0.88-0.51 1.76-0.77 2.67-0.77 2.34-1.69 4.41-2.85 6.58h-2l-1-18z" fill="#53AA53"/>
<path transform="translate(855,1088)" d="m0 0c0.99 0.33 1.98 0.66 3 1 2.14-0.39 2.14-0.39 4-1-1.28 1.71-2.62 3.37-4 5h-2l-1 3c-5.13 4.79-10.8 8.76-17 12 1.5-3.82 3.65-5.44 6.94-7.81 4.5-3.46 6.32-5.86 8.06-11.2l2-1z" fill="#46974C"/>
<path transform="translate(536,463)" d="m0 0c1.28 3.83 0.55 5.86-0.36 9.79-0.16 0.65-0.31 1.31-0.46 1.99-0.33 1.38-0.65 2.77-0.99 4.15-0.5 2.13-0.99 4.25-1.48 6.38-0.31 1.34-0.63 2.69-0.95 4.04-0.29 1.22-0.58 2.45-0.87 3.72-0.89 2.93-0.89 2.93-2.89 4.93-0.5-7.08 1.34-13.6 3-20.4 0.29-1.21 0.57-2.41 0.87-3.66 0.7-2.97 1.41-5.93 2.13-8.9h2v-2z" fill="#49A04E"/>
<path transform="translate(949,304)" d="m0 0h2c0.4 0.86 0.4 0.86 0.81 1.73 3.06 6.32 6.57 12.3 10.3 18.2 1.81 2.98 3.5 5.87 4.87 9.08l-1 3c-0.56-0.99-1.11-1.98-1.69-3-1.95-3.43-4.03-6.78-6.16-10.1-1.15-1.89-1.15-1.89-2.07-3.81-1.83-3.52-4.34-6.58-6.72-9.74-0.45-0.77-0.9-1.54-1.36-2.34l1-3z" fill="#49A14C"/>
<path transform="translate(885,453)" d="m0 0 1 2 2 1c0.99 1.49 0.99 1.49 2 3-1.38 1.5-1.38 1.5-3 3h-2l-1 3c-0.99-0.33-1.98-0.66-3-1-0.99 0.33-1.98 0.66-3 1 0-2 0-2 2-4l-2-1 7-7z" fill="#489D4B"/>
<path transform="translate(616,721)" d="m0 0c3.63 1.91 5.45 3.19 7 7 0.99 1.49 0.99 1.49 2 3l-2 2c-0.62-0.33-1.24-0.66-1.88-1-2.03-1.14-2.03-1.14-4.12-1-1.78-2.64-2.99-4.97-4-8l3-2z" fill="#4BA552"/>
<path transform="translate(658,214)" d="m0 0 2 4c-0.93 1.11-0.93 1.11-1.88 2.25-1.72 2.24-2.98 4.19-4.12 6.75h-5c2.61-4.84 5.37-8.87 9-13zm-10 13 2 4h-3l1-4z" fill="#5EAF55"/>
<path transform="translate(789,94)" d="m0 0h2l1 5h-2l1 11c-0.99 0.33-1.98 0.66-3 1-0.12-0.64-0.25-1.28-0.38-1.94-0.2-0.68-0.41-1.36-0.62-2.06l-2-1c0.66-2.85 1.52-5.52 2.56-8.25 0.27-0.71 0.54-1.41 0.82-2.14 0.2-0.53 0.41-1.06 0.62-1.61z" fill="#50A952"/>
<path transform="translate(757,792)" d="m0 0c4.69 1.48 4.69 1.48 6.12 3.88 0.29 0.7 0.58 1.4 0.88 2.12 0.98 1.35 1.97 2.69 3 4l-3 2c-2.63-1.52-4.84-2.84-7-5-0.69-3.06-0.69-3.06-1-6l1-1z" fill="#4FA852"/>
<path transform="translate(717 785)" d="m0 0c0.84 0.37 0.84 0.37 1.69 0.75-1.41 3.22-3.11 5.32-5.63 7.75-0.94 0.92-0.94 0.92-1.91 1.86-0.48 0.46-0.97 0.92-1.46 1.39l-2-1 2-3-4 2v-2h2v-2h2v-2c4.2-4.09 4.2-4.09 7.31-3.75z" fill="#52A952"/>
<path transform="translate(697,1063)" d="m0 0 2 1c1.02 0.43 1.02 0.43 2.06 0.88 1.94 1.12 1.94 1.12 2.94 4.12h2l1 3-1 2h-3v-2h-2v-2l-4-2v-2h-2v-2l2-1z" fill="#4BA552"/>
<path transform="translate(791,419)" d="m0 0h1c-0.02 0.89-0.04 1.77-0.06 2.69-0.06 3.19-0.06 3.19 0.62 5.75 0.57 3.35 0.03 6.23-0.56 9.56-0.99-0.33-1.98-0.66-3-1-0.05-2.08-0.09-4.17-0.12-6.25-0.03-1.16-0.05-2.32-0.08-3.52 0.19-3.06 0.59-4.67 2.2-7.23z" fill="#49A350"/>
<path transform="translate(963,905)" d="m0 0 2 1c2.1-0.4 2.1-0.4 4-1l1 3c-0.62 0.08-1.24 0.16-1.88 0.25-2.3 0.56-2.3 0.56-3.37 2.81-0.25 0.64-0.5 1.28-0.75 1.94-1.88-0.31-1.88-0.31-4-1l-2-3 5-4z" fill="#46954C"/>
<path transform="translate(923,692)" d="m0 0c3 1 3 1 5 4-0.64 0.1-1.28 0.21-1.94 0.31-0.68 0.23-1.36 0.46-2.06 0.69l-1 3c-2.31 0.33-4.62 0.66-7 1v-6h6l1-3z" fill="#479A4C"/>
<path transform="translate(510,641)" d="m0 0c0.99 0.33 1.98 0.66 3 1 0.06 3.58 0.09 7.17 0.12 10.8 0.02 1.02 0.04 2.03 0.06 3.08 0 0.98 0.01 1.96 0.02 2.97 0.01 0.9 0.02 1.8 0.03 2.73-0.23 2.47-0.23 2.47-2.23 6.47l-1-27z" fill="#4AA552"/>
<path transform="translate(790,900)" d="m0 0 2 2c-0.33 2.62-0.82 4.64-2 7l2 1h-2c0.35 0.56 0.7 1.11 1.06 1.69 1.19 2.92 0.84 4.32-0.06 7.31-1.06 2.31-1.06 2.31-2 4h-1c-0.2-8-0.13-15.3 2-23z" fill="#489C4B"/>
<path transform="translate(514,598)" d="m0 0 2 2c-0.06 1.91-0.06 1.91-0.44 4.06-0.18 1.3-0.37 2.6-0.56 3.94l1 1c0.25 2.38 0.25 2.38 0 5-1.5 1.81-1.5 1.81-3 3v-2h-2v-10c0.99 0.5 0.99 0.5 2 1-0.02-1.13-0.04-2.27-0.06-3.44 0.06-3.56 0.06-3.56 1.06-4.56z" fill="#49A451"/>
<path transform="translate(665,1036)" d="m0 0c5.47 3.79 9.9 7.75 14 13-3-1.43-5.78-3.06-8.56-4.88-0.77-0.49-1.53-0.98-2.32-1.49-2.18-1.68-3.58-3.36-5.12-5.63l2-1z" fill="#48A04B"/>
<path transform="translate(788,811)" d="m0 0h1c0.14 1.05 0.29 2.1 0.44 3.19 0.47 3.65 0.47 3.65 1.25 6.5 0.37 2.77-0.22 3.98-1.69 6.31h-2c-0.03-2.48-0.05-4.96-0.06-7.44-0.02-1.06-0.02-1.06-0.03-2.14-0.01-1.81 0.04-3.61 0.09-5.42l1-1z" fill="#4AA552"/>
<path transform="translate(947,687)" d="m0 0 2 1c0.99 0.33 1.98 0.66 3 1 0.37 1.32 0.71 2.66 1 4l2 1c-2.25 0.75-2.25 0.75-5 1-2.19-1.88-2.19-1.88-4-4l-2-1 3-3z" fill="#469A4C"/>
<path transform="translate(631,564)" d="m0 0c0.99 0.33 1.98 0.66 3 1v2c0.99 0.33 1.98 0.66 3 1l-1 2h-4c-0.99 1.49-0.99 1.49-2 3-2-1-2-1-3-2 0.44-2.06 0.44-2.06 1-4h2l1-3z" fill="#50A852"/>
<path transform="translate(516,557)" d="m0 0h3l-2 17h-2c-0.18-11.5-0.18-11.5 1-17z" fill="#489D4B"/>
<path transform="translate(530,499)" d="m0 0-1 9h-2l-1 7h-1c-0.2-11.3-0.2-11.3 1-15 2-1 2-1 4-1z" fill="#489E4B"/>
<path transform="translate(764,1088)" d="m0 0 2 1c0.07 3.34 0.07 5.8-1 9-0.14 0.87-0.29 1.73-0.44 2.62-0.28 1.18-0.28 1.18-0.56 2.38-0.99 0.49-0.99 0.49-2 1l-2-2c0.43-1.24 0.43-1.24 0.88-2.5 1.22-3.81 2.18-7.61 3.12-11.5z" fill="#4AA552"/>
<path transform="translate(786,148)" d="m0 0c0.99 0.33 1.98 0.66 3 1 0.12 6.62 0.12 6.62-1 10-0.22 2.06-0.41 4.12-0.56 6.19-0.09 1.08-0.17 2.17-0.26 3.29-0.06 0.83-0.12 1.66-0.18 2.52h-1v-23z" fill="#55AB53"/>
<path transform="translate(568,366)" d="m0 0h4l-2 9h-4c0.88-6.75 0.88-6.75 2-9z" fill="#51A952"/>
<path transform="translate(619,979)" d="m0 0c3 1.69 3 1.69 6 4 0.38 2.75 0.38 2.75 0 5l2 1c-3.26-0.24-4.73-1.52-6.81-3.88-0.72-1.03-1.45-2.06-2.19-3.12l1-3z" fill="#49A14C"/>
<path transform="translate(792,737)" d="m0 0h1v5h2v10h-2l-1 2v-17z" fill="#4AA552"/>
<path transform="translate(543,434)" d="m0 0h2c-0.69 6.19-2.28 12-4 18h-1c-0.37-6.57 0.86-11.8 3-18z" fill="#49A14E"/>
<path transform="translate(986,926)" d="m0 0c0.99 0.33 1.98 0.66 3 1l-8 15c-1-4-1-4 0.25-6.31 0.87-1.33 0.87-1.33 1.75-2.69 1.07-2.31 2.03-4.65 3-7z" fill="#46984B"/>
<path transform="translate(1007,885)" d="m0 0 2 1-5 11-2-2 2-4h-3l-1-3c3 0 3 0 6 1l1-4z" fill="#46974B"/>
<path transform="translate(728,635)" d="m0 0h2v4c-0.99 0.5-0.99 0.5-2 1v2l2 2-5 2c-1-3-1-3-1-6l2-1v-2h2v-2z" fill="#55AB54"/>
<path transform="translate(889,425)" d="m0 0c0 3 0 3-1.19 4.67-2.38 1.75-3.88 1.7-6.81 1.64-0.87 0-1.73-0.01-2.62-0.01-2.38-0.3-2.38-0.3-5.38-2.3 6.62-1.12 6.62-1.12 10 0l1-2v2l5-4z" fill="#489D4B"/>
<path transform="translate(1009,690)" d="m0 0h5v5l-4 2v-2l-4 1v-2c0.99-0.33 1.98-0.66 3-1v-3z" fill="#469A4C"/>
<path transform="translate(809,458)" d="m0 0h5v5h-2l-1 2c-2-1.38-2-1.38-4-3v-2h2v-2z" fill="#489D4B"/>
<path transform="translate(717,1088)" d="m0 0c2 1.38 2 1.38 4 3v2c0.58 0.25 1.15 0.49 1.75 0.75 2.55 1.42 4.27 3.13 6.25 5.25l-5-1v-2c-0.6-0.25-1.2-0.49-1.81-0.75-2.51-1.43-3.67-2.82-5.19-5.25v-2z" fill="#49A24D"/>
<path transform="translate(968,881)" d="m0 0 1 2c2.53 0.66 2.53 0.66 5 1l-2 5c-2.97-0.5-2.97-0.5-6-1l2-2c-0.41-2.05-0.41-2.05-1-4l1-1z" fill="#46954C"/>
<path transform="translate(1048,591)" d="m0 0h2l1 14-2-2v-2l-2-2c-0.75-3-0.75-3-1-6l2-2z" fill="#499C4C"/>
<path transform="translate(868,1081)" d="m0 0 2 1c-1.83 2.24-3.66 4.28-6 6-3.38-0.12-3.38-0.12-6-1l2-3h4l1-2c0.99-0.33 1.98-0.66 3-1z" fill="#46974C"/>
<path transform="translate(608,965)" d="m0 0c3.65 1.25 4.78 1.67 7 5l-1 2 2 1-2 2c-1.01-1.29-2-2.58-3-3.88-0.56-0.71-1.11-1.43-1.69-2.17-1.31-1.95-1.31-1.95-1.31-3.95z" fill="#49A14C"/>
<path transform="translate(638,571)" d="m0 0c3 1 3 1 3.94 2.75 0.09 3.39-1.73 4.84-3.94 7.25l-2-1c0.59-3.02 1.23-6.02 2-9z" fill="#50A952"/>
<path transform="translate(826,838)" d="m0 0 3 3 1-2v2c0.99 0.33 1.98 0.66 3 1-6.75 1.12-6.75 1.12-9 0l-1 2c-0.99-0.33-1.98-0.66-3-1h2l-1-3 5-2z" fill="#46994C"/>
<path transform="translate(889,474)" d="m0 0 1 4h4v2c-1.24 0.12-2.48 0.25-3.75 0.38-3.13 0.38-5.54 0.93-8.25 2.62 4.14-6.43 4.14-6.43 7-9z" fill="#49A14C"/>
<path transform="translate(893,266)" d="m0 0c2 0.67 4 1.33 6 2-0.19 1.88-0.19 1.88-1 4-2.56 1.25-2.56 1.25-5 2-0.38-2.33-0.71-4.66-1-7l1-1z" fill="#49A350"/>
<path transform="translate(788,246)" d="m0 0 2 2c-0.02 2.38-0.02 2.38-0.38 5.12-0.11 0.92-0.22 1.83-0.33 2.76-0.1 0.7-0.19 1.4-0.29 2.12-2-3-2-3-1.62-5.19 0.2-0.6 0.41-1.19 0.62-1.81-0.99-0.33-1.98-0.66-3-1 0.99-1.32 1.98-2.64 3-4z" fill="#58AD54"/>
<path transform="translate(610,286)" d="m0 0 2 2c-2.62 4.88-2.62 4.88-6 6 0.5-3.69 1.1-5.6 4-8z" fill="#58AD55"/>
<path transform="translate(616,276)" d="m0 0 1 2c-0.94 2.36-1.93 4.7-3 7h-3c0.48-4.31 1.75-6.17 5-9z" fill="#59AD55"/>
</svg>
