<?xml version="1.0" encoding="UTF-8"?>
<svg version="1.1" viewBox="0 0 1600 1128" width="1280" height="1280" xmlns="http://www.w3.org/2000/svg">
<path transform="translate(0)" d="m0 0h1600v1128h-1600v-1128z" fill="#FEFEFE"/>
<path transform="translate(789 73.5)" d="m0 0c3.22 1.75 6.4 3.56 9.57 5.39 2.16 1.22 4.32 2.45 6.47 3.68 1.03 0.58 2.05 1.17 3.11 1.78 4.73 2.69 9.48 5.32 14.2 7.94 1.45 0.8 2.9 1.6 4.34 2.42 1.64 0.92 3.31 1.81 4.98 2.67 0.88 0.48 1.76 0.95 2.67 1.45 0.8 0.41 1.6 0.83 2.42 1.26 3.87 3.29 5.9 7.44 6.63 12.5 0.15 2.95 0.17 5.89 0.14 8.85 0.01 1.13 0.01 2.26 0.02 3.43 0.02 3.77 0 7.55-0.01 11.3 0.01 2.71 0.01 5.42 0.02 8.13 0.02 6.6 0.02 13.2 0.01 19.8-0.01 5.36-0.01 10.7-0.01 16.1v2.31c0 1.55 0 3.1 0.01 4.65 0.01 14.5-0.01 29.1-0.03 43.6-0.02 12.5-0.01 24.9 0.01 37.4 0.02 14.5 0.03 29 0.01 43.4v4.63 2.3c-0.01 5.36 0 10.7 0.01 16.1 0.01 6.52 0.01 13-0.01 19.6-0.01 3.33-0.02 6.65-0.01 9.98 0.02 3.61 0 7.21-0.02 10.8 0.01 1.05 0.02 2.1 0.03 3.18-0.07 5.97-0.56 9.41-4.54 14-2.33 1.85-2.33 1.85-4.92 3.41-0.97 0.58-1.95 1.17-2.95 1.78-1.03 0.6-2.06 1.19-3.13 1.81-1.55 0.91-1.55 0.91-3.13 1.83-2.75 1.59-5.52 3.17-8.29 4.74-3.08 1.74-6.16 3.49-9.24 5.25-0.62 0.35-1.24 0.7-1.88 1.07-5.88 3.35-11.7 6.75-17.6 10.2-8.55 5-17.1 9.98-25.7 14.9-1.05 0.61-2.11 1.22-3.2 1.85-2.01 1.17-4.03 2.32-6.06 3.47-1.97 1.13-3.9 2.31-5.81 3.52-7.78 4.77-7.78 4.77-12.5 3.98-6.11-2.01-11.6-5.52-17.1-8.82-1.15-0.68-2.31-1.36-3.47-2.04-3.35-1.98-6.69-3.97-10-5.96-2.39-1.41-4.78-2.81-7.17-4.22-2.04-1.19-4.07-2.39-6.1-3.59-4.64-2.73-9.32-5.4-14-8.06-4.38-2.5-8.73-5.03-13.1-7.56-6.79-3.95-13.6-7.84-20.5-11.7-1.73-0.97-3.45-1.94-5.17-2.91-1.36-0.71-1.36-0.71-2.75-1.43-2.9-2.03-3.78-3.3-5.25-6.57-0.44-3.68-0.41-7.34-0.38-11-0.01-1.12-0.01-2.23-0.02-3.38-0.01-3.68 0-7.36 0.01-11-0.01-2.56-0.01-5.11-0.01-7.67-0.01-5.37 0-10.7 0.01-16.1 0.02-6.2 0.01-12.4 0-18.6-0.02-5.96-0.02-11.9-0.01-17.9v-7.6c-0.01-3.55 0-7.09 0.02-10.6-0.01-1.05-0.02-2.1-0.02-3.18 0.07-8.84 0.07-8.84 3.4-12.9 5.57-5.34 12.8-8.84 19.5-12.5 8.76-4.83 17.4-9.75 26.1-14.8 7.21-4.23 14.4-8.42 21.8-12.5 4.87-2.72 9.68-5.54 14.5-8.38 1.42-0.84 2.84-1.67 4.26-2.5 2.41-1.42 4.79-2.85 7.16-4.32 0.93-0.55 1.87-1.11 2.83-1.68 0.77-0.48 1.55-0.96 2.34-1.45 4.42-1.48 8.43-0.79 12.6 1 2.06 1.09 4.05 2.24 6.04 3.45 0.67 0.39 1.33 0.78 2.02 1.18 1.98 1.16 3.95 2.33 5.91 3.5 5.65 3.39 5.65 3.39 12 5 1.07-3.2 1.12-5.47 1.11-8.84v-3.69c-0.01-1.35-0.02-2.7-0.02-4.05-0.01-1.43-0.01-2.85-0.01-4.27-0.01-3.07-0.02-6.13-0.03-9.2-0.02-4.84-0.03-9.68-0.04-14.5-0.02-13.8-0.06-27.6-0.1-41.3-0.03-7.61-0.04-15.2-0.05-22.8-0.01-4.82-0.03-9.64-0.05-14.4-0.01-3-0.01-6-0.01-8.99-0.01-1.39-0.01-2.78-0.02-4.17-0.01-1.9-0.01-3.79-0.01-5.69 0-1.06-0.01-2.13-0.01-3.22 0.25-2.79 0.73-4.41 2.24-6.75 5.39-3.75 10.7-0.18 15.9 2.49z" fill="#303032"/>
<path transform="translate(485 209)" d="m0 0c11.8 6.27 23.2 13.1 34.7 20 0.91 0.53 1.81 1.07 2.74 1.62 0.91 0.54 1.83 1.09 2.77 1.64 6.65 3.94 13.4 7.76 20.1 11.6 3.8 2.14 7.59 4.28 11.4 6.44 0.94 0.53 1.89 1.07 2.86 1.62 2.74 1.57 5.47 3.16 8.2 4.75 0.82 0.46 1.63 0.93 2.47 1.4 0.77 0.46 1.53 0.91 2.32 1.37 0.66 0.39 1.32 0.77 2 1.17 0.71 0.55 1.42 1.11 2.15 1.69 0.77 0.54 0.77 0.54 1.56 1.1 3.86 3.39 4.8 6.61 5.14 11.7 0.13 4.1 0.13 8.19 0.1 12.3 0.02 1.81 0.03 3.62 0.05 5.43 0.03 4.77 0.03 9.54 0.02 14.3 0 4.76 0.04 9.51 0.07 14.3 0.04 8.18 0.06 16.4 0.06 24.5 0 5.28 0.01 10.6 0.04 15.8 0 1.25 0.01 2.5 0.01 3.79 0.01 2.24 0.03 4.48 0.04 6.72 0.04 13.4 0.04 13.4-2.48 17-6.07 4.97-12.6 8.67-19.6 12.4-1.83 0.99-3.65 1.99-5.48 2.99-1.2 0.66-2.41 1.32-3.61 1.97-4.61 2.51-9.15 5.11-13.7 7.79-0.65 0.38-1.29 0.77-1.96 1.16l-4.08 2.43c-12.9 7.67-25.9 15.2-39 22.6-0.97 0.54-1.94 1.09-2.94 1.66-5.1 2.87-5.1 2.87-7.31 4.09-0.7 0.38-1.4 0.77-2.11 1.16-2.95 1.3-4.82 0.66-7.89-0.16-2.65-1.14-5.16-2.49-7.69-3.88-0.74-0.4-1.48-0.8-2.24-1.21-7.88-4.29-15.6-8.81-23.4-13.3-4.03-2.35-8.07-4.67-12.1-6.99-13.6-7.82-27.1-15.7-40.6-23.6-0.74-0.44-1.49-0.87-2.25-1.32-1.86-1.1-3.71-2.2-5.56-3.31-1.44-0.85-1.44-0.85-2.9-1.73-3.05-2.19-5.04-4.13-5.67-7.93 0-0.85-0.01-1.69-0.01-2.56-0.01-0.97-0.02-1.94-0.03-2.95 0.01-1.06 0.01-2.12 0.02-3.21-0.01-1.12-0.02-2.25-0.03-3.4-0.01-3.72-0.01-7.43 0-11.2-0.01-2.58-0.01-5.16-0.02-7.74-0.01-5.41-0.01-10.8 0-16.2 0.01-6.25 0-12.5-0.03-18.7-0.02-6.02-0.02-12-0.02-18.1 0-2.56 0-5.11-0.02-7.67-0.01-3.58 0-7.15 0.02-10.7-0.01-1.06-0.02-2.11-0.03-3.2 0.06-6.01 0.53-9.48 4.53-14.1 1.89-1.57 1.89-1.57 3.89-2.72 1.14-0.68 1.14-0.68 2.3-1.37 0.82-0.46 1.65-0.93 2.5-1.41 1.3-0.77 1.3-0.77 2.63-1.54 8.14-4.73 16.4-9.31 24.6-13.9 6.66-3.71 13.3-7.49 19.8-11.4 7.33-4.34 14.7-8.57 22.1-12.8 3.27-1.86 6.51-3.76 9.72-5.72 0.71-0.43 1.43-0.85 2.16-1.29 1.31-0.79 2.61-1.59 3.91-2.41 5.56-3.29 9.64-2.79 15.6-0.7z" fill="#5A9A55"/>
<path transform="translate(226 207)" d="m0 0c2.34 1.2 4.62 2.48 6.9 3.79 1.29 0.73 1.29 0.73 2.61 1.47 7.82 4.42 15.6 8.96 23.3 13.5 6.9 4.05 13.8 8.03 20.8 12 0.94 0.54 1.88 1.07 2.85 1.61l11.3 6.39c27.8 15.6 27.8 15.6 31.1 23.4 0.38 3.09 0.38 3.09 0.39 6.43 0.01 1.27 0.02 2.54 0.03 3.85-0.01 1.4-0.01 2.8-0.02 4.2 0.01 1.48 0.02 2.96 0.02 4.45 0.02 4.01 0.02 8.02 0.02 12-0.01 3.35 0 6.7 0 10.1 0.02 7.9 0.02 15.8 0.01 23.7-0.02 8.16 0 16.3 0.02 24.5 0.03 7.01 0.03 14 0.03 21-0.01 4.19 0 8.37 0.01 12.6 0.02 3.93 0.02 7.86 0 11.8-0.01 1.44 0 2.89 0.01 4.33 0.01 1.97 0 3.94-0.02 5.91v3.34c-0.61 3.46-1.83 4.64-4.5 6.83-5.33-1.51-9.83-3.35-14.6-6.19-1.06-0.63-2.11-1.25-3.19-1.89-1.06-0.63-2.13-1.27-3.22-1.92-1.95-1.15-3.91-2.29-5.86-3.43-0.96-0.56-1.93-1.13-2.92-1.71-0.98-0.57-1.96-1.14-2.97-1.74-1.04-0.6-2.07-1.21-3.14-1.83-4.66-2.72-9.32-5.43-14-8.02-0.73-0.4-1.46-0.8-2.21-1.21-1.31-0.72-2.63-1.43-3.95-2.13-4.47-2.44-8.59-5.28-10.9-9.93-0.11-2.31-0.15-4.63-0.16-6.94 0-0.71-0.01-1.43-0.01-2.16-0.01-1.56-0.02-3.11-0.03-4.66-0.01-2.46-0.03-4.92-0.05-7.38-0.06-6.99-0.12-14-0.15-21-0.02-4.27-0.06-8.55-0.1-12.8-0.02-1.63-0.03-3.26-0.03-4.89 0-2.28-0.03-4.56-0.05-6.84-0.01-1.3-0.02-2.6-0.03-3.93-0.58-5.05-2.43-7.5-6.07-10.9-3.57-2.82-7.46-5-11.4-7.17-0.7-0.39-1.4-0.78-2.12-1.18-1.91-1.06-3.83-2.1-5.75-3.13-0.64-0.36-1.29-0.72-1.95-1.09-3.97-1.76-7.81-1.59-12-0.91-4.19 1.66-7.96 3.86-11.8 6.19-1.01 0.58-2.02 1.15-3.06 1.75-9.72 5.6-9.72 5.6-15.1 15.1-0.25 3.37-0.25 3.37-0.13 7.07 0.01 0.69 0.02 1.38 0.03 2.09 0.02 1.5 0.04 2.99 0.07 4.49 0.05 2.37 0.07 4.74 0.1 7.11 0.06 6.74 0.15 13.5 0.27 20.2 0.08 4.13 0.12 8.26 0.15 12.4 0.02 1.57 0.04 3.14 0.08 4.71 0.34 13.8 0.34 13.8-3.27 18.2-2.66 2.41-5.52 4.39-8.66 6.14-1.53 0.86-1.53 0.86-3.09 1.75-1.64 0.9-1.64 0.9-3.3 1.81-1.73 0.97-3.46 1.95-5.19 2.92-1.2 0.67-2.39 1.34-3.59 2.01-4.26 2.37-8.48 4.81-12.7 7.27-1.17 0.69-2.34 1.37-3.51 2.06-2.22 1.3-4.44 2.6-6.65 3.9-5.43 3.16-10.6 6.01-16.6 7.84-2.44-0.69-2.44-0.69-4-2-1.65-3.29-1.18-6.95-1.21-10.6-0.01-0.89-0.02-1.78-0.03-2.7-0.03-2.97-0.05-5.95-0.08-8.93-0.02-2.1-0.04-4.21-0.06-6.31-0.04-4.45-0.09-8.9-0.12-13.4-0.05-5.55-0.11-11.1-0.16-16.6-0.13-13.1-0.24-26.1-0.32-39.2-0.02-3.35-0.05-6.7-0.07-10.1-0.04-5.47-0.07-10.9-0.09-16.4-0.01-2.04-0.02-4.09-0.04-6.13-0.02-2.83-0.03-5.65-0.03-8.48-0.01-0.82-0.02-1.64-0.03-2.48 0.01-6.21 0.36-12.3 4.24-17.4 7.35-5.81 15.9-9.97 24-14.5 4.92-2.73 9.77-5.53 14.6-8.45 5.53-3.36 11.1-6.57 16.8-9.71 5.22-2.92 10.4-5.92 15.5-8.95 4.09-2.4 8.2-4.79 12.3-7.17 1.74-1.01 3.47-2.02 5.21-3.03 2.03-1.2 4.08-2.36 6.13-3.52 1.1-0.63 2.19-1.25 3.32-1.9 4.54-1.69 7.74-1.21 12.2 0.74z" fill="#303032"/>
<path transform="translate(1e3 209)" d="m0 0c4.18 2.16 8.21 4.54 12.2 6.94 1.15 0.68 2.31 1.35 3.47 2.03 2.33 1.36 4.66 2.73 6.98 4.1 4.62 2.7 9.27 5.35 13.9 7.99 9.49 5.41 18.9 10.9 28.3 16.4 4.08 2.4 8.18 4.73 12.3 7.03 1 0.56 2.01 1.13 3.04 1.72 1.91 1.07 3.82 2.13 5.74 3.17 4.61 2.63 8.29 4.97 10.4 10 1.29 5.56 1.38 11.2 1.4 16.9 0.01 2.24 0.1 4.46 0.19 6.7 0.2 10.2 0.2 10.2-2.71 14.6-2.31 2.14-4.59 3.77-7.28 5.39-1.15 0.74-1.15 0.74-2.32 1.5-2.38 1.46-4.79 2.8-7.24 4.12-1.84 1.03-3.68 2.05-5.52 3.08-0.96 0.53-1.92 1.06-2.91 1.61-5.29 2.97-10.5 6.05-15.8 9.13-2.87 1.68-5.74 3.36-8.61 5.03-1.74 1.01-3.48 2.03-5.2 3.06-0.79 0.47-1.58 0.93-2.4 1.4-0.69 0.41-1.37 0.82-2.08 1.24-1.96 0.83-1.96 0.83-5.9 0.45-3.06-1.62-3.06-1.62-4.24-3.82-0.94-3.21-1.03-5.87-0.99-9.2-0.01-1.22-0.01-2.44-0.02-3.7 0-2.55 0.02-5.11 0.06-7.66 0.11-6.51 0.11-6.51-2.3-12.4-1.78-1.57-3.5-2.75-5.57-3.89-0.89-0.55-1.78-1.09-2.7-1.65-0.84-0.43-1.68-0.85-2.55-1.29-4.95-2.55-9.38-5.52-13.8-8.84-4.33-1.82-7.43-1.57-11.9-0.22-4.63 2.21-9 4.83-13.4 7.5-2.31 1.39-4.63 2.77-6.96 4.16-1.01 0.61-2.03 1.23-3.08 1.87-2.58 1.47-2.58 1.47-5.58 2.47-1.52 6.42-1.38 13-1.46 19.6-0.03 1.58-0.07 3.15-0.12 4.73-0.59 8.75-0.59 8.75 1.85 16.9 1.82 1.64 3.55 2.68 5.73 3.79 0.7 0.43 1.4 0.87 2.13 1.31 2.36 1.45 4.76 2.79 7.18 4.13 1.86 1.04 3.73 2.09 5.59 3.13 0.98 0.56 1.97 1.11 2.98 1.67 5.55 3.13 11 6.32 16.6 9.51 10.6 6.1 21.1 12.2 31.8 18.2 1.87 1.07 3.75 2.13 5.62 3.19 0.87 0.5 1.75 0.99 2.65 1.49 17.2 9.76 17.2 9.76 19.5 16.4-7.32 7.78-16.8 12.5-26.3 17.1-7.24 3.62-14.2 7.78-21.2 11.8-0.92 0.52-1.85 1.05-2.8 1.59-1.76 1-3.52 2.01-5.27 3.04-0.79 0.45-1.58 0.91-2.4 1.38-0.69 0.4-1.38 0.8-2.09 1.22-3.57 1.65-6.39 1.14-9.93-0.11-11.3-4.82-21.9-11.4-32.5-17.6-3.37-1.94-6.77-3.85-10.2-5.74-9.33-5.23-18.6-10.6-27.8-16-4.05-2.34-8.11-4.66-12.2-6.96-1.3-0.74-1.3-0.74-2.62-1.5-1.59-0.9-3.19-1.79-4.79-2.68-5.1-2.91-9.93-5.76-11.9-11.6-0.1-1.53-0.14-3.07-0.15-4.61 0-0.95-0.01-1.89-0.02-2.87 0-1.03 0-2.07-0.01-3.14 0-1.09-0.01-2.18-0.02-3.31-0.02-3.62-0.03-7.25-0.04-10.9 0-1.24-0.01-2.47-0.01-3.75-0.02-5.87-0.03-11.7-0.04-17.6-0.01-6.77-0.04-13.5-0.08-20.3-0.03-5.87-0.04-11.7-0.05-17.6 0-2.49-0.01-4.99-0.03-7.48-0.03-3.49-0.03-6.98-0.02-10.5-0.01-1.03-0.03-2.06-0.04-3.13 0.04-5.96 0.56-9.32 4.51-13.9 3.26-2.95 6.72-5.1 10.6-7.21 1.06-0.58 2.12-1.17 3.22-1.78 1.65-0.9 1.65-0.9 3.33-1.82 7.23-3.96 14.3-8.04 21.2-12.5 3.53-2.21 7.18-4.18 10.8-6.15 5.13-2.77 10.2-5.73 15.2-8.65 2.27-1.32 4.55-2.64 6.83-3.96 1.14-0.65 2.27-1.31 3.43-1.98l15.3-8.82c0.87-0.5 1.75-1.01 2.65-1.53 0.8-0.46 1.61-0.92 2.44-1.39 0.7-0.41 1.39-0.81 2.11-1.22 5.36-2.82 8.58-1.23 13.9 1.02z" fill="#303032"/>
<path transform="translate(984 517)" d="m0 0c2.77 2.77 4.58 5.75 6.25 9.25 0.51 0.92 1.02 1.85 1.55 2.8 2.35 5.57 1.8 11.5 1.71 17.4-0.01 1.27-0.02 2.54-0.02 3.84-0.02 3.36-0.05 6.71-0.09 10.1-0.05 4.74-0.09 9.47-0.12 14.2-0.01 2.52-0.04 5.04-0.07 7.55-0.01 1.14-0.02 2.28-0.03 3.45-0.01 1-0.02 2-0.03 3.03 0.09 2.39 0.41 4.37 1.1 6.64l2-1c1.76-0.11 3.52-0.16 5.28-0.18 1.66-0.02 1.66-0.02 3.35-0.04 1.21 0 2.41-0.01 3.65-0.02 1.23-0.01 2.47-0.01 3.74-0.02 2.63-0.02 5.25-0.03 7.88-0.04 3.99-0.01 7.98-0.06 12-0.1 2.55-0.01 5.1-0.02 7.66-0.03 1.18-0.01 2.36-0.03 3.58-0.05 8.84 0.02 16.1 1.75 23.8 6.11 5.73 6.39 8.55 14.4 8.4 22.9-0.83 7.73-4.1 13.1-9.98 18-7.81 5.02-14.6 4.87-23.8 4.76-1.41 0-2.81-0.01-4.21-0.01-3.67-0.01-7.34-0.04-11-0.07-3.75-0.03-7.5-0.05-11.3-0.06-7.35-0.04-14.7-0.09-22-0.15 0.01 0.75 0.02 1.51 0.03 2.29 0.08 7.15 0.14 14.3 0.18 21.4 0.02 3.68 0.05 7.35 0.09 11 0.05 3.55 0.07 7.1 0.08 10.7 0.01 2 0.04 3.99 0.07 5.99 0.01 9.54-1.2 17.3-7.76 24.5-4.65 4.2-10 6.61-16.3 7.18-7.83-0.4-16.1-3.19-21.6-8.88-6.2-8.05-6.32-18.6-6.33-28.3-0.02-1.29-0.03-2.58-0.05-3.92-0.04-3.39-0.06-6.78-0.08-10.2-0.02-3.48-0.06-6.96-0.1-10.4-0.07-6.8-0.13-13.6-0.16-20.4-3.86-1.29-7.51-1.14-11.5-1.13-1.25 0-1.25 0-2.52-0.01-1.77 0-3.53 0.01-5.29 0.01-2.71 0-5.41 0-8.11-0.01-1.71 0-3.43 0.01-5.14 0.01-0.81 0-1.62-0.01-2.46-0.01-4.1-0.08-4.1-0.08-7.94 1.14-11.4 0.42-21.7-0.75-31-8-5.33-6.48-6.96-13.6-6.51-21.9 0.99-6.08 2.96-10.9 7.71-15 2.21-1.52 4.42-2.86 6.8-4.12 0.59-0.36 1.17-0.72 1.78-1.09 7.05-2.88 15.6-2.04 23-2.01 1.21 0 2.42 0.01 3.67 0.01 3.84 0 7.68 0.01 11.5 0.03 2.61 0 5.23 0.01 7.84 0.01 6.39 0.01 12.8 0.03 19.2 0.05-0.01-1.06-0.01-1.06-0.02-2.13-0.06-6.68-0.11-13.4-0.14-20-0.01-3.43-0.03-6.86-0.07-10.3-0.04-3.95-0.05-7.91-0.06-11.9-0.02-1.21-0.03-2.43-0.05-3.68 0-9.62 1.1-18.3 7.34-26 9.82-9.82 23.2-10.6 34.8-3.25z" fill="#303032"/>
<path transform="translate(612 433)" d="m0 0c7.35 3.83 14.5 8.05 21.6 12.2 5.1 2.98 10.2 5.91 15.4 8.82 8.24 4.69 16.4 9.48 24.6 14.3 4.51 2.68 9.03 5.34 13.6 7.93 0.86 0.5 1.73 0.99 2.63 1.5 1.63 0.93 3.27 1.86 4.91 2.78 7.31 4.16 11.7 8.75 15 16.6 0.67 3.68 0.67 7.26 0.63 11 0.01 1.59 0.01 1.59 0.02 3.22 0.02 3.48 0 6.96-0.02 10.4v7.3c0.01 5.09-0.01 10.2-0.04 15.3-0.03 6.52-0.02 13 0 19.6 0.01 5.02 0 10-0.02 15.1v7.21c0.01 3.36-0.01 6.71-0.04 10.1 0.01 1.48 0.01 1.48 0.02 2.99-0.09 6.86-1.35 12.4-6.09 17.6-4.88 4.61-10.9 7.64-16.8 10.8-1.98 1.09-3.96 2.18-5.93 3.28-0.97 0.54-1.94 1.08-2.95 1.63-3.43 1.94-6.81 3.97-10.2 6.02-5.2 3.11-10.5 6.07-15.8 9.07-7.25 4.12-14.5 8.26-21.7 12.5-1.07 0.63-2.14 1.26-3.23 1.91-2 1.18-3.99 2.37-5.97 3.56-16.3 9.63-16.3 9.63-24.9 8.13-3.58-1.03-6.59-2.67-9.75-4.61-0.67-0.4-1.35-0.8-2.04-1.2-2.12-1.25-4.23-2.53-6.33-3.8-1.41-0.85-2.82-1.69-4.23-2.53-1.97-1.18-3.94-2.36-5.9-3.55-2.9-1.77-5.8-3.47-8.87-4.92v-3c2.39-1.21 4.78-2.39 7.19-3.57 0.67-0.34 1.34-0.68 2.04-1.03 2.89-1.4 5.05-2.41 8.29-2.39 3.56 1.42 6.73 3.33 9.98 5.36 0.65 0.4 1.3 0.8 1.97 1.21 0.64 0.4 1.28 0.79 1.93 1.19 0.93 0.57 0.93 0.57 1.88 1.15 1.47 0.92 2.9 1.92 4.31 2.93 3.25 1.55 4.94 0.96 8.41 0.15 2.71-1.23 2.71-1.23 5.36-2.85 1.02-0.6 2.04-1.2 3.09-1.81 1.09-0.65 2.18-1.3 3.3-1.97 1.15-0.68 2.31-1.36 3.47-2.03 2.4-1.41 4.8-2.82 7.2-4.24 5.54-3.26 11.1-6.46 16.7-9.67 8.64-4.97 17.3-9.97 25.9-15 1.44-0.83 1.44-0.83 2.91-1.69 1.82-1.06 3.63-2.13 5.43-3.22 2.66-1.52 2.66-1.52 5.54-2.9 5.06-2.38 5.06-2.38 7.88-6.89 0.19-2.67 0.07-5.13-0.2-7.8-0.11-1.76-0.21-3.52-0.31-5.28-0.06-0.82-0.11-1.64-0.17-2.48-0.1-2.53 0.31-4.72 0.92-7.17 0.09-1.71 0.13-3.42 0.12-5.13 0.01-0.85 0.01-1.69 0.01-2.57-0.04-2.46-0.04-2.46-1.13-5.3-0.1-2.46-0.14-4.88-0.14-7.34v-2.17c0-1.51 0-3.03 0.01-4.54 0-2.31 0-4.62-0.01-6.93v-4.42-2.08c0.02-3.65 0.39-6.96 1.14-10.5 0.27-4.5 0.27-9 0.31-13.5 0.03-1.23 0.06-2.45 0.09-3.71 0.01-1.18 0.01-2.36 0.02-3.57 0.02-1.08 0.03-2.15 0.05-3.26-0.6-3.75-1.81-5.28-4.47-7.96-2.48-1.77-2.48-1.77-5.25-3.23-1-0.56-2-1.11-3.04-1.69-1.04-0.56-2.08-1.13-3.15-1.71-2.06-1.14-4.12-2.27-6.18-3.41-0.92-0.5-1.83-1-2.77-1.51-2.57-1.43-5.09-2.93-7.61-4.45-12.3-7.33-24.6-14.5-37.1-21.5-3.99-2.23-7.97-4.46-11.8-6.89-1.05-0.65-2.09-1.3-3.17-1.97-0.83-0.54-1.67-1.09-2.53-1.65-3.37-1.37-4.89-1.02-8.4 0.03-3.43 1.58-6.71 3.4-10 5.25-1.45 0.8-1.45 0.8-2.93 1.62-8.63 4.81-17.1 9.84-25.6 14.9-5.38 3.2-10.8 6.32-16.3 9.42-9.12 5.18-18.2 10.4-27.2 15.8-0.85 0.31-1.7 0.63-2.57 0.95-2.56 1.75-2.56 1.75-2.92 3.97-0.21 2.64-0.25 5.25-0.25 7.9-0.02 1.01-0.04 2.02-0.06 3.06-0.05 3.34-0.07 6.68-0.09 10-0.02 2.32-0.05 4.64-0.08 6.95-0.05 4.86-0.09 9.73-0.11 14.6-0.03 6.23-0.11 12.5-0.2 18.7-0.07 4.79-0.11 9.58-0.14 14.4-0.02 2.3-0.04 4.6-0.08 6.9-0.04 3.21-0.05 6.42-0.06 9.63-0.02 0.96-0.04 1.91-0.06 2.89-0.03 5.32-0.03 5.32 2.95 9.57 1.32 0.74 1.32 0.74 2.67 1.5 1.06 0.65 2.13 1.29 3.23 1.96 1.17 0.67 2.34 1.32 3.52 1.97l3.75 2.1c0.6 0.33 1.2 0.67 1.82 1.01 1.43 0.82 2.84 1.68 4.24 2.55 5.3 3.26 10.2 4.79 16.4 4.41 3.07-1.22 4.41-2.03 6.11-4.84 0.98-2.38 1.14-4.04 1.14-6.61 0.01-1.33 0.01-1.33 0.02-2.68-0.01-0.96-0.01-1.93-0.02-2.92 0.01-1.02 0.01-2.04 0.01-3.09 0.01-2.21 0.01-4.43 0.01-6.64 0-3.5 0.01-7 0.03-10.5 0.05-9.95 0.07-19.9 0.08-29.9 0-6.08 0.03-12.2 0.06-18.2 0.01-2.33 0.02-4.65 0.01-6.97-0.01-3.24 0.01-6.48 0.03-9.73 0-0.96-0.01-1.93-0.02-2.92 0.08-6.48 0.08-6.48 2.43-9.09 2.4-1.03 4.07-1.24 6.67-1.15 0.76 0.01 1.53 0.03 2.32 0.04 2.12 0.21 2.12 0.21 5.12 1.21 2.68 4.5 2.27 9.38 2.24 14.4 0 0.95 0 1.89 0.01 2.86 0 3.13-0.01 6.25-0.02 9.37v6.52c0 4.55-0.01 9.11-0.03 13.7-0.01 5.83-0.02 11.7-0.02 17.5 0 4.49 0 8.98-0.01 13.5 0 2.15 0 4.3-0.01 6.45 0 3.01-0.01 6.02-0.02 9.03v2.67c-0.02 4.78-0.36 9.31-1.14 14-0.08 0.97-0.17 1.94-0.25 2.93-1.71 6.99-5.96 12-11.8 16.1-7.3 4.41-15.9 4.17-24.1 2.29-14.4-5.01-34.1-14.5-42.9-27.3-0.81-2.44-0.81-2.44-1-5-0.19-1.12-0.37-2.23-0.57-3.38-0.91-7.67-0.96-15.7 0.07-23.4 0.53-4.1 0.59-8.15 0.52-12.3-0.02-1.57-0.04-3.14-0.06-4.7-0.02-0.82-0.03-1.64-0.04-2.48-0.06-4.39-0.09-8.77-0.13-13.2-0.05-5.55-0.1-11.1-0.19-16.7-0.07-4.51-0.11-9.02-0.13-13.5-0.02-1.71-0.04-3.42-0.08-5.12-0.32-16.1-0.32-16.1 4.9-22.7 3.23-3.13 6.81-5.43 10.7-7.65 0.76-0.45 1.52-0.9 2.3-1.36 2.41-1.41 4.83-2.78 7.26-4.14 1.86-1.06 3.72-2.11 5.58-3.17 0.96-0.54 1.92-1.09 2.91-1.65 4.94-2.82 9.85-5.69 14.8-8.56 1-0.58 1.99-1.16 3.02-1.76 5.13-3 10.3-6 15.4-9.01 9.32-5.46 18.6-10.9 28.1-16.2 0.74-0.42 1.48-0.83 2.25-1.26 8.53-4.73 14-5.42 22.8-1.12z" fill="#5A9A55"/>
<path transform="translate(937 841)" d="m0 0c10.8 7.75 16.5 19.3 19.2 32 0.76 4.76 0.75 9.51 0.73 14.3-0.01 1.06-0.02 2.12-0.02 3.22-0.19 12.2-2.02 21.9-9.3 32-0.46 0.65-0.93 1.3-1.4 1.96-6.59 8.39-14.3 11.9-24.8 13.7-12.4 1.1-24.3-2.77-33.8-10.7-3.43-3.31-5.82-6.73-8.03-11-0.48-0.9-0.97-1.8-1.47-2.73-6.42-14.4-6-34.7-0.8-49.4 2.06-4.55 4.42-8.72 7.27-12.8 0.6-0.9 1.2-1.81 1.82-2.75 12.5-12.9 34.8-17.2 50.6-7.84z" fill="#FEFEFE"/>
<path transform="translate(659,512)" d="m0 0c5.55 4.25 9.06 10.8 10.6 17.6 0.73 5.82 0.73 5.82-0.57 8.42-2.27 0.08-4.54 0.14-6.81 0.19-1.9 0.05-1.9 0.05-3.83 0.1-3.36-0.29-3.36-0.29-5.19-1.56-1.24-1.84-2.16-3.63-3.05-5.67-2.29-4.73-4.91-7.18-9.84-9.15-9.57-2.67-21.8-1.55-31.3 1.09-3.25 2.13-4.6 3.32-5.5 7.11-0.38 2.44-0.38 2.44-0.5 5.89 8.5 4.47 17.6 5.66 27.1 6.88 8.05 1.11 16 2.32 23.8 4.62 0.66 0.19 1.31 0.38 1.99 0.57 5.42 1.71 9.79 3.89 13.1 8.63 4.33 8.93 6.42 14.8 3.52 24.5-2.86 7.67-7.19 12.8-14.4 16.8-15.7 6.83-36.8 7.98-53 2-9.29-3.76-17.6-7.84-22.1-17.3-1.57-4.26-2.37-8.12-1.92-12.7 1-2 1-2 4-3 2.06-0.07 4.13-0.08 6.19-0.06 1.63 0.01 1.63 0.01 3.29 0.02 0.83 0.02 1.66 0.03 2.52 0.04 0.23 0.58 0.46 1.16 0.7 1.76 3.37 8.38 3.37 8.38 10 14.1 7.06 2.55 13.9 2.55 21.3 2.48 1.23 0.01 2.46 0.02 3.72 0.03 11 0.05 11 0.05 20.2-5.35 1.66-3.23 2.34-4.95 1.44-8.56-2.2-4-4.52-5.84-8.85-7.38-5.57-1.55-10.9-2.29-16.6-2.56-14.5-0.77-28.4-3.64-39.9-13-4.55-5.83-5.88-11.4-5-18.6 1.8-8.33 5.3-14.5 12.5-19.2 19.5-10.9 43.5-10.6 62.5 1.19z" fill="#5A9A55"/>
<path transform="translate(739,289)" d="m0 0c2.49 1.13 2.49 1.13 5.09 2.7 0.95 0.57 1.9 1.14 2.88 1.73 1.47 0.9 1.47 0.9 2.97 1.82 0.97 0.59 1.95 1.17 2.96 1.78 2.71 1.63 5.41 3.29 8.1 4.97 0.93 0.58 0.93 0.58 1.89 1.17 3.13 2.02 5.83 3.87 8.11 6.83 0.61 2.92 0.58 5.8 0.57 8.78 0 0.85 0.01 1.7 0.02 2.58 0 1.79 0 3.59-0.01 5.38-0.02 2.75 0.02 5.49 0.05 8.24 0.01 1.75 0 3.49 0 5.24 0.01 0.82 0.03 1.64 0.04 2.48-0.09 5.69-0.09 5.69-2.91 8.67-1.37 0.81-1.37 0.81-2.76 1.63-0.78 0.49-1.56 0.98-2.37 1.49-0.8 0.46-1.6 0.91-2.43 1.39-0.9 0.51-1.79 1.02-2.71 1.54-1.39 0.78-1.39 0.78-2.8 1.58-1.37 0.78-1.37 0.78-2.77 1.58-1.79 1.02-3.59 2.02-5.4 3.02-1.59 0.88-3.16 1.81-4.69 2.79-4.68 2.83-4.68 2.83-7.84 2.23-2.14-0.89-4.06-1.93-6.05-3.12-0.67-0.37-1.34-0.73-2.03-1.11-1.99-1.1-3.95-2.24-5.91-3.39-1.21-0.69-2.42-1.37-3.64-2.06-3.08-1.78-6.1-3.6-9.11-5.5-1.38-0.87-1.38-0.87-2.8-1.76-0.81-0.55-1.62-1.11-2.45-1.68-0.8-0.55-0.8-0.55-1.63-1.11-2.18-3.01-1.82-6.3-1.8-9.88-0.01-0.79-0.01-1.57-0.02-2.37-0.01-1.66 0-3.32 0-4.97 0.01-2.53-0.02-5.05-0.05-7.58v-4.83c-0.01-0.75-0.02-1.51-0.03-2.28 0.07-4.96 1-7.5 4.53-11 2.13-1.41 2.13-1.41 4.56-2.62 3.82-1.97 7.53-4 11.2-6.21 0.84-0.5 1.68-1 2.55-1.52 1.68-1 3.36-2.02 5.04-3.04 0.79-0.47 1.57-0.93 2.38-1.41 0.7-0.43 1.4-0.85 2.12-1.29 2.64-1.12 4.29-1.25 7.14-0.91z" fill="#FEFEFE"/>
<path transform="translate(1075 836)" d="m0 0c1.39-0 1.39-0 2.8-0.01 7.89 0.19 13.5 2.01 20 6.57v2c0.87 0.1 0.87 0.1 1.75 0.19 5.52 1.99 9.02 9.42 11.6 14.4 3.39 8.03 4.71 15.7 4.66 24.4-10.8 0.03-21.6 0.04-32.4 0.05-5.02 0.01-10 0.02-15 0.03-4.84 0.01-9.67 0.01-14.5 0.02-1.85 0-3.7 0-5.55 0.01-2.58 0.01-5.16 0.01-7.74 0.01-0.78 0-1.55 0-2.35 0.01-5.27-0.01-5.27-0.01-6.39-1.13-0.81-10.8 4.92-22.3 11-31 0.75-1.07 1.49-2.14 2.25-3.25 8.29-8.28 18.4-12.3 29.9-12.3z" fill="#FEFEFE"/>
<path transform="translate(686 793)" d="m0 0h2.81c3.07 0 6.15 0.01 9.22 0.02h6.38c5.61 0 11.2 0.01 16.8 0.02 5.72 0.02 11.4 0.02 17.2 0.02 11.2 0.02 22.4 0.03 33.7 0.05 0.56 1.94 0.56 1.94 1 4-1 1-1 1-3.88 1.07-2.5-0.05-5-0.09-7.5-0.13-3.75-0.01-7.43 0.28-11.2 0.59-7.09 0.54-14 0.42-21.2 0.12-3.58-0.15-7.16-0.27-10.8-0.38-0.72-0.03-1.44-0.05-2.18-0.08-7.08-0.23-14.2-0.3-21.3-0.31-1.09-0.01-2.18-0.01-3.29-0.01h-3.02-2.61c-2.38 0.05-2.38 0.05-5.21 1.13-0.88 13.8-1.12 27.4-1.06 41.2 0 1.94 0.01 3.87 0.01 5.81 0.01 4.67 0.03 9.34 0.05 14 4.34 1.07 8.56 1.14 13 1.12h2.39c2.6 0 5.21-0.01 7.81-0.02h5.43l14.2-0.03c4.86-0.01 9.71-0.01 14.6-0.02 9.52-0.01 19-0.03 28.6-0.05v2h2c-0.49 1.49-0.49 1.49-1 3h-87c0.04 19 0.04 19 0.09 37.9 0.01 2.39 0.01 4.79 0.01 7.18 0.01 1.22 0.01 2.45 0.02 3.71v3.62 3.11c-0.15 4.51-0.63 8.96-1.12 13.4 12.2 0.37 24.5 0.67 36.7 0.91 5.68 0.12 11.4 0.25 17 0.42 5.49 0.17 11 0.29 16.5 0.37 2.09 0.04 4.18 0.1 6.27 0.18 11.4 0.77 11.4 0.77 21.8-3.04 2.28-2.51 4.03-4.92 5.75-7.84 0.86-1.08 1.72-2.16 2.61-3.22 0.71-0.94 1.41-1.87 2.14-2.84 0.84-1.1 1.67-2.2 2.5-3.3 0.44-0.58 0.88-1.15 1.33-1.75 2.7-3.58 5.44-7.14 8.17-10.7 1.57-2.05 3.14-4.1 4.7-6.16 1.07-1.4 2.18-2.78 3.31-4.14 3.23-3.79 3.23-3.79 4.43-8.45-1.69-3.46-3.88-6.42-6.25-9.44-0.52-0.68-1.04-1.36-1.58-2.06-1.15-1.5-2.31-2.99-3.46-4.49-2.75-3.54-5.46-7.11-8.17-10.7l-6.06-7.95c-0.93-1.22-0.93-1.22-1.87-2.46-1.19-1.56-2.39-3.11-3.61-4.65-0.82-1.06-0.82-1.06-1.66-2.14-0.49-0.62-0.98-1.24-1.48-1.88-1.05-1.69-1.05-1.69-1.05-4.69 2.26-0.27 2.26-0.27 5 0 1.99 1.84 1.99 1.84 3.88 4.38 1.02 1.36 1.02 1.36 2.06 2.75 2.53 3.53 5.06 7.06 7.52 10.6 1.04 1.49 2.12 2.96 3.24 4.39 1.3 1.83 1.3 1.83 1.3 3.83h2c1.23 1.62 1.23 1.62 2.63 3.88 3.43 5.34 7.34 10.2 11.4 15.1 3.03-1.32 4.73-2.56 6.67-5.23 0.47-0.65 0.95-1.3 1.44-1.97 0.5-0.7 1-1.39 1.52-2.11 1.07-1.46 2.14-2.92 3.22-4.38 0.53-0.73 1.06-1.46 1.61-2.21 2.96-4.02 6.03-7.96 9.09-11.9 1.74-2.25 3.46-4.53 5.16-6.81 0.44-0.6 0.89-1.19 1.35-1.81 0.85-1.14 1.7-2.28 2.54-3.43 2.19-2.9 3.97-4.86 7.4-6.14l1 3c-1.64 2.53-3.32 4.83-5.19 7.19-1.11 1.45-2.23 2.9-3.35 4.36-0.87 1.11-0.87 1.11-1.75 2.24-2.61 3.38-5.16 6.8-7.71 10.2-0.98 1.32-1.97 2.63-2.95 3.94-0.49 0.66-0.99 1.32-1.5 1.99-4.51 6.03-9.03 12-13.6 18.1 1.78 3.04 3.62 5.95 5.75 8.75 0.53 0.7 1.05 1.39 1.6 2.1 2.21 2.87 4.43 5.73 6.66 8.59 2.83 3.64 5.64 7.3 8.44 11 1.9 2.47 3.81 4.91 5.79 7.31 1.76 2.29 1.76 2.29 2.76 5.29 1.15 1.12 1.15 1.12 2.31 2.25 3.02 3.09 4.68 5.96 6.69 9.75-3.17 0-5.3-0.33-7.64-2.56-0.56-0.66-1.11-1.31-1.68-1.99-0.61-0.73-1.22-1.45-1.85-2.2-2.77-3.4-5.44-6.87-8.08-10.4-1.13-1.49-2.26-2.99-3.4-4.48-0.84-1.1-0.84-1.1-1.69-2.23-2.48-3.25-5-6.46-7.53-9.67-0.45-0.56-0.9-1.13-1.36-1.72-0.65-0.82-0.65-0.82-1.31-1.66-3.17-4.02-6.32-8.07-9.46-12.1-3.75 3.61-7.01 7.39-10.2 11.5-0.47 0.61-0.94 1.22-1.43 1.85-1.47 1.88-2.92 3.77-4.38 5.65-0.87 1.13-1.75 2.26-2.62 3.39-4.85 6.27-9.63 12.6-14.4 19-0.66 0.87-1.33 1.75-2.01 2.65-0.6 0.92-1.2 1.84-1.82 2.78-3.26 3.33-6.77 3.14-11.3 3.29-2.42 0.02-4.84 0-7.26-0.03-0.91-0.01-1.83-0.01-2.77-0.02-3.01-0.03-6.01-0.07-9.01-0.1-2.1-0.02-4.19-0.05-6.28-0.07-4.38-0.04-8.75-0.09-13.1-0.14-5.61-0.07-11.2-0.13-16.8-0.18-4.31-0.04-8.63-0.09-13-0.14l-6.21-0.06c-2.89-0.03-5.78-0.07-8.66-0.11-1.29-0.01-1.29-0.01-2.61-0.02-5.91-0.08-5.91-0.08-8.14-1.2v-145c3.39-1.69 7.23-1.13 11-1.11z" fill="#303032"/>
<path transform="translate(942 839)" d="m0 0c13.7 11.3 18.6 28.6 20.3 45.7 0.31 3.73 0.06 6.78-0.75 10.4-0.11 1.36-0.22 2.71-0.31 4.07-1.44 13.2-7.92 26-17.7 34.9-11.2 8.22-21.5 10.2-35.2 8.64-10.6-1.9-22-7.9-28.5-16.8-1.29-1.97-2.34-3.97-3.38-6.09-0.35-0.71-0.7-1.42-1.06-2.16-0.26-0.53-0.52-1.07-0.79-1.63 0.01 0.74 0.02 1.47 0.02 2.23 0.06 6.92 0.11 13.8 0.14 20.8 0.01 3.56 0.03 7.11 0.07 10.7 0.04 4.08 0.05 8.17 0.07 12.2 0.01 1.28 0.03 2.56 0.04 3.88v3.58c0.01 1.05 0.02 2.09 0.02 3.16-0.12 0.82-0.23 1.64-0.36 2.48-1.48 1-1.48 1-3 2-0.99-0.65-1.98-1.31-3-2-0.38-2.39-0.38-2.39-0.38-5.45-0.01-1.74-0.01-1.74-0.02-3.52 0-1.28 0.01-2.56 0.01-3.87 0-1.36-0.01-2.71-0.01-4.07-0.02-3.68-0.01-7.37 0-11.1 0.01-3.85 0-7.7 0-11.6-0.01-6.48 0-13 0.01-19.4 0.02-7.49 0.01-15 0-22.5-0.02-6.42-0.02-12.8-0.01-19.3 0-3.84 0-7.67-0.01-11.5-0.01-3.61 0-7.22 0.02-10.8 0-1.96 0-3.92-0.01-5.88 0-1.16 0.01-2.32 0.02-3.52v-3.07c0.44-2.87 1.13-3.76 3.38-5.52 2.03 1.66 2.93 2.51 3.33 5.15-0.02 0.81-0.05 1.62-0.07 2.45-0.01 0.89-0.03 1.77-0.04 2.68-0.03 0.92-0.06 1.84-0.09 2.79-0.05 1.82-0.09 3.65-0.12 5.47-0.02 0.81-0.05 1.62-0.07 2.45-0.08 2.09-0.08 2.09 1.06 4.01 0.28-0.55 0.56-1.11 0.85-1.68 6.46-12.3 15.4-19.9 28.6-24.5 13.5-3.03 25-0.47 37 6.07zm-50.4 6.12c-1.2 0.9-1.2 0.9-2.43 1.81-8.32 7.1-12.7 18.6-14.6 29.2-1.18 17.3-1.25 32.4 9 47 8.3 9.22 18.6 15.3 31.2 16.1 11.4-0.35 20.6-3.07 28.8-11.1 13.3-15.4 14.3-32.4 13-52-1.18-9.33-4.57-17.4-10-25-0.62-0.9-1.23-1.81-1.87-2.74-7.72-8.18-15.8-11.3-26.9-11.7-9.45 0.21-18.7 2.46-26.2 8.43z" fill="#303032"/>
<path transform="translate(1095,836)" d="m0 0c0.95 0.49 1.89 0.97 2.87 1.47 12 6.87 17.3 17.9 21.1 30.9 1.59 6.33 2.56 12.1 2.03 18.7-2.55 2.55-4.17 2.24-7.64 2.25-0.79-0.01-1.58-0.02-2.39-0.02h-2.51c-2.75 0-5.5-0.02-8.25-0.03-1.9-0.01-3.8-0.01-5.71-0.01-5.01-0.01-10-0.03-15-0.05-5.11-0.02-10.2-0.03-15.3-0.04-10-0.02-20.1-0.06-30.1-0.1-2.83 5.66 0.66 17.4 2.19 23.4 3.32 9.85 11.3 16.9 20.2 21.9 10.2 4.49 25 4.67 35.4 0.78 8.27-4.14 15.6-9.6 19.1-18.4 0.5-1.52 0.98-3.04 1.42-4.58 0.9-2.88 2.23-5.47 3.66-8.12h2c1.68 7.09-0.73 11.7-4 18-6.98 11.1-17.4 17.9-30 21-15 1.04-28.3-0.63-40.6-9.94-11.8-10.7-15.6-27-16.4-42.4 0-14.8 3.53-28.5 12-40.6 0.72-1.05 0.72-1.05 1.45-2.12 12.4-16 36.8-21 54.6-11.9zm-52 15.5c-3.96 6.29-6.76 12.4-9.02 19.5-0.41 1.09-0.83 2.19-1.25 3.31-0.84 3.02-0.97 5.57-0.75 8.69 1.75 1.75 4.05 1.12 6.39 1.12 0.77 0 1.55 0 2.34-0.01h2.46c2.69 0 5.37 0 8.06-0.01 1.86 0 3.72-0.01 5.58-0.01 4.91 0 9.81-0.01 14.7-0.02 5-0.01 10-0.02 15-0.02 9.82-0.01 19.6-0.03 29.5-0.05-0.14-2.06-0.28-4.12-0.43-6.18-0.07-1.14-0.15-2.29-0.24-3.47-1.05-10.6-5.94-20.7-13.3-28.4-2.11-0.63-2.11-0.63-4-1-0.49-1.49-0.49-1.49-1-3-16.8-11.5-41.8-5.99-54 9.51z" fill="#303032"/>
<path transform="translate(1269 832)" d="m0 0h2.67c6.82 0.13 12.4 1.25 18.5 4.38 0.99 0.39 0.99 0.39 2 0.8 6.97 3.15 10.1 10.7 12.9 17.4 1.18 3.99 1.38 6.72 1.13 10.8h-4c-0.98-2.34-1.9-4.67-2.63-7.09-2.08-6.91-4.56-11.9-10.5-16.2-1.27-0.62-2.57-1.2-3.87-1.74-0.73-0.33-1.45-0.65-2.19-0.98-9.97-3.59-22.3-2.2-32.2 1.09-6.67 3.19-10.8 6.94-13.6 13.9-1.26 4.72-1.51 8.77 0.82 13.3 7.08 10.4 19.1 12.4 30.5 15.4 1.13 0.29 2.26 0.59 3.42 0.89 2.23 0.58 4.47 1.15 6.71 1.69 19 4.85 19 4.85 24.5 11.8v2h2c3.57 7.48 5.69 14.2 3.3 22.4-3.83 9.49-10.2 15.4-19.4 19.6-12.7 4.65-30.3 3.23-42.4-2.33-8.89-4.27-13.7-9.54-17.4-18.6-1.53-4.59-2.58-9.16-2-14 1.48-1 1.48-1 3-2 2.71 2.71 2.69 4.93 3.37 8.68 1.67 8 3.3 12.8 9.82 18 11.8 7.63 25.3 8.29 38.8 5.81 6.99-1.67 13.9-4.38 18.4-10.2 3.2-5.49 3.57-11.1 2.68-17.3-1.69-5.61-4.82-10.1-10-13-8.42-3.58-17.1-5.92-26-8-8.27-2.04-16.2-4.71-24-8-0.74-0.31-1.48-0.62-2.24-0.93-5.03-2.44-6.93-6.03-8.76-11.1-2.28-8.05-0.39-14.6 3-22 4.43-7.12 11.9-10.8 19.7-13.2 4.68-1.08 9.28-1.24 14.1-1.23z" fill="#303032"/>
<path transform="translate(1198 838)" d="m0 0c6.97 5.75 11.3 14.3 12.3 23.2 0.06 1.26 0.13 2.52 0.19 3.81h-4c-2.38-2.38-2.35-3.36-2.81-6.62-1.24-6.43-3.24-11.1-8.53-15.2-10.4-6.6-23.6-6.77-35.6-4.45-6.18 1.8-11.6 3.66-15.4 9.1-3 6.16-4.73 11.6-2.61 18.3 3 6.83 8.34 9.19 14.9 11.8 6.49 2.26 13.2 3.81 19.9 5.48 26.8 6.73 26.8 6.73 33.5 16.5 3.6 6.81 3.95 14.8 2.18 22.2-0.68 1.74-0.68 1.74-2.49 4.86-0.32 0.58-0.63 1.17-0.96 1.76-4.21 6.89-11.4 10.5-18.8 13.2-12.5 3.01-28.7 1.62-40.2-3.94-0.91-0.42-1.82-0.84-2.76-1.28-6.41-3.37-9.53-7.05-12.2-13.7-0.48-1.13-0.48-1.13-0.96-2.29-1.89-5.04-2.6-9.34-2.04-14.7 1.48-0.99 1.48-0.99 3-2 2.26 3.4 2.61 5.76 3.31 9.75 1.73 8.29 4.03 12.5 10.8 17.5 11.5 7 25.3 7.24 38.3 5.21 8.12-2.02 13.6-5.6 18.5-12.5 2.53-5.66 2.77-10.6 0.88-16.5-4.91-9.16-10.4-12.5-20.2-15.5-3.56-1.04-7.12-2.02-10.7-2.98-3.67-0.99-7.34-1.98-11-3-1.58-0.42-1.58-0.42-3.18-0.86-19.1-5.46-19.1-5.46-23.4-12.8-2.85-6.97-3.66-14.3-1.26-21.6 3.69-8.56 10.5-13.7 19-17.1 13.7-4.3 30-3.27 42.4 4.19z" fill="#303032"/>
<path transform="translate(996 304)" d="m0 0c7.79 3.06 15.8 6.63 19.9 14.4 0.84 2.73 0.61 5.12-0.01 7.88-0.44 2.53-0.17 4.72 0.07 7.27 0.02 2.94 0 4.33-1.87 6.63-2.11 1.62-4.26 2.93-6.57 4.25-0.85 0.57-1.7 1.14-2.58 1.73-6.67 4.36-6.67 4.36-9.8 3.96-4.3-1.14-7.98-3.27-11.9-5.38-0.83-0.42-1.66-0.85-2.51-1.28-5.96-3.24-5.96-3.24-7.28-6.96 0.02-1.01 0.03-2.03 0.04-3.07-0.06-1.08-0.11-2.15-0.17-3.26 0-1.09-0.01-2.18-0.02-3.31-0.01-1.09-0.03-2.19-0.04-3.31 0.34-4.55 1.09-7.08 4.49-10.2 12.3-8.67 12.3-8.67 18.2-9.3z" fill="#5A9A55"/>
<path transform="translate(744 478)" d="m0 0c0.67 0.17 1.34 0.34 2.03 0.52 5.06 1.66 6.86 3.35 9.41 8.17 2.45 5.2 3.3 8.69 1.65 14.2-2.38 5.25-5.56 8.9-10.8 11.3-4.73 1.44-8.67 0.81-13.2-1.06-3.87-2.22-7.06-4.55-9.5-8.31-1.2-6.48-1.34-12.1 2.5-17.7 2.13-1.19 2.13-1.19 4-2l1-3c2.88-1.13 2.88-1.13 6-2 3.14-1.05 3.9-1 6.94-0.19z" fill="#FBFDFD"/>
<path transform="translate(1026,832)" d="m0 0c0.49 1.98 0.49 1.98 1 4-2.31 1.16-3.8 1.13-6.38 1.25-9.78 0.93-19.3 5.09-25.6 12.8-5.42 8.01-8 15.4-9 25-0.25 1.38-0.25 1.38-0.51 2.79-0.48 3.16-0.61 6.11-0.6 9.31v3.58c0 1.25 0.01 2.51 0.01 3.81 0 1.95 0 1.95 0.01 3.94 0 3.45 0.01 6.89 0.02 10.3 0.01 3.52 0.02 7.04 0.02 10.6 0.01 6.89 0.03 13.8 0.05 20.7l-5-1c-0.02-13.1-0.04-26.2-0.05-39.4-0.01-6.09-0.01-12.2-0.03-18.3-0.01-5.88-0.01-11.8-0.01-17.6-0.01-2.25-0.01-4.49-0.02-6.74v-9.41c-0.01-0.93-0.01-1.87-0.01-2.83v-2.58-2.25c0.12-1.95 0.12-1.95 1.12-4.95 1.98 0.5 1.98 0.5 4 1-0.01 0.86-0.01 0.86-0.02 1.73-0.02 2.57-0.03 5.14-0.04 7.71-0.01 0.9-0.02 1.79-0.03 2.72 0 0.85 0 1.71-0.01 2.59 0 0.79-0.01 1.58-0.01 2.39-0.09 1.88-0.09 1.88 1.11 2.86 0.26-0.56 0.51-1.11 0.78-1.69 5.39-10.8 14.1-17 25.2-21.3 4.76-1.01 9.16-1.08 14-1z" fill="#303032"/>
<path transform="translate(744 478)" d="m0 0c0.67 0.17 1.34 0.34 2.03 0.52 5.06 1.66 6.86 3.35 9.41 8.17 2.45 5.2 3.3 8.69 1.65 14.2-2.38 5.25-5.56 8.9-10.8 11.3-4.73 1.44-8.67 0.81-13.2-1.06-3.87-2.22-7.06-4.55-9.5-8.31-1.2-6.48-1.34-12.1 2.5-17.7 2.13-1.19 2.13-1.19 4-2l1-3c2.88-1.13 2.88-1.13 6-2 3.14-1.05 3.9-1 6.94-0.19zm-14.6 7.67c-3.45 4.08-4.16 7.94-3.87 13.2 0.78 3.71 2.43 5.15 5.48 7.3 6.02 3.23 10.6 3.59 17.2 2.43 3.09-1.61 4.14-3.02 5.27-6.31 1.15-5.05 1.58-9.63-0.55-14.5-2.5-3.83-4.92-6.08-9.34-7.4-5.9-0.83-9.96 1.29-14.2 5.23z" fill="#5A9A55"/>
<path transform="translate(744,485)" d="m0 0c2.53 3.79 2.22 6.81 2.12 11.2 0 0.75-0.01 1.5-0.02 2.27-0.03 1.85-0.06 3.69-0.1 5.54-0.99-0.33-1.98-0.66-3-1-1.19-2.56-1.19-2.56-2-5-0.99 0.33-1.98 0.66-3 1-1.23 3.51-1.23 3.51-2 7-2.61-3.91-3.16-5.72-3.19-10.4-0.01-0.95-0.03-1.91-0.04-2.89 0.24-2.79 0.71-4.4 2.23-6.73 3.04-1.52 5.65-1.24 9-1z" fill="#6EA669"/>
<path transform="translate(855,931)" d="m0 0c6 2.4 6 2.4 8 5 0.69 2.19 0.69 2.19 1 4-0.99 0.33-1.98 0.66-3 1-1.98-3.3-3.96-6.6-6-10z" fill="#F6FAF7"/>
</svg>
