<?xml version="1.0" encoding="UTF-8"?>
<svg version="1.1" viewBox="0 0 1600 1168" width="1280" height="1280" xmlns="http://www.w3.org/2000/svg">
<path transform="translate(0)" d="m0 0h1600v1168h-1600v-1168z" fill="#FBFFFF"/>
<path transform="translate(723,301)" d="m0 0c1.05 0.37 2.1 0.74 3.18 1.12 15.3 5.88 29.2 14.6 41.8 24.9 1.7 1.31 3.41 2.61 5.12 3.9 4.92 3.73 9.72 7.57 14.3 11.7 1.75 1.58 1.75 1.58 4.59 3.38 3.74-0.27 5.57-2.21 8.19-4.75 12.7-11.7 27-21.4 41.8-30.2 0.98-0.59 0.98-0.59 1.98-1.18 18.1-10.7 40.6-19.1 61.7-13.9 2.94 1.17 5.58 2.47 8.3 4.09 0.73 0.43 1.46 0.87 2.22 1.32 13.9 9.41 20.6 25.8 23.8 41.7 1.71 9.03 2.32 17.8 2.25 26.9-0.01 1.26-0.01 2.53-0.02 3.83-0.21 19.4-2.78 38.2-6.23 57.2 0.61 0.17 1.22 0.35 1.85 0.53 6.03 1.75 11.8 3.79 17.6 6.16 0.86 0.35 1.72 0.69 2.6 1.05 2.64 1.08 5.27 2.17 7.9 3.26 0.8 0.33 1.6 0.66 2.43 1.01 14.3 5.99 27.6 13 39.6 23 1.4 1.07 1.4 1.07 2.82 2.16 12 9.43 22.8 21.6 26.2 36.8 0.96 15.9-1.4 28.6-11.8 41.2-2 2.15-4.05 4.21-6.15 6.26-1.12 1.1-1.12 1.1-2.25 2.22-6.45 6.23-13.2 11.5-20.8 16.3-0.91 0.6-1.82 1.19-2.76 1.8-17.3 10.7-37 17.8-56.2 24.2 0.35 5.91 1.06 11.6 2.44 17.3 3.7 16.6 4 33.8 3.56 50.7-0.01 0.73-0.03 1.46-0.04 2.21-0.45 19.6-5.42 40.8-20 54.8-13.7 10.5-28.6 10.6-45.4 8.73-4.4-0.75-8.46-2.12-12.6-3.73-0.67-0.26-1.35-0.52-2.04-0.78-17.1-6.67-33.1-16.2-47.3-27.8-1.97-1.61-3.96-3.2-5.94-4.8-2.81-2.26-5.63-4.52-8.42-6.8-0.58-0.47-1.15-0.94-1.74-1.41-1.61-1.39-3.11-2.85-4.6-4.38-4.2 1.39-6.66 3.3-9.81 6.38-24.2 22.6-58.3 45.5-92.5 45-13.9-0.51-25.3-5.77-34.9-16-18.5-24.2-17.3-58.8-13.8-87.4 0.81-5.82 1.7-11.6 2.68-17.4 0.88-5.28 1.55-10.2 1.32-15.6-0.8-0.26-0.8-0.26-1.61-0.53-15.3-5.04-30.2-10.8-44.4-18.5-1-0.53-1-0.53-2.01-1.07-20.5-10.9-41.4-24.4-50-46.9-0.35-0.91-0.71-1.81-1.07-2.75-3.52-10.2-2.28-18.5 2.07-28.2 0.39-0.87 0.78-1.75 1.18-2.65 6.68-13.5 17.4-24 29.8-32.4 0.64-0.43 1.27-0.86 1.93-1.3 17.4-11.6 36.5-20.8 56.4-27.1 0.86-0.29 1.72-0.58 2.61-0.87 0.76-0.24 1.51-0.48 2.29-0.72 1.87-0.86 1.87-0.86 2.55-2.7 0.25-3.1-0.22-5.81-0.77-8.87-0.23-1.29-0.45-2.58-0.68-3.91-0.24-1.36-0.49-2.72-0.74-4.08-5.71-32-8.51-70 10.4-98.4 17.4-22.6 42.1-23.1 67-14z" fill="#56B8D3"/>
<path transform="translate(779 434)" d="m0 0h3.41 7.08c3.56 0.01 7.13 0 10.7-0 19.4-0.01 19.4-0.01 28.4 0.39 1.64 0.07 1.64 0.07 3.31 0.14 4.89 1.04 7.84 4.16 10.5 8.23 0.47 0.69 0.93 1.39 1.41 2.11 0.48 0.74 0.97 1.49 1.46 2.26 0.52 0.79 1.04 1.59 1.58 2.4 9.94 15.3 19.1 31.1 27.6 47.2 0.8 1.5 1.6 3 2.42 4.5 5.5 10.1 5.5 10.1 4.74 15.2-2.45 7.2-6.31 14-9.88 20.7-0.44 0.84-0.88 1.68-1.34 2.54-25.8 48.7-25.8 48.7-36.7 52.5-11.7 1.88-24 1.2-35.8 1.19h-3.15c-12.1-0.03-24.2-0.06-36.2-0.87-0.97-0.06-1.94-0.11-2.94-0.17-4.33-0.37-6.38-0.7-9.85-3.48-0.69-0.88-1.38-1.76-2.09-2.67-0.57-0.66-1.15-1.32-1.74-2-8.91-11.3-15.5-24-22.4-36.7-2.4-4.43-4.88-8.8-7.41-13.2-2.85-4.94-5.32-9.91-7.5-15.2l-1-2c-0.49-5.06 0.85-8.5 3.19-12.9 0.35-0.68 0.71-1.37 1.07-2.07 0.8-1.52 1.6-3.04 2.41-4.56 1.41-2.65 2.8-5.31 4.19-7.97 5.84-11 12-21.9 18.5-32.5 0.65-1.08 1.3-2.16 1.98-3.27 9.44-15.3 9.44-15.3 15.8-18.2 9.33-1.38 18.6-1.72 28-1.7z" fill="#FBFFFF"/>
<path transform="translate(939,455)" d="m0 0c3.21 1.33 6.32 2.81 9.45 4.33 3.59 1.69 7.22 3.13 10.9 4.55 13.5 5.27 27.6 12.5 38.6 22.1v2h2v2h2c1.55 1.65 3.01 3.37 4.44 5.12 0.78 0.96 1.56 1.91 2.37 2.89 4.91 6.71 6.97 12.7 6.19 21-3.42 14.1-18 24.4-29.8 31.8-13.5 8.03-27.6 15.1-42.6 19.9-0.77 0.25-1.55 0.51-2.34 0.77-4.44 1.35-7.61 1.75-12.2 0.54-0.18-0.61-0.35-1.22-0.53-1.84-3.61-12.4-7.54-24.4-12.7-36.3-1.74-4.1-3.29-8.29-4.86-12.5-0.89-2.4-0.89-2.4-1.95-4.44 0.3-7.73 2.67-14 5.56-21.1 3.9-9.82 7.54-19.7 10.9-29.7 0.3-0.89 0.6-1.78 0.92-2.7 0.26-0.78 0.52-1.56 0.79-2.36 2.66-7.13 5.36-8.02 12.8-6.15z" fill="#FBFFFF"/>
<path transform="translate(733,331)" d="m0 0c1.05 0.56 2.11 1.11 3.2 1.69 8.28 4.59 15.5 10.3 22.8 16.3 0.91 0.75 0.91 0.75 1.84 1.51 1.79 1.47 3.57 2.94 5.35 4.43 0.54 0.45 1.08 0.89 1.64 1.36 5.46 4.62 5.46 4.62 7.17 7.7-0.01 4.16-3.22 6.69-5.94 9.5-1.01 1.08-2.02 2.15-3.03 3.23-0.51 0.55-1.02 1.1-1.55 1.66-6.96 7.55-13.2 15.7-19.2 24-0.48 0.64-0.95 1.29-1.43 1.95-0.41 0.56-0.82 1.12-1.24 1.7-0.53 0.65-1.07 1.29-1.62 1.96-0.41 0.5-0.82 0.99-1.24 1.5-3.7 4.12-6.98 5.56-12.5 6.26-0.74 0.11-1.47 0.23-2.23 0.34-2.37 0.37-4.74 0.7-7.11 1.02-1.63 0.25-3.26 0.49-4.89 0.74-2.43 0.37-4.86 0.74-7.29 1.1-7.25 1.08-14.4 2.46-21.6 4.01-4.34 0.89-7.89 1.33-12.2 0.03-1.96-2.95-2.43-4.4-3.04-7.79-0.16-0.94-0.33-1.88-0.51-2.85-0.25-1.48-0.25-1.48-0.51-2.98-0.18-0.97-0.35-1.93-0.53-2.92-1.93-10.9-2.65-21.4-2.66-32.5v-2.09c0.02-15.9 0.64-33.2 10.6-46.4 16.7-15.9 40.6-3.58 57.6 5.5z" fill="#FBFFFF"/>
<path transform="translate(677 603)" d="m0 0c1.05 0.21 2.1 0.41 3.18 0.62 1.17 0.22 2.33 0.44 3.54 0.67 1.86 0.38 1.86 0.38 3.76 0.76l7.68 1.47c1.86 0.36 1.86 0.36 3.76 0.74 4.26 0.83 8.53 1.6 12.8 2.36 1.94 0.35 1.94 0.35 3.92 0.7 4.9 0.8 9.82 1.33 14.8 1.79 5.52 1.53 8.58 6.45 12.1 10.8 0.79 0.96 1.57 1.92 2.37 2.91 1.72 2.14 3.41 4.31 5.08 6.49 5.83 7.58 12 14.7 18.6 21.6 6.82 7.24 6.82 7.24 6.91 10.1-1.53 2.88-3.67 4.84-6.06 7-0.61 0.58-1.22 1.15-1.84 1.75-19 17.6-47.9 38-74.8 37.5-7.57-0.68-13.4-4.49-18.3-10.2-15.9-25.7-9.59-63.7-3.84-91.5 1.26-3.76 2.31-5.55 6.48-5.44z" fill="#FBFFFF"/>
<path transform="translate(655,454)" d="m0 0c3.29 6.15 5.53 12.3 7.62 18.9 3.24 10.1 7.01 19.9 11.3 29.6 5.03 11.9 1.64 19.4-3 31-1.01 2.57-2 5.14-2.99 7.71-0.25 0.64-0.5 1.28-0.76 1.95-3.77 9.79-6.98 19.8-10.2 29.8-6.92-0.5-12.6-2.01-19.1-4.56-0.92-0.36-1.84-0.72-2.78-1.09-8.32-3.3-16.3-7.06-24.2-11.4-0.7-0.38-1.4-0.76-2.12-1.15-13.8-7.5-33.7-18.8-38.5-34.8-1.82-8.94 0.7-14.4 5.59-22 13.2-19.4 55.9-44 79-44z" fill="#FBFFFF"/>
<path transform="translate(912,603)" d="m0 0c3.29 5.5 4.14 11.1 5.12 17.4 0.26 1.6 0.26 1.6 0.53 3.24 1.31 8.47 2.14 16.8 2.35 25.4 0.06 1.93 0.06 1.93 0.12 3.9 0.29 17.3-0.41 36.7-11.1 51.1-7.92 5.98-15.6 5.86-25.2 4.57-28.4-5.77-52.9-25.6-73.8-44.6 2.33-5.49 5.65-9.11 9.75-13.3 4.46-4.68 8.74-9.33 12.6-14.5 2.72-3.61 5.63-7.05 8.51-10.5 2.32-2.89 4.43-5.88 6.45-8.99 4.28-4.22 10.1-5.07 15.9-5.62 6.25-0.68 12.4-1.61 18.6-2.77 0.83-0.15 1.66-0.3 2.51-0.46 2.52-0.48 5.04-0.96 7.57-1.43 2.58-0.49 5.16-0.98 7.74-1.46l4.77-0.9c5.39-1.02 5.39-1.02 7.61-1.02z" fill="#FBFFFF"/>
<path transform="translate(904 320)" d="m0 0c9.29 7.25 12.1 18.2 14.5 29.2 0.18 0.73 0.35 1.45 0.53 2.2 0.61 3.64 0.67 7.23 0.71 10.9 0.01 0.79 0.02 1.58 0.03 2.39 0.02 2.57 0.03 5.13 0.04 7.7 0.01 0.87 0.01 1.74 0.01 2.63 0.04 34.2 0.04 34.2-6.32 49.2-10.2-0.75-20-2.89-30-4.92-2.32-0.46-4.65-0.93-6.97-1.39-1.13-0.23-1.13-0.23-2.29-0.46-6.2-1.2-12.4-2.03-18.7-2.72-4.88-0.82-7.2-2.32-10.1-6.26-0.6-0.8-1.2-1.6-1.82-2.42-0.7-0.94-1.4-1.87-2.12-2.83-1.8-2.35-3.62-4.68-5.44-7-0.47-0.6-0.93-1.2-1.42-1.82-3.41-4.34-7-8.48-10.8-12.5-1.36-1.67-1.36-1.67-1.36-3.67h-2c-1.59-1.69-3.1-3.46-4.56-5.25-0.81-0.98-1.61-1.95-2.44-2.96-1.75-2.44-2.6-3.87-3-6.79 6.45-5.99 12.9-11.8 20-17 0.71-0.53 1.42-1.06 2.15-1.6 11.2-8.05 22.9-15.4 35.5-21 0.73-0.32 1.45-0.64 2.19-0.97 9.92-4.26 23.6-8.09 33.7-2.65z" fill="#FBFFFF"/>
<path transform="translate(826 476)" d="m0 0c11 9.27 17.2 21.6 18.4 35.8 0.48 12.4-4.05 23.9-12.1 33.3-4.45 4.62-4.45 4.62-8.16 5.86l-1.42 1.42c-1.84 1.83-3.53 2.66-5.89 3.7-1.11 0.5-1.11 0.5-2.24 1.01-11.8 4.16-25 2.61-36.2-2.35-11-5.49-19.7-14.2-23.9-25.9-1.57-4.84-1.84-9.29-1.77-14.3-0.01-0.8-0.02-1.59-0.03-2.4 0.06-12.1 5.9-23.6 14.4-32.1 18.3-13.6 39.2-17.9 58.8-3.88z" fill="#56B8D3"/>
<path transform="translate(612 776)" d="m0 0c1.13-0 2.26-0.01 3.43-0.01 1.18 0.01 2.37 0.02 3.59 0.03 1.17-0.01 2.33-0.02 3.53-0.03 8.51 0.02 16.5 0.5 23.8 5.28 5.82 6.51 7.33 11.4 7.2 20.1-0.42 6.07-3.01 8.91-7.39 12.8-1.26 1.05-2.53 2.1-3.81 3.13 4.21 8.38 9.3 15.8 14.8 23.4 1.79 2.49 3.48 5.05 5.17 7.63-2.73-0.04-5.46-0.1-8.19-0.19-0.77-0.01-1.54-0.01-2.33-0.02-4.12-0.16-5.98-0.4-9.31-3.02-2.05-2.61-3.92-5.2-5.67-8.02-0.6-0.96-1.2-1.91-1.81-2.89-1.54-2.61-2.87-5.26-4.19-7.99-1.09-2.18-1.09-2.18-2.5-3.87-3.62-1.31-3.62-1.31-7-1-1.75 1.74-1.23 4.19-1.32 6.56-0.04 1.13-0.08 2.25-0.12 3.41-0.04 1.18-0.08 2.37-0.12 3.59-0.05 1.19-0.09 2.37-0.13 3.6-0.11 2.94-0.21 5.89-0.31 8.84-2.15 0.02-4.29 0.04-6.44 0.06-1.19 0.01-2.39 0.02-3.62 0.03-2.94-0.09-2.94-0.09-3.94-1.09-0.14-2.11-0.2-4.22-0.24-6.33-0.01-0.66-0.02-1.32-0.04-2-0.04-2.19-0.07-4.38-0.11-6.58-0.02-1.52-0.05-3.03-0.08-4.55-0.05-3.19-0.1-6.38-0.14-9.56-0.06-4.09-0.14-8.18-0.22-12.3l-0.15-9.42c-0.02-1.5-0.05-3.01-0.08-4.52-0.04-2.11-0.07-4.21-0.09-6.32-0.02-1.2-0.04-2.4-0.06-3.64 0.4-5.33 3.2-5.07 7.81-5.08z" fill="#56B8D3"/>
<path transform="translate(764 795)" d="m0 0c4.28 3.44 6.86 6.71 7.58 12.3 0.13 3.08 0.12 6.16 0.1 9.24v2.67c-0.01 2.8-0.02 5.6-0.04 8.4 0 1.91-0.01 3.81-0.01 5.71-0.01 4.66-0.03 9.32-0.05 14-1.62 0.03-3.25 0.05-4.87 0.06-0.91 0.01-1.81 0.03-2.75 0.04-2.38-0.1-2.38-0.1-4.38-1.1v-4c-0.68 0.43-1.36 0.87-2.06 1.31-7.77 4.47-13.9 5.87-22.9 4.69-4.51-1.64-7.19-3.89-10-7.75-1.67-5.45-1.74-10.1 0.13-15.5 3.97-5.82 8.18-8.38 14.9-10.2 5.95-1.11 12-1.33 18-1.56-1.1-2.84-2.29-5.47-4-8-4.56-1.96-8.89-0.55-13.5 0.62-2.82 0.43-4.75 0.21-7.47-0.62-1.94-2.4-3.06-3.89-2.89-7.03 0.89-1.97 0.89-1.97 3.09-3.24 9.73-3.27 21.9-5.73 31.2 0z" fill="#56B8D3"/>
<path transform="translate(705 795)" d="m0 0c5.5 3.46 7.88 8.53 10.2 14.4v15h-32l-1 5c3.12 4.07 5.97 6.09 11 7 5.29-0.14 10.5-0.74 15.7-1.62 1.14-0.19 1.14-0.19 2.31-0.38 1 1 1 1 1.1 3.29-0.01 0.91-0.03 1.83-0.04 2.77-0.01 0.92-0.02 1.84-0.02 2.79-0.02 0.71-0.03 1.42-0.04 2.15-10.1 3.9-21.4 4.79-31.7 1.17-7.16-3.61-11.8-8.57-14.3-16.2-0.42-2.97-0.48-5.87-0.44-8.87 0.01-0.8 0.02-1.59 0.03-2.41 0.16-5.97 0.97-10.7 4.41-15.7 0.41-0.64 0.83-1.28 1.25-1.94 7.82-10.6 22.2-11.5 33.5-6.46z" fill="#56B8D3"/>
<path transform="translate(977,779)" d="m0 0 2 2c-0.3 4.09-0.88 7.46-3 11-4.34-0.47-8.36-1.08-12.6-2.25-3.2-0.73-5.29-0.83-8.38 0.31-3.31 2.1-4.15 3.19-5.06 6.94 4.54 5.05 9.73 7.89 15.7 11.1 6.08 3.41 10.4 7.3 13.7 13.5 1.48 5.54 1.32 11.3-0.42 16.7-3.75 5.2-7.37 8.64-13.8 10.1-9.31 1.37-21 1.86-29.5-2.6-1.66-1.78-1.66-1.78-2.05-4.48 0.05-0.99 0.09-1.97 0.14-2.99 0.04-0.99 0.07-1.99 0.11-3.01 0.05-0.76 0.09-1.52 0.14-2.3 3.37-1.15 5.09-0.82 8.38 0.44 6.42 2.08 12.9 2.23 19.6 1.56l3-2c-0.31-4.89-0.31-4.89-2.66-9.03-2.69-2.26-5.39-3.71-8.53-5.28-6.82-3.6-13.2-7.2-17.9-13.5-1.78-6.06-1.92-11.8 0.75-17.6 8.01-13.8 27-14.6 40.3-8.62z" fill="#56B8D3"/>
<path transform="translate(922,779)" d="m0 0c-0.06 9.36-0.14 18.7-0.24 28.1-0.04 4.35-0.08 8.69-0.11 13-0.02 4.2-0.06 8.41-0.11 12.6-0.02 1.59-0.03 3.19-0.04 4.79-0.08 18-0.08 18-4.98 25.8-5.52 5.25-11.5 5.68-18.8 5.84-3.43-0.2-5.66-0.71-8.71-2.22-0.03-1.46-0.05-2.92-0.06-4.38-0.01-0.81-0.03-1.62-0.04-2.46 0.1-2.16 0.1-2.16 1.1-4.16 3.04-0.32 6.06-0.38 9.12-0.46 2.9-0.27 2.9-0.27 4.53-2.13 1.84-3.29 1.75-5.8 1.78-9.57 0.01-0.71 0.02-1.42 0.03-2.15 0.03-2.35 0.04-4.7 0.05-7.05l0.06-4.89c0.04-4.29 0.07-8.58 0.1-12.9 0.03-4.38 0.08-8.76 0.12-13.1 0.09-8.58 0.15-17.2 0.21-25.8 5.81-1.59 10.5-1.4 16 1z" fill="#56B8D3"/>
<path transform="translate(826,795)" d="m0 0c1.19 2.25 1.19 2.25 1 5-0.83 2.46-1.85 4.65-3 7-0.56-0.16-1.11-0.31-1.69-0.47-5.53-1.41-9.73-1.92-15.3-0.53-4.54 3.35-6.12 6.47-7 12-0.13 5.56 0.09 10.3 2.75 15.2 5.19 2.79 10.5 2.41 16.2 1.75 2.02-0.61 4.03-1.26 6-2 1 1 1 1 1.1 3.72-0.01 1.1-0.03 2.21-0.04 3.34-0.01 1.11-0.02 2.21-0.02 3.35-0.02 0.85-0.03 1.71-0.04 2.59-8.72 2.83-19.5 3.95-28.1 0.31-6.01-3.26-10.3-6.78-12.9-13.3-2.51-10.3-1.71-20.5 3-30 3.47-5.44 8.49-9.12 14.8-10.7 7.98-1.16 16-1.31 23.2 2.68z" fill="#56B8D3"/>
<path transform="translate(849 782)" d="m0 0c3.38 0.31 3.38 0.31 4.38 1.31 0.45 2.99 0.7 5.99 1 9 5.27 0.99 10.6 1.98 16 3-0.34 0.66-0.66 1.32-1 2-0.25 4.15-0.25 4.15 1 8-0.91-0.02-1.81-0.04-2.74-0.07-1.18-0.02-2.36-0.03-3.58-0.05-1.17-0.03-2.34-0.05-3.55-0.07-3.3-0.06-3.3-0.06-6.13 2.19-0.42 2.82-0.42 2.82-0.3 6.1 0.01 1.22 0.02 2.43 0.03 3.68 0.03 1.27 0.05 2.54 0.08 3.85 0.01 1.28 0.02 2.56 0.04 3.87 0.03 3.17 0.08 6.34 0.15 9.5 4.08 1.36 8.1 1.43 12.4 1.72 2.62 0.28 2.62 0.28 3.62 1.28 0.07 1.52 0.08 3.04 0.06 4.57-0.01 0.82-0.02 1.65-0.03 2.5-0.01 0.64-0.02 1.28-0.03 1.93-3.74 2.41-7.51 2.39-11.8 2.38-0.72 0-1.43-0.01-2.17-0.01-5.59-0.13-8.76-0.8-13-4.37-3.29-3.47-3.65-6.63-4.19-11.3-0.08-0.7-0.16-1.39-0.25-2.11-0.66-6.2-0.69-12.3-0.54-18.6 0.13-3.06 0.13-3.06-1.02-6.01-3.01-1.22-3.01-1.22-6-2 0.12-2.25 0.12-2.25 1-5 0.92-0.57 1.85-1.15 2.81-1.75 4.3-3.04 5.28-6.48 7.19-11.2 1.92-3.75 2.29-3.94 6.62-4.31z" fill="#56B8D3"/>
<path transform="translate(773 616)" d="m0 0c0.93-0 1.87-0.01 2.83-0.01 1.53 0 1.53 0 3.08 0.01 1.56-0 1.56-0 3.14-0.01 2.2 0 4.4 0 6.6 0.01 3.37 0 6.75-0 10.1-0.01 2.13 0 4.26 0 6.39 0.01 1.02-0.01 2.03-0.01 3.08-0.01 0.93 0 1.87 0.01 2.84 0.01h2.51c2.01 0.13 2.01 0.13 4.01 1.13-3.32 7-8.58 12.8-13.5 18.8-0.45 0.55-0.9 1.11-1.36 1.68-3.05 3.63-6.08 6.11-10.1 8.57-5.46-3.2-8.97-7.17-13-12l-2.85-3.27c-1.01-1.16-2.02-2.32-3.02-3.48-0.49-0.56-0.98-1.11-1.48-1.68-4.41-5.13-4.41-5.13-4.65-8.57 1.59-1.59 3.2-1.13 5.4-1.13z" fill="#FBFFFF"/>
<path transform="translate(716,441)" d="m0 0c-0.51 4.86-1.9 7.92-4.56 12-0.73 1.14-1.46 2.28-2.19 3.43-0.37 0.58-0.74 1.17-1.13 1.77-1.84 2.95-3.54 5.96-5.24 8.99-3.21 5.66-6.5 11.2-9.88 16.8-2.29-0.94-3.7-1.52-5.03-3.66-0.37-0.98-0.37-0.98-0.75-1.98-0.28-0.74-0.57-1.47-0.86-2.23-0.28-0.78-0.57-1.57-0.86-2.38-0.3-0.8-0.6-1.6-0.91-2.43-2.58-7-4.72-14.1-6.59-21.3 5.23-6.62 19.3-7.35 27.2-8.81 1.09-0.21 1.09-0.21 2.2-0.41 3.31-0.58 5.31-0.86 8.55 0.22z" fill="#FBFFFF"/>
<path transform="translate(896 444)" d="m0 0c1.08 0.24 1.08 0.24 2.19 0.48 3.66 0.87 6.24 1.49 8.5 4.58-0.02 7.1-3.43 14.4-6 20.9-0.54 1.38-0.54 1.38-1.08 2.79-1.5 3.87-3.02 7.65-4.92 11.3h-2v-2h-2c-0.59-1.11-0.59-1.11-1.18-2.24-3.51-6.61-7.15-13.1-11-19.6-0.4-0.69-0.81-1.38-1.23-2.1-2.48-4.18-5.04-8.28-7.72-12.3-0.92-1.76-0.92-1.76-0.92-4.76 6.57-3.28 20.2 1.34 27.3 2.94z" fill="#FBFFFF"/>
<path transform="translate(793,382)" d="m0 0c4.85 3.94 9.06 8.09 13.1 12.9 0.52 0.61 1.04 1.22 1.57 1.85 10.4 12.4 10.4 12.4 10.4 15.3-4.73 0.03-9.46 0.04-14.2 0.05-1.61 0.01-3.21 0.02-4.81 0.03-22.7 0.12-22.7 0.12-30-1.08l-1-2c15.4-22.2 15.4-22.2 25-27z" fill="#FBFFFF"/>
<path transform="translate(893,544)" d="m0 0c3.32 2.21 3.65 2.98 4.97 6.58 0.52 1.37 0.52 1.37 1.04 2.77 0.35 0.96 0.69 1.91 1.05 2.9 0.35 0.94 0.71 1.88 1.07 2.86 0.68 1.82 1.34 3.65 2 5.49 0.68 1.87 1.39 3.72 2.12 5.57 0.99 3.73 0.88 6.98 0.75 10.8-26.8 6.2-26.8 6.2-36 6 0.54-4.86 2.86-8.49 5.38-12.6 4.58-7.6 8.9-15.3 13.1-23.1 0.44-0.82 0.88-1.63 1.34-2.46 0.39-0.73 0.78-1.45 1.19-2.2 0.96-1.68 0.96-1.68 1.96-2.68z" fill="#FBFFFF"/>
<path transform="translate(690,545)" d="m0 0c3.44 1.15 3.61 1.56 5.28 4.59 0.64 1.13 0.64 1.13 1.29 2.29 0.45 0.82 0.9 1.65 1.37 2.5 4.51 8.04 9.29 15.8 14.4 23.6 0.49 0.75 0.97 1.5 1.47 2.28 0.65 0.99 0.65 0.99 1.31 2 0.93 1.78 0.93 1.78 0.93 4.78-8.44-0.18-16.4-1.55-24.6-3.38-1.46-0.31-1.46-0.31-2.95-0.63-1.38-0.32-1.38-0.32-2.78-0.64-0.82-0.19-1.65-0.37-2.5-0.57-2.37-0.86-3.52-1.87-5.15-3.78 1.22-3.74 2.45-7.47 3.68-11.2 0.62-1.88 1.24-3.77 1.86-5.67 0.39-1.19 0.79-2.39 1.2-3.63 0.36-1.1 0.72-2.2 1.09-3.33 1.18-3.19 2.59-6.15 4.17-9.16z" fill="#FBFFFF"/>
<path transform="translate(632,789)" d="m0 0c3.05 1.33 3.8 2.23 6 5 0.78 4.06 1.15 8.14-1.09 11.8-2.91 1.89-5.6 1.81-9.03 1.99-1.9 0.12-1.9 0.12-3.83 0.23-1 0.01-2.01 0.01-3.05 0.02-2.04-2.04-1.23-6.08-1.25-8.88-0.02-0.73-0.04-1.46-0.06-2.22-0.04-5.33-0.04-5.33 1.56-7.91 3.48-1.97 7.04-0.99 10.8 0.01z" fill="#FBFFFF"/>
<path transform="translate(756,822)" d="m0 0c1.56 1.56 1.28 3.09 1.38 5.25-0.07 3.58-0.33 4.67-2.32 7.81-4.09 2.59-7.33 2.79-12.1 1.94-2.56-1.5-2.56-1.5-4-3 0.06-3.25 0.06-3.25 1-7 4.52-4.02 10.1-5.32 16-5z" fill="#FBFFFF"/>
<path transform="translate(695,803)" d="m0 0c4.72 3.56 4.98 4.88 6 11h-19l-1-3c3.47-6.3 6.64-9.05 14-8z" fill="#FBFFFF"/>
</svg>
